<svg width="310" height="206" viewBox="0 0 310 206" fill="none" xmlns="http://www.w3.org/2000/svg">
<path d="M239.138 48.8879L239.551 50.3423L238.237 59.6041L235.786 60.2839L237.084 51.4341L233.843 52.324L234.286 53.9061L232.293 54.4664L231.338 51.0509L239.138 48.8879Z" fill="#E0E0E0"/>
<path d="M249.124 53.2921C249.604 55.0143 248.756 56.8642 245.975 57.6346C244.667 58.0249 243.273 58.0249 241.965 57.6346L242.379 55.6653C243.348 56.0173 244.404 56.0548 245.396 55.7724C246.52 55.4592 247.087 54.7959 246.867 54.0049C246.648 53.2139 246.012 52.8801 244.243 53.3704L241.763 54.0626L240.738 48.4553L246.681 46.8073L247.173 48.6159L243.106 49.7407L243.47 51.6318L244.263 51.4093C247.144 50.5977 248.645 51.5741 249.124 53.2921Z" fill="#E0E0E0"/>
<path d="M248.942 48.9332C248.504 47.3511 249.099 46.0492 250.41 45.6866C251.72 45.324 252.89 46.0986 253.344 47.7136C253.799 49.3287 253.175 50.5977 251.877 50.9602C250.579 51.3228 249.385 50.5152 248.942 48.9332ZM252.662 47.9073C252.311 46.6466 251.505 46.0615 250.596 46.3129C249.686 46.5642 249.302 47.4912 249.653 48.7436C250.005 49.9961 250.798 50.5935 251.72 50.3381C252.642 50.0826 252.997 49.1721 252.646 47.9073H252.662ZM256.345 44.121L257.172 43.8944L253.229 55.451L252.402 55.6776L256.345 44.121ZM256.209 51.8584C255.771 50.2763 256.378 48.9744 257.672 48.6118C258.966 48.2492 260.152 49.0568 260.611 50.6389C261.07 52.2209 260.454 53.5228 259.143 53.8854C257.833 54.248 256.635 53.4404 256.192 51.8584H256.209ZM259.929 50.8325C259.582 49.5965 258.784 48.9826 257.862 49.238C256.94 49.4935 256.564 50.404 256.92 51.6647C257.275 52.9254 258.077 53.5105 258.986 53.2592C259.896 53.0079 260.243 52.0808 259.896 50.8325H259.929Z" fill="#E0E0E0"/>
<path d="M260.369 184.13L289.471 184.358L289.76 147.741L260.658 147.513L260.369 184.13Z" fill="#EBEBEB"/>
<path d="M278.372 148.827L277.855 184.279L273.259 184.246L274.243 148.794L278.372 148.827Z" fill="#FAFAFA"/>
<path d="M243.945 148.559L260.64 148.691L289.742 148.917L260.611 152.737L260.363 184.143L243.672 184.016L243.945 148.559Z" fill="#E0E0E0"/>
<path d="M253.034 148.629L252.369 184.082L247.417 184.045L248.227 148.592L253.034 148.629Z" fill="#FAFAFA"/>
<path d="M266.249 137.839C266.249 137.913 265.757 138.003 264.86 138.09C263.592 138.213 262.319 138.269 261.045 138.259C259.121 138.267 257.205 138.016 255.349 137.513C255.061 137.421 254.783 137.296 254.522 137.142C254.216 136.967 253.955 136.721 253.762 136.426C253.563 136.108 253.457 135.741 253.456 135.367C253.457 135.039 253.499 134.712 253.58 134.394C253.84 133.204 254.201 132.038 254.659 130.909C254.911 130.319 255.227 129.758 255.601 129.236C255.974 128.7 256.443 128.237 256.986 127.872C257.277 127.677 257.602 127.537 257.945 127.46C258.293 127.385 258.654 127.385 259.003 127.46C259.597 127.63 260.146 127.928 260.611 128.334C262.115 129.548 263.396 131.013 264.397 132.664C265.07 133.764 265.586 134.953 265.93 136.195C266.158 137.076 266.183 137.579 266.121 137.596C265.939 137.649 265.529 135.667 263.756 133.064C262.715 131.561 261.445 130.231 259.991 129.121C259.628 128.818 259.206 128.595 258.751 128.466C258.54 128.424 258.323 128.426 258.114 128.472C257.904 128.517 257.706 128.605 257.531 128.729C257.107 129.03 256.74 129.404 256.449 129.834C256.123 130.296 255.846 130.79 255.622 131.308C255.192 132.379 254.846 133.481 254.584 134.604C254.433 135.005 254.443 135.448 254.613 135.84C254.876 136.181 255.243 136.427 255.659 136.541C256.13 136.693 256.609 136.82 257.093 136.92C257.569 137.027 258.04 137.109 258.499 137.179C259.412 137.324 260.272 137.406 261.065 137.46C262.649 137.567 263.959 137.587 264.839 137.633C265.72 137.678 266.245 137.765 266.249 137.839Z" fill="#E0E0E0"/>
<path d="M265.645 138.106C265.645 138.032 266.174 137.876 267.154 137.653C268.133 137.431 269.564 137.138 271.287 136.722C273.315 136.256 275.302 135.631 277.231 134.852C277.76 134.652 278.261 134.386 278.723 134.061C278.919 133.922 279.083 133.742 279.202 133.533C279.298 133.348 279.327 133.136 279.285 132.932C279.223 132.66 279.128 132.397 279 132.149C278.864 131.856 278.723 131.56 278.587 131.263C278.309 130.674 277.991 130.104 277.636 129.557C277.286 129.027 276.87 128.544 276.396 128.12C275.967 127.713 275.465 127.39 274.916 127.168C274.427 126.977 273.887 126.953 273.383 127.102C272.873 127.281 272.405 127.561 272.006 127.926C270.455 129.28 269.114 130.856 268.026 132.602C267.293 133.785 266.699 135.049 266.257 136.368C265.947 137.311 265.823 137.851 265.74 137.839C265.658 137.826 265.662 137.266 265.852 136.265C266.15 134.848 266.66 133.484 267.365 132.219C268.411 130.336 269.758 128.636 271.353 127.184C271.843 126.712 272.428 126.348 273.069 126.117C273.788 125.889 274.564 125.908 275.272 126.171C275.618 126.295 275.948 126.46 276.255 126.661C276.556 126.859 276.841 127.078 277.111 127.316C277.649 127.801 278.12 128.356 278.512 128.964C278.893 129.552 279.234 130.164 279.533 130.798L279.946 131.708C280.113 132.042 280.233 132.397 280.302 132.763C280.38 133.194 280.308 133.638 280.099 134.024C279.906 134.361 279.641 134.652 279.322 134.876C278.785 135.248 278.202 135.547 277.586 135.766C275.59 136.523 273.527 137.091 271.424 137.464C269.642 137.793 268.191 137.962 267.191 138.065C266.191 138.168 265.658 138.177 265.645 138.106Z" fill="#FAFAFA"/>
<path d="M238.648 148.506L281.427 148.841L281.522 136.72L238.743 136.385L238.648 148.506Z" fill="#E0E0E0"/>
<path d="M254.385 148.625L293.051 148.928L293.146 136.807L254.48 136.505L254.385 148.625Z" fill="#EBEBEB"/>
<path d="M281.273 136.73L281.005 148.905L276.495 148.81L276.809 136.693L281.273 136.73Z" fill="#FAFAFA"/>
<path d="M249.236 136.541L248.798 148.608L243.842 148.567L244.106 136.442L249.236 136.541Z" fill="#FAFAFA"/>
<path d="M282.568 184.559L295.861 184.663L295.992 167.937L282.7 167.833L282.568 184.559Z" fill="#EBEBEB"/>
<path d="M290.788 168.442L290.553 184.634L288.449 184.621L288.899 168.426L290.788 168.442Z" fill="#FAFAFA"/>
<path d="M275.061 168.318L282.687 168.376L295.98 168.483L282.674 170.226L282.559 184.572L274.937 184.514L275.061 168.318Z" fill="#E0E0E0"/>
<path d="M279.211 168.351L278.909 184.547L276.644 184.527L277.016 168.335L279.211 168.351Z" fill="#FAFAFA"/>
<path d="M285.25 163.424C285.25 163.56 284.361 163.766 282.865 163.836C281.961 163.869 281.057 163.771 280.182 163.543C279.829 163.451 279.519 163.238 279.306 162.942C279.186 162.753 279.121 162.535 279.12 162.311C279.12 162.138 279.139 161.965 279.178 161.796C279.297 161.234 279.466 160.682 279.682 160.148C279.806 159.858 279.961 159.581 280.145 159.324C280.335 159.046 280.578 158.807 280.86 158.62C281.026 158.511 281.212 158.437 281.407 158.403C281.603 158.368 281.803 158.373 281.997 158.418C282.303 158.509 282.585 158.667 282.823 158.88C283.524 159.455 284.114 160.153 284.563 160.94C285.312 162.303 285.303 163.288 285.175 163.304C285.047 163.321 284.762 162.48 283.935 161.352C283.452 160.705 282.875 160.133 282.224 159.654C282.09 159.541 281.934 159.458 281.765 159.411C281.705 159.402 281.645 159.405 281.586 159.421C281.528 159.437 281.473 159.464 281.426 159.502C281.264 159.621 281.125 159.767 281.013 159.934C280.877 160.129 280.762 160.338 280.67 160.556C280.478 161.029 280.324 161.515 280.207 162.011C280.145 162.241 280.157 162.344 280.178 162.369C280.262 162.472 280.376 162.545 280.504 162.579C280.91 162.713 281.324 162.816 281.744 162.888C282.158 162.962 282.538 163.012 282.894 163.049C284.324 163.197 285.245 163.263 285.25 163.424Z" fill="#E0E0E0"/>
<path d="M284.973 163.564C284.948 163.407 285.944 163.152 287.511 162.74C288.416 162.5 289.304 162.199 290.168 161.838C290.386 161.752 290.593 161.639 290.784 161.504C290.84 161.463 290.886 161.411 290.921 161.352C290.921 161.319 290.921 161.319 290.921 161.257C290.84 161.021 290.741 160.792 290.623 160.573C290.5 160.316 290.362 160.067 290.21 159.827C290.065 159.607 289.894 159.405 289.701 159.226C289.532 159.066 289.336 158.938 289.123 158.847C288.958 158.777 288.774 158.765 288.602 158.814C288.404 158.88 288.223 158.987 288.069 159.127C287.371 159.72 286.759 160.406 286.25 161.166C285.378 162.476 285.196 163.482 285.01 163.457C284.944 163.457 284.898 163.181 284.952 162.707C285.048 162.036 285.259 161.387 285.576 160.787C286.04 159.888 286.657 159.075 287.399 158.385C287.648 158.142 287.947 157.955 288.275 157.837C288.662 157.71 289.08 157.717 289.461 157.858C289.643 157.919 289.815 158.003 289.974 158.109C290.119 158.206 290.258 158.313 290.387 158.43C290.652 158.674 290.885 158.951 291.078 159.254C291.258 159.533 291.42 159.823 291.561 160.124C291.627 160.268 291.689 160.408 291.755 160.536C291.841 160.712 291.902 160.899 291.937 161.092C291.98 161.35 291.936 161.615 291.813 161.846C291.704 162.035 291.554 162.198 291.375 162.324C291.109 162.5 290.82 162.639 290.515 162.736C289.585 163.076 288.623 163.32 287.643 163.465C286.027 163.692 284.997 163.679 284.973 163.564Z" fill="#FAFAFA"/>
<path d="M272.649 168.286L292.187 168.438L292.231 162.901L272.693 162.748L272.649 168.286Z" fill="#E0E0E0"/>
<path d="M279.834 168.343L297.495 168.481L297.539 162.944L279.877 162.806L279.834 168.343Z" fill="#EBEBEB"/>
<path d="M292.111 162.917L291.987 168.475L289.928 168.434L290.073 162.901L292.111 162.917Z" fill="#FAFAFA"/>
<path d="M277.475 162.827L277.276 168.339L275.011 168.323L275.135 162.781L277.475 162.827Z" fill="#FAFAFA"/>
<path d="M29.6447 184.503L53.485 184.69L53.7214 154.693L29.8811 154.506L29.6447 184.503Z" fill="#EBEBEB"/>
<path d="M44.3878 155.571L43.9662 184.617L40.1966 184.588L41.0067 155.547L44.3878 155.571Z" fill="#FAFAFA"/>
<path d="M16.1861 155.353L29.8633 155.46L53.7044 155.645L29.8385 158.777L29.636 184.506L15.9629 184.399L16.1861 155.353Z" fill="#E0E0E0"/>
<path d="M23.6302 155.411L23.0887 184.452L19.0298 184.424L19.6911 155.382L23.6302 155.411Z" fill="#FAFAFA"/>
<path d="M34.4554 146.573C34.4554 146.721 34.0421 146.874 33.327 147.022C31.5566 147.355 29.7497 147.452 27.9537 147.311C27.5403 147.274 27.127 147.228 26.7137 147.154C26.253 147.085 25.7973 146.986 25.3497 146.857C25.0686 146.771 24.7982 146.654 24.5437 146.507C24.2115 146.318 23.9284 146.054 23.717 145.737C23.4931 145.382 23.3715 144.973 23.3657 144.554C23.3634 144.235 23.4009 143.917 23.4773 143.607C23.6907 142.593 23.9936 141.601 24.3825 140.64C24.6046 140.118 24.8817 139.621 25.2091 139.157C25.384 138.923 25.5731 138.7 25.7754 138.49C25.9978 138.257 26.2493 138.053 26.5235 137.884C26.8277 137.687 27.1653 137.548 27.5197 137.472C27.8931 137.398 28.2783 137.406 28.6481 137.497C29.2195 137.66 29.7466 137.95 30.1898 138.345C31.4536 139.392 32.513 140.661 33.3146 142.091C33.8531 143.041 34.2288 144.074 34.4265 145.148C34.5463 145.906 34.4843 146.342 34.3479 146.384C34.0297 146.462 33.5213 144.905 32.0333 142.923C31.1603 141.779 30.1275 140.767 28.9663 139.915C28.7384 139.724 28.4721 139.583 28.1851 139.503C28.0915 139.49 27.9961 139.497 27.9051 139.522C27.814 139.548 27.7292 139.592 27.6561 139.652C27.5287 139.741 27.411 139.843 27.3047 139.956C27.189 140.084 27.0609 140.245 26.9451 140.401C26.7081 140.744 26.506 141.11 26.3417 141.493C26.0044 142.336 25.7282 143.202 25.515 144.085C25.4713 144.227 25.4449 144.373 25.4365 144.521C25.4365 144.616 25.4365 144.624 25.4365 144.645C25.5748 144.81 25.7611 144.928 25.9697 144.983C26.3289 145.109 26.6945 145.216 27.065 145.304C27.4411 145.399 27.8131 145.473 28.1727 145.543C28.8961 145.675 29.5863 145.77 30.2394 145.844C31.5125 145.988 32.5706 146.075 33.3022 146.186C34.0338 146.297 34.4513 146.425 34.4554 146.573Z" fill="#E0E0E0"/>
<path d="M33.9636 146.787C33.9098 146.482 35.6954 145.988 38.5102 145.218C40.1268 144.778 41.7109 144.227 43.2512 143.57C43.6334 143.42 43.9946 143.222 44.3258 142.981C44.4165 142.919 44.4915 142.837 44.5449 142.742C44.5449 142.704 44.5449 142.742 44.5449 142.639C44.4985 142.473 44.4348 142.313 44.3548 142.161L44.0117 141.448C43.7927 140.992 43.5456 140.551 43.2718 140.125C43.0197 139.737 42.7198 139.381 42.379 139.067C42.2192 138.916 42.0478 138.778 41.8665 138.655C41.7153 138.548 41.5514 138.461 41.3788 138.395C41.106 138.278 40.8016 138.256 40.5149 138.333C40.1735 138.449 39.8597 138.635 39.5932 138.877C38.3466 139.928 37.2495 141.144 36.332 142.49C34.7572 144.814 34.4017 146.61 34.0752 146.561C33.9346 146.561 33.8354 146.062 33.9264 145.205C34.0845 143.993 34.4538 142.818 35.0176 141.732C35.8441 140.106 36.9491 138.637 38.2829 137.39C38.7409 136.943 39.289 136.599 39.8908 136.38C40.6086 136.147 41.3843 136.16 42.0938 136.417C42.4242 136.533 42.7393 136.688 43.0321 136.879C43.306 137.055 43.5658 137.252 43.8092 137.468C44.2854 137.899 44.7023 138.391 45.0492 138.931C45.3763 139.436 45.669 139.964 45.9254 140.509L46.2726 141.267C46.4303 141.592 46.543 141.937 46.6074 142.292C46.6896 142.78 46.6052 143.28 46.3677 143.714C46.1627 144.07 45.8802 144.375 45.541 144.608C45.0557 144.94 44.5273 145.205 43.9704 145.395C42.2968 146.003 40.5637 146.434 38.7996 146.68C37.6323 146.859 36.4545 146.959 35.2738 146.981C34.4596 147.006 33.9842 146.936 33.9636 146.787Z" fill="#FAFAFA"/>
<path d="M11.8534 155.32L46.8947 155.594L46.9729 145.665L11.9316 145.391L11.8534 155.32Z" fill="#E0E0E0"/>
<path d="M24.7339 155.418L56.4108 155.666L56.489 145.737L24.8121 145.489L24.7339 155.418Z" fill="#EBEBEB"/>
<path d="M46.7645 145.663L46.5455 155.637L42.8503 155.559L43.1065 145.634L46.7645 145.663Z" fill="#FAFAFA"/>
<path d="M20.5179 145.506L20.1624 155.394L16.0994 155.361L16.3184 145.428L20.5179 145.506Z" fill="#FAFAFA"/>
<path d="M56.9573 31.5922L57.3706 33.1619L51.0673 34.777L50.7449 33.541L53.1836 29.6888C53.7416 28.7988 53.7622 28.3374 53.6589 27.9336C53.4894 27.2786 52.9397 27.0149 52.0593 27.2415C51.7214 27.313 51.4065 27.4666 51.1425 27.6887C50.8786 27.9108 50.6739 28.1945 50.5465 28.5146L48.8932 27.9707C49.3065 26.8666 50.3068 25.9643 51.7865 25.577C53.6465 25.1032 55.1304 25.7377 55.5065 27.225C55.7173 28.049 55.6801 28.8277 54.7873 30.2079L53.3365 32.5027L56.9573 31.5922Z" fill="#E0E0E0"/>
<path d="M57.0648 28.807C56.358 26.059 57.4781 24.1144 59.5448 23.5911C61.6115 23.0679 63.5211 24.2297 64.2279 26.9736C64.9347 29.7176 63.8145 31.6622 61.7479 32.1896C59.6812 32.7169 57.7716 31.551 57.0648 28.807ZM62.2728 27.4722C61.7851 25.5811 60.9171 24.9713 59.9499 25.2185C58.9827 25.4657 58.5321 26.4174 59.0199 28.3044C59.5076 30.1914 60.3756 30.8052 61.3304 30.5622C62.2852 30.3191 62.7605 29.3591 62.2728 27.4722Z" fill="#E0E0E0"/>
<path d="M64.6908 24.7653C64.3395 23.4098 64.8727 22.2933 65.9928 22.0255C67.1129 21.7577 68.1049 22.4375 68.4728 23.8012C68.8407 25.1649 68.2785 26.2732 67.1708 26.541C66.0631 26.8088 65.038 26.1167 64.6908 24.7653ZM67.8611 23.9413C67.58 22.8577 66.9021 22.3469 66.1292 22.5487C65.3563 22.7506 65.0091 23.5293 65.3025 24.6087C65.596 25.6882 66.2449 26.2032 67.0344 26.0013C67.8239 25.7994 68.138 25.0331 67.8611 23.9537V23.9413ZM71.0603 20.7771L71.7629 20.6L68.2 30.385L67.4973 30.5663L71.0603 20.7771ZM70.8123 27.3691C70.4651 26.0137 71.0065 24.8971 72.1143 24.6293C73.222 24.3615 74.2305 25.0413 74.5943 26.4051C74.958 27.7688 74.4124 28.8771 73.2923 29.1407C72.1721 29.4044 71.1636 28.7287 70.8123 27.3774V27.3691ZM73.9825 26.5451C73.7056 25.4739 73.0401 24.9507 72.2507 25.1526C71.4612 25.3545 71.1305 26.1208 71.424 27.2126C71.7175 28.3044 72.3829 28.8029 73.1559 28.6051C73.9288 28.4074 74.2595 27.6328 73.9867 26.5657L73.9825 26.5451Z" fill="#E0E0E0"/>
<path d="M135.255 57.6429C135.288 59.3445 134.015 60.9389 131.122 60.9719C129.759 61.0214 128.412 60.6688 127.249 59.9584L128.125 58.1579C128.977 58.7362 129.988 59.0358 131.018 59.0149C132.188 58.9943 132.903 58.5081 132.891 57.6841C132.891 56.9219 132.304 56.4481 130.977 56.4811H129.907L129.882 54.9402L131.919 52.5588L127.613 52.633L127.584 50.7584L134.66 50.6389L134.689 52.151L132.461 54.796C134.288 55.0556 135.23 56.1597 135.255 57.6429Z" fill="#E0E0E0"/>
<path d="M136.305 55.6694C136.247 52.324 138.053 50.4247 140.533 50.3794C143.013 50.334 144.898 52.1922 144.956 55.517C145.014 58.8418 143.212 60.7659 140.715 60.8071C138.219 60.8483 136.363 58.9943 136.305 55.6694ZM142.621 55.5582C142.579 53.2716 141.753 52.3322 140.583 52.3528C139.413 52.3734 138.636 53.3375 138.677 55.6488C138.719 57.9602 139.541 58.8748 140.695 58.8542C141.848 58.8336 142.658 57.8489 142.621 55.5582Z" fill="#E0E0E0"/>
<path d="M146.117 53.1233C146.089 51.4753 146.994 50.3712 148.354 50.3464C149.713 50.3217 150.656 51.3888 150.685 53.045C150.714 54.7013 149.792 55.7972 148.449 55.8178C147.105 55.8384 146.146 54.7631 146.117 53.1233ZM149.961 53.0574C149.937 51.7472 149.304 50.9974 148.366 50.9974C147.428 50.9974 146.816 51.8214 146.841 53.1151C146.866 54.4088 147.481 55.1751 148.436 55.1751C149.391 55.1751 149.982 54.384 149.961 53.0574ZM154.479 50.3135H155.331L148.602 60.5105H147.75L154.479 50.3135ZM152.413 57.7666C152.388 56.1186 153.305 55.0144 154.649 54.9938C155.992 54.9732 156.951 56.0485 156.98 57.6883C157.009 59.328 156.104 60.4404 154.744 60.4652C153.384 60.4899 152.425 59.4104 152.396 57.7666H152.413ZM156.257 57.7006C156.236 56.407 155.616 55.6406 154.661 55.6406C153.706 55.6406 153.115 56.444 153.136 57.7542C153.157 59.0644 153.793 59.8142 154.731 59.8142C155.67 59.8142 156.265 58.9984 156.24 57.7006H156.257Z" fill="#E0E0E0"/>
<path d="M184.173 26.504C183.975 27.7894 182.855 28.7659 180.771 28.4486C179.786 28.3164 178.86 27.8997 178.109 27.2497L178.973 26.0632C179.511 26.5859 180.201 26.9249 180.945 27.0314C181.792 27.1591 182.367 26.8872 182.458 26.2939C182.549 25.7006 182.226 25.2927 180.904 25.0908L179.039 24.8066L180.04 20.7731L184.487 21.4488L184.281 22.8001L181.238 22.3387L180.912 23.6983L181.507 23.7889C183.665 24.1185 184.371 25.2144 184.173 26.504Z" fill="#F5F5F5"/>
<path d="M185.066 25.2597C185.434 22.8577 186.975 21.7 188.786 21.9637C190.596 22.2274 191.704 23.7971 191.336 26.1991C190.968 28.601 189.435 29.7546 187.616 29.4951C185.797 29.2355 184.702 27.6575 185.066 25.2597ZM189.613 25.9519C189.865 24.3039 189.385 23.5252 188.542 23.3975C187.699 23.2697 187.021 23.8671 186.769 25.5193C186.517 27.1714 186.992 27.9418 187.827 28.0695C188.662 28.1973 189.369 27.604 189.621 25.956L189.613 25.9519Z" fill="#F5F5F5"/>
<path d="M192.436 24.6252C192.617 23.4427 193.407 22.7547 194.387 22.903C195.366 23.0513 195.912 23.933 195.73 25.1278C195.548 26.3226 194.75 26.9983 193.779 26.85C192.808 26.7017 192.254 25.8117 192.436 24.6252ZM198.813 23.6281L199.429 23.7229L193.316 30.2325L192.7 30.1377L198.813 23.6281ZM195.23 25.0495C195.374 24.1019 195.011 23.4757 194.333 23.3727C193.655 23.2697 193.122 23.7847 192.977 24.7076C192.832 25.6305 193.184 26.2773 193.874 26.3844C194.564 26.4915 195.064 25.993 195.209 25.0495H195.23ZM196.399 28.7328C196.581 27.5504 197.379 26.8623 198.35 27.0107C199.322 27.159 199.876 28.053 199.694 29.2355C199.512 30.4179 198.722 31.1059 197.743 30.9576C196.763 30.8093 196.197 29.9194 196.379 28.7328H196.399ZM199.173 29.1448C199.313 28.2096 198.966 27.571 198.276 27.468C197.586 27.365 197.065 27.8553 196.92 28.7987C196.776 29.7422 197.139 30.3767 197.817 30.4797C198.495 30.5827 199.008 30.0759 199.152 29.1572L199.173 29.1448Z" fill="#F5F5F5"/>
<path d="M18.2859 61.4663L16.7731 67.9058L15.2933 67.568L16.5333 62.3232L15.2396 62.0225L15.5207 60.8235L18.2859 61.4663Z" fill="#F5F5F5"/>
<path d="M18.6578 64.9518C19.1538 62.8259 20.6211 61.8948 22.2083 62.2656C23.7955 62.6364 24.6883 64.1196 24.1923 66.2414C23.6963 68.3632 22.2414 69.2984 20.6418 68.9276C19.0422 68.5568 18.1577 67.0777 18.6578 64.9518ZM22.6919 65.8911C23.035 64.4285 22.6589 63.6993 21.9107 63.5263C21.1626 63.3532 20.5137 63.8394 20.1706 65.302C19.8275 66.7646 20.1995 67.4938 20.9394 67.6669C21.6793 67.8399 22.3447 67.3537 22.6919 65.8911Z" fill="#F5F5F5"/>
<path d="M31.0785 64.4533L31.6241 64.581L25.6969 69.9906L25.1555 69.8629L31.0785 64.4533ZM25.2919 64.9024C25.5399 63.8518 26.2963 63.2915 27.1643 63.4933C28.0323 63.6952 28.458 64.5233 28.21 65.5822C27.962 66.641 27.2015 67.189 26.3417 66.9912C25.482 66.7935 25.0604 65.9489 25.3043 64.9024H25.2919ZM27.7471 65.4751C27.9455 64.6511 27.6644 64.0495 27.0651 63.9095C26.4657 63.7694 25.9491 64.1814 25.7548 65.0095C25.5605 65.8376 25.8292 66.435 26.4409 66.5751C27.0527 66.7152 27.5652 66.332 27.7595 65.4751H27.7471ZM28.5407 68.8617C28.7845 67.8111 29.5492 67.2549 30.4089 67.4527C31.2687 67.6504 31.7027 68.495 31.4588 69.5415C31.2149 70.588 30.4544 71.1524 29.5864 70.9505C28.7184 70.7487 28.3051 69.9082 28.5531 68.8617H28.5407ZM31 69.4344C31.1943 68.6104 30.9256 68.0089 30.318 67.8688C29.7104 67.7287 29.202 68.1325 29.0077 68.9688C28.8135 69.8052 29.0904 70.3943 29.6897 70.5344C30.2891 70.6745 30.814 70.2625 31 69.4344Z" fill="#F5F5F5"/>
<path d="M57.4121 128.078C50.216 120.741 38.9444 117.655 28.9996 120.308C37.4801 126.066 47.4861 129.182 57.7469 129.261" fill="#DA0916"/>
<path d="M47.7731 94.0637C48.9594 85.7166 45.7065 76.3477 39.4362 70.2625C39.2295 78.5354 42.7429 87.8425 47.7731 94.0637Z" fill="#DA0916"/>
<path d="M52.7868 109.827C48.2535 101.254 41.0402 94.3881 32.24 90.2692C34.8564 99.8771 43.1024 107.738 52.8488 109.918" fill="#DA0916"/>
<path d="M53.8243 112.888C48.7692 113.028 43.648 112.851 38.7583 111.561C33.8686 110.272 29.1855 107.792 25.945 103.931C35.8394 103.966 45.5045 106.905 53.7334 112.381" fill="#DA0916"/>
<path d="M51.2534 102.852C53.8202 93.2603 58.0568 86.6271 65.6167 81.2546C66.1957 85.9698 65.0671 90.7361 62.4338 94.6955C59.8006 98.6548 55.8359 101.547 51.2534 102.852Z" fill="#DA0916"/>
<path d="M70.3452 119.389C70.364 116.592 69.5528 113.851 68.0135 111.512C66.4743 109.173 64.2757 107.34 61.6942 106.242C62.1075 111.186 66.0176 116.921 70.3452 119.389Z" fill="#DA0916"/>
<path d="M72.7467 111.302C73.3212 103.293 79.0294 95.8806 86.6471 93.2603C84.9152 101.274 80.2694 107.944 72.7467 111.302Z" fill="#DA0916"/>
<path d="M69.1218 125.66C70.9032 123.118 73.8131 121.54 76.8263 120.749C79.8395 119.958 82.985 119.896 86.0974 119.83C83.9763 122.125 81.3816 123.935 78.4918 125.135C75.602 126.335 72.4857 126.896 69.3574 126.781" fill="#DA0916"/>
<path d="M65.5051 146.091C71.1803 144.346 77.3054 144.784 82.6726 147.318C88.0399 149.853 92.2599 154.299 94.5004 159.782C83.9687 157.796 73.5734 153.128 65.5051 146.091Z" fill="#DA0916"/>
<path d="M53.9483 138.988C55.6967 144.142 55.3619 150.376 51.4683 154.817C50.6936 152.159 50.5142 149.363 50.9427 146.628C51.3713 143.893 52.3973 141.285 53.9483 138.988Z" fill="#DA0916"/>
<path d="M47.12 136.125C46.8364 139.447 45.6984 142.641 43.8161 145.398C41.9337 148.155 39.3704 150.381 36.3734 151.863C36.2339 151.952 36.0775 152.012 35.914 152.038C35.7504 152.064 35.5832 152.057 35.4227 152.016C34.9474 151.826 34.906 151.192 34.9639 150.673C35.7244 144.081 40.6348 137.682 47.12 136.125Z" fill="#DA0916"/>
<path d="M42.6519 135.453C41.1673 137.052 39.3691 138.329 37.369 139.206C35.3688 140.083 33.2092 140.542 31.024 140.553C28.8388 140.564 26.6746 140.128 24.6655 139.271C22.6563 138.414 20.8451 137.156 19.3441 135.573C26.751 134.749 35.3029 134.225 42.6519 135.453Z" fill="#DA0916"/>
<path d="M41.5442 76.4136C41.56 76.4882 41.5821 76.5612 41.6103 76.632C41.6682 76.7844 41.7426 76.9904 41.8376 77.2541C42.0484 77.8144 42.346 78.6178 42.7304 79.6478C43.1148 80.6778 43.5902 81.955 44.1234 83.4382L44.979 85.8072C45.2724 86.6312 45.5824 87.5459 45.9048 88.4811C47.2192 92.2221 48.6742 96.7211 50.249 101.706C51.8238 106.692 53.4192 112.241 55.0147 118.071C56.6102 123.901 57.9866 129.5 59.1728 134.605C60.3591 139.709 61.3222 144.328 62.0372 148.225C62.2218 149.198 62.3968 150.123 62.5622 151.002C62.7151 151.88 62.8556 152.712 62.9755 153.474C63.2442 155.023 63.4715 156.358 63.6286 157.458C63.7856 158.558 63.9262 159.39 64.0171 159.98C64.0626 160.256 64.0998 160.474 64.1246 160.635C64.1336 160.71 64.1488 160.784 64.17 160.857C64.1765 160.782 64.1765 160.706 64.17 160.631C64.1494 160.47 64.1246 160.252 64.0874 159.971C64.0088 159.378 63.8972 158.529 63.7526 157.442C63.6079 156.354 63.4012 155.003 63.1491 153.449C63.021 152.671 62.8887 151.838 62.7358 150.957C62.5828 150.075 62.4092 149.152 62.2315 148.176C61.5371 144.27 60.5782 139.652 59.425 134.534C58.2718 129.417 56.8582 123.822 55.2916 117.984C53.7251 112.146 52.0635 106.621 50.5011 101.616C48.9387 96.6099 47.4383 92.1397 46.0991 88.4028C45.7684 87.469 45.4529 86.5804 45.1526 85.7372L44.2763 83.3723C43.7266 81.8932 43.2512 80.6243 42.8379 79.5943C42.4246 78.5643 42.1146 77.7774 41.8955 77.2212L41.6434 76.6073C41.6147 76.5406 41.5816 76.4759 41.5442 76.4136Z" fill="#252536"/>
<path d="M82.2534 97.541C82.2064 97.576 82.1634 97.6161 82.1253 97.6605L81.7698 98.0313C81.4598 98.3609 81.0134 98.8553 80.4554 99.498C78.8657 101.327 77.4072 103.266 76.0906 105.299C74.1301 108.316 72.5999 111.589 71.544 115.026C70.304 118.895 69.56 123.299 68.8077 127.897C67.299 137.105 65.4514 145.354 64.1122 151.319C63.4385 154.29 62.8722 156.696 62.5085 158.385C62.3266 159.209 62.182 159.848 62.0952 160.305C62.0497 160.515 62.0166 160.68 61.9877 160.808C61.9737 160.864 61.9654 160.922 61.9629 160.981C61.9868 160.927 62.0049 160.87 62.0166 160.812C62.0497 160.688 62.0952 160.523 62.1489 160.317C62.2646 159.864 62.4217 159.226 62.6284 158.41C63.0417 156.729 63.608 154.327 64.3189 151.365C65.7077 145.411 67.5884 137.163 69.097 127.942C69.8534 123.345 70.6016 118.957 71.8044 115.1C72.8496 111.681 74.3569 108.42 76.2849 105.406C77.5814 103.37 79.0105 101.422 80.5629 99.5722C81.1085 98.913 81.5425 98.4103 81.8401 98.0684C81.9765 97.9077 82.0881 97.78 82.1708 97.677C82.2021 97.6341 82.2298 97.5886 82.2534 97.541Z" fill="#252536"/>
<path d="M40.4406 135.136C40.5258 135.166 40.615 135.182 40.7051 135.185L41.4739 135.268L42.0278 135.326L42.6809 135.42C43.1521 135.49 43.6894 135.56 44.2722 135.688L45.1939 135.873L46.1777 136.121C46.8638 136.273 47.5706 136.533 48.327 136.751C49.9443 137.31 51.5132 137.999 53.0183 138.811C54.5128 139.645 55.9221 140.622 57.2261 141.728C57.7908 142.214 58.3289 142.73 58.8381 143.273C59.293 143.737 59.7195 144.229 60.1153 144.744C60.4541 145.159 60.7701 145.592 61.0618 146.042C61.2986 146.376 61.5153 146.724 61.7107 147.084L62.1034 147.747C62.1444 147.828 62.1958 147.903 62.2563 147.97C62.2347 147.881 62.1999 147.797 62.153 147.718L61.8058 147.03C61.6284 146.663 61.4239 146.309 61.1941 145.972C60.9139 145.51 60.6075 145.064 60.2765 144.637C59.8849 144.11 59.4625 143.606 59.0117 143.129C58.5027 142.573 57.9632 142.047 57.3955 141.551C56.0875 140.421 54.6664 139.429 53.1547 138.589C51.6351 137.768 50.0476 137.079 48.4097 136.529C47.645 136.306 46.9299 136.063 46.2355 135.919L45.2394 135.684L44.3094 135.519C43.7183 135.4 43.1769 135.346 42.7015 135.288L42.0402 135.214L41.4822 135.185L40.7093 135.136C40.6201 135.124 40.5298 135.124 40.4406 135.136Z" fill="#252536"/>
<path d="M38.3284 97.7141C38.4853 97.9031 38.6612 98.0757 38.8534 98.2291L40.3786 99.5474C41.6764 100.652 43.4786 102.16 45.4791 103.816C47.4796 105.472 49.3066 106.959 50.6334 108.022L52.2164 109.258C52.4021 109.417 52.6045 109.555 52.8199 109.67C52.6604 109.481 52.4817 109.308 52.2867 109.155L50.7615 107.837C49.4636 106.733 47.6615 105.225 45.661 103.569C43.6604 101.912 41.8376 100.429 40.5108 99.3662L38.9278 98.1302C38.7408 97.9739 38.5403 97.8347 38.3284 97.7141Z" fill="#252536"/>
<path d="M36.5056 107.487C36.5056 107.561 40.3744 108.772 45.1856 110.194C49.9968 111.615 53.9359 112.703 53.9566 112.628C53.9772 112.554 50.0878 111.339 45.2766 109.922C40.4654 108.504 36.5304 107.413 36.5056 107.487Z" fill="#252536"/>
<path d="M50.8731 103.597C51.0291 103.426 51.1676 103.24 51.2865 103.041L52.3115 101.484C53.1795 100.17 54.4154 98.3815 55.8786 96.4739C57.3418 94.5663 58.7471 92.9101 59.7846 91.7277C60.2723 91.1673 60.6857 90.6977 61.0246 90.3269C61.1791 90.1618 61.3176 89.9825 61.4379 89.7913C61.2484 89.9215 61.0762 90.0752 60.9254 90.2486C60.6113 90.5576 60.1649 91.0149 59.6234 91.5917C58.5487 92.7453 57.1103 94.3933 55.643 96.305C54.1757 98.2167 52.9646 100.034 52.1338 101.373C51.7205 102.044 51.3939 102.609 51.1831 102.984C51.0559 103.175 50.9518 103.381 50.8731 103.597Z" fill="#252536"/>
<path d="M64.3808 109.019C64.6523 109.537 64.9574 110.037 65.2943 110.515C65.8771 111.425 66.6666 112.69 67.4808 114.12C68.2951 115.55 68.9854 116.876 69.4772 117.828C69.7181 118.361 69.9943 118.877 70.3039 119.373C70.1428 118.804 69.9269 118.252 69.6591 117.725C69.2168 116.736 68.5514 115.393 67.733 113.951C66.9146 112.509 66.0796 111.261 65.4679 110.375C65.1499 109.889 64.7858 109.435 64.3808 109.019Z" fill="#252536"/>
<path d="M69.0267 125.92C69.0474 125.957 69.7872 125.594 71.0024 125.05C72.2176 124.506 73.8958 123.814 75.8302 123.122C77.7646 122.43 79.5212 121.956 80.8108 121.631C82.1004 121.305 82.9064 121.12 82.8775 121.079C82.6827 121.074 82.4882 121.095 82.2988 121.14C81.9268 121.194 81.3978 121.293 80.7447 121.433C79.0402 121.805 77.3603 122.281 75.7144 122.858C74.0688 123.431 72.4594 124.103 70.895 124.869C70.2956 125.166 69.8203 125.417 69.4938 125.606C69.3262 125.692 69.1694 125.797 69.0267 125.92Z" fill="#252536"/>
<path d="M65.3646 146.124C65.4407 146.161 65.5213 146.187 65.6044 146.202L66.307 146.379L68.8945 146.977C71.747 147.574 74.5669 148.316 77.343 149.202C80.1079 150.127 82.7546 151.371 85.2294 152.91C86.1718 153.507 86.9076 154.034 87.4036 154.418C87.6521 154.625 87.913 154.818 88.1848 154.994C88.1848 154.994 88.131 154.924 88.0112 154.809C87.8913 154.694 87.7136 154.529 87.4697 154.331C86.7905 153.76 86.0784 153.229 85.3369 152.741C82.876 151.148 80.2218 149.875 77.4381 148.95C74.652 148.057 71.8123 147.338 68.9358 146.8L66.3277 146.26C66.0105 146.191 65.6886 146.145 65.3646 146.124Z" fill="#252536"/>
<path d="M52.2082 151.101C52.2826 151.101 52.7455 148.394 53.2415 145.028C53.7375 141.662 54.0682 138.922 53.9938 138.91C53.9194 138.898 53.4565 141.621 52.9605 144.987C52.4645 148.353 52.1297 151.093 52.2082 151.101Z" fill="#252536"/>
<path d="M38.5062 146.145C38.9512 145.685 39.3655 145.196 39.7462 144.682C40.4861 143.763 41.5112 142.498 42.6726 141.122C43.8341 139.746 44.9046 138.519 45.6858 137.633C46.1329 137.175 46.5473 136.686 46.9258 136.17C46.7736 136.262 46.6345 136.375 46.5125 136.504C46.2728 136.735 45.938 137.072 45.5246 137.501C44.698 138.354 43.6068 139.561 42.4412 140.941C41.2756 142.321 40.2753 143.607 39.5726 144.558C39.2213 145.036 38.9444 145.428 38.746 145.7C38.645 145.836 38.5643 145.986 38.5062 146.145Z" fill="#252536"/>
<path d="M74.7638 158.81V165.558H73.0691L67.0551 184.489H53.7086L47.8806 165.743L45.6238 165.558V158.81H74.7638Z" fill="#455A64"/>
<path d="M46.7522 165.744C46.7522 165.822 52.6422 165.889 59.9086 165.889C67.175 165.889 73.0691 165.822 73.0691 165.744C73.0691 165.665 67.1791 165.603 59.9086 165.603C52.6381 165.603 46.7522 165.665 46.7522 165.744Z" fill="#252536"/>
<path d="M37.1546 122.339C37.4329 122.44 37.7191 122.517 38.0102 122.57L40.3497 123.134C42.3254 123.621 45.0369 124.37 47.9757 125.343C50.9145 126.315 53.5268 127.374 55.4157 128.177L57.6229 129.137C57.8892 129.27 58.1656 129.382 58.4496 129.471C58.2053 129.304 57.9466 129.16 57.6766 129.038C57.1724 128.775 56.4366 128.416 55.5025 127.992C50.6652 125.792 45.612 124.098 40.4241 122.937C39.4321 122.718 38.622 122.558 38.0598 122.463C37.762 122.397 37.4593 122.355 37.1546 122.339Z" fill="#252536"/>
<path d="M51.1831 176.258C51.1831 176.337 55.3165 176.399 60.4129 176.399C65.5093 176.399 69.6467 176.337 69.6467 176.258C69.6467 176.18 65.5134 176.118 60.4129 176.118C55.3123 176.118 51.1831 176.18 51.1831 176.258Z" fill="#FAFAFA"/>
<path d="M50.6623 174.688C50.6623 174.767 55.0437 174.829 60.4459 174.829C65.8482 174.829 70.2337 174.767 70.2337 174.688C70.2337 174.61 65.8523 174.548 60.4459 174.548C55.0395 174.548 50.6623 174.614 50.6623 174.688Z" fill="#FAFAFA"/>
<path d="M262.942 132.569L235.385 101.71C234.3 100.496 232.971 99.5209 231.484 98.8496C229.998 98.1782 228.387 97.8251 226.755 97.8129L136.032 97.1579C134.491 97.1464 132.962 97.4397 131.535 98.0206C130.108 98.6016 128.811 99.4588 127.718 100.543C126.625 101.626 125.759 102.915 125.169 104.335C124.579 105.755 124.277 107.277 124.281 108.813L124.434 172.846C124.437 174.375 124.743 175.889 125.334 177.3C125.925 178.711 126.789 179.992 127.877 181.069C128.965 182.147 130.255 183 131.675 183.58C133.094 184.16 134.614 184.455 136.148 184.448L226.556 184.069C228.226 184.065 229.875 183.704 231.393 183.009C232.91 182.315 234.261 181.304 235.352 180.044L263.074 147.908C264.922 145.77 265.928 143.036 265.903 140.214C265.879 137.392 264.826 134.675 262.942 132.569ZM247.607 143.693C246.891 145.451 245.668 146.957 244.092 148.021C242.517 149.086 240.66 149.661 238.757 149.674C236.854 149.686 234.99 149.136 233.4 148.093C231.811 147.049 230.568 145.56 229.828 143.812C229.088 142.064 228.884 140.137 229.243 138.274C229.602 136.411 230.507 134.696 231.844 133.345C233.181 131.995 234.889 131.07 236.753 130.688C238.618 130.306 240.554 130.483 242.317 131.197C244.677 132.155 246.559 134.007 247.551 136.347C248.542 138.686 248.563 141.322 247.607 143.677V143.693Z" fill="#DA0916"/>
<g opacity="0.4">
<path d="M262.942 132.569L235.385 101.71C234.3 100.496 232.971 99.5209 231.484 98.8496C229.998 98.1782 228.387 97.8251 226.755 97.8129L136.032 97.1579C134.491 97.1464 132.962 97.4397 131.535 98.0206C130.108 98.6016 128.811 99.4588 127.718 100.543C126.625 101.626 125.759 102.915 125.169 104.335C124.579 105.755 124.277 107.277 124.281 108.813L124.434 172.846C124.437 174.375 124.743 175.889 125.334 177.3C125.925 178.711 126.789 179.992 127.877 181.069C128.965 182.147 130.255 183 131.675 183.58C133.094 184.16 134.614 184.455 136.148 184.448L226.556 184.069C228.226 184.065 229.875 183.704 231.393 183.009C232.91 182.315 234.261 181.304 235.352 180.044L263.074 147.908C264.922 145.77 265.928 143.036 265.903 140.214C265.879 137.392 264.826 134.675 262.942 132.569ZM247.607 143.693C246.891 145.451 245.668 146.957 244.092 148.021C242.517 149.086 240.66 149.661 238.757 149.674C236.854 149.686 234.99 149.136 233.4 148.093C231.811 147.049 230.568 145.56 229.828 143.812C229.088 142.064 228.884 140.137 229.243 138.274C229.602 136.411 230.507 134.696 231.844 133.345C233.181 131.995 234.889 131.07 236.753 130.688C238.618 130.306 240.554 130.483 242.317 131.197C244.677 132.155 246.559 134.007 247.551 136.347C248.542 138.686 248.563 141.322 247.607 143.677V143.693Z" fill="black"/>
</g>
<path d="M267.716 132.569L240.147 101.71C239.061 100.496 237.732 99.5216 236.246 98.8503C234.759 98.179 233.148 97.8256 231.516 97.8129L140.794 97.1578C139.252 97.1458 137.723 97.4387 136.296 98.0195C134.869 98.6003 133.571 99.4574 132.478 100.541C131.385 101.625 130.519 102.915 129.929 104.334C129.34 105.754 129.038 107.277 129.043 108.813L129.192 172.846C129.195 174.379 129.503 175.895 130.096 177.308C130.69 178.722 131.558 180.004 132.65 181.083C133.742 182.161 135.038 183.013 136.461 183.591C137.885 184.168 139.41 184.46 140.947 184.448L231.351 184.069C233.021 184.065 234.67 183.703 236.187 183.008C237.705 182.314 239.055 181.303 240.147 180.044L267.865 147.908C269.711 145.768 270.714 143.033 270.687 140.211C270.659 137.389 269.604 134.673 267.716 132.569ZM252.386 143.693C251.669 145.451 250.446 146.957 248.87 148.021C247.295 149.086 245.439 149.661 243.535 149.674C241.632 149.686 239.768 149.136 238.179 148.093C236.589 147.049 235.346 145.56 234.606 143.812C233.866 142.064 233.662 140.137 234.021 138.274C234.38 136.411 235.285 134.696 236.622 133.345C237.959 131.995 239.667 131.07 241.532 130.688C243.396 130.306 245.332 130.483 247.095 131.197C249.455 132.155 251.337 134.007 252.329 136.347C253.321 138.686 253.341 141.322 252.386 143.677V143.693Z" fill="#DA0916"/>
<path d="M159.233 130.423C159.303 122.661 164.102 117.77 170.831 117.836C177.56 117.902 182.201 122.809 182.131 130.633C182.061 138.457 177.32 143.285 170.595 143.224C163.87 143.162 159.158 138.185 159.233 130.423ZM175.53 130.575C175.576 125.631 173.687 123.254 170.781 123.229C167.946 123.2 165.941 125.615 165.895 130.484C165.85 135.354 167.809 137.802 170.645 137.83C173.55 137.855 175.485 135.507 175.53 130.575ZM198.342 118.627L206.195 118.701L174.224 164.433L166.371 164.359L198.342 118.627ZM190.439 152.44C190.514 144.678 195.308 139.787 201.975 139.849C208.704 139.915 213.408 144.892 213.338 152.65C213.268 160.408 208.469 165.282 201.736 165.212C195.093 165.158 190.369 160.181 190.439 152.44ZM206.671 152.588C206.716 147.723 204.827 145.271 201.922 145.246C199.086 145.218 197.086 147.566 197.04 152.502C196.995 157.438 198.95 159.819 201.785 159.848C204.691 159.856 206.625 157.438 206.667 152.568L206.671 152.588Z" fill="white"/>
<path d="M264.699 151.616C265.028 151.791 265.332 152.008 265.604 152.263C266.17 152.712 266.997 153.388 268.043 154.282C269.088 155.176 270.361 156.28 271.791 157.611C273.222 158.941 274.825 160.495 276.483 162.336C278.305 164.332 279.954 166.478 281.414 168.751L282.001 169.686L282.555 170.663C282.942 171.33 283.292 172.018 283.605 172.723C284.3 174.218 284.701 175.832 284.787 177.477C284.813 178.357 284.685 179.234 284.406 180.069C284.116 180.932 283.652 181.727 283.042 182.405C281.792 183.779 280.136 184.722 278.314 185.099C276.465 185.464 274.559 185.419 272.73 184.967C270.892 184.525 269.113 183.871 267.427 183.019C264.113 181.334 261.107 179.106 258.536 176.427C257.31 175.172 256.163 173.842 255.101 172.447C254.065 171.093 253.079 169.745 252.142 168.405C248.422 163.049 245.528 157.899 243.71 153.293C243.255 152.143 242.862 151.039 242.523 149.976C242.358 149.445 242.201 148.926 242.073 148.411C241.932 147.913 241.831 147.404 241.771 146.89C241.627 145.915 241.872 144.923 242.453 144.126C242.954 143.486 243.637 143.012 244.412 142.766C244.733 142.661 245.062 142.585 245.396 142.54C245.69 142.509 245.986 142.502 246.281 142.519C246.743 142.541 247.198 142.64 247.628 142.812C247.889 142.921 248.132 143.069 248.347 143.252C248.488 143.38 248.55 143.45 248.537 143.467C248.525 143.483 248.438 143.438 248.281 143.343C248.053 143.205 247.809 143.095 247.554 143.018C247.138 142.892 246.706 142.831 246.272 142.836C245.996 142.839 245.719 142.861 245.446 142.902C245.14 142.961 244.84 143.047 244.549 143.158C243.873 143.405 243.286 143.847 242.862 144.427C242.389 145.128 242.211 145.986 242.366 146.816C242.435 147.301 242.543 147.779 242.689 148.246C242.825 148.74 242.995 149.243 243.168 149.762C243.529 150.8 243.942 151.882 244.408 153.009C246.281 157.499 249.207 162.571 252.944 167.841C253.88 169.159 254.868 170.487 255.907 171.825C256.953 173.183 258.08 174.476 259.284 175.697C261.781 178.284 264.692 180.439 267.898 182.075C269.515 182.891 271.221 183.518 272.982 183.946C274.659 184.365 276.409 184.414 278.107 184.09C279.714 183.763 281.177 182.942 282.29 181.741C283.322 180.579 283.866 179.066 283.811 177.514C283.733 175.988 283.362 174.49 282.72 173.102C282.427 172.42 282.097 171.754 281.732 171.108L281.215 170.156L280.653 169.225C279.248 166.972 277.66 164.837 275.904 162.843C274.309 160.997 272.759 159.415 271.358 158.047C269.956 156.679 268.745 155.534 267.741 154.599L265.459 152.44C265.173 152.198 264.917 151.921 264.699 151.616Z" fill="#252536"/>
<path d="M221.642 87.6695C221.584 87.6695 220.427 79.6149 219.054 69.661C217.682 59.707 216.62 51.6318 216.682 51.6236C216.744 51.6154 217.897 59.6782 219.269 69.6321C220.642 79.586 221.704 87.6612 221.642 87.6695Z" fill="#252536"/>
<path d="M255.721 43.5731C255.714 43.6157 255.701 43.6572 255.684 43.6967L255.552 44.0552L255.027 45.4271L253.059 50.4618C251.406 54.7136 249.141 60.597 246.735 67.1354C244.33 73.6738 242.242 79.619 240.754 83.9326C240.014 86.0792 239.415 87.8219 238.998 89.0456C238.791 89.6347 238.63 90.1003 238.514 90.434C238.46 90.5823 238.415 90.6977 238.382 90.7924C238.37 90.8339 238.353 90.874 238.332 90.9119C238.335 90.8681 238.345 90.8251 238.361 90.7842L238.473 90.4175C238.576 90.0838 238.725 89.5935 238.915 89.0167C239.304 87.8013 239.882 86.0462 240.61 83.8832C242.065 79.5572 244.131 73.5832 246.537 67.0612C248.942 60.5393 251.22 54.6436 252.915 50.4041C253.741 48.2864 254.46 46.5725 254.952 45.3942L255.519 44.0387C255.581 43.8945 255.634 43.7791 255.672 43.6885L255.721 43.5731Z" fill="#252536"/>
<path d="M280.141 75.2807C280.178 75.326 274.263 79.9445 266.914 85.5807C259.565 91.2168 253.605 95.7736 253.568 95.7241C253.53 95.6747 259.449 91.0603 266.794 85.4241C274.139 79.7879 280.108 75.2312 280.141 75.2807Z" fill="#252536"/>
<path d="M207.295 89.1733C207.245 89.2103 204.96 86.2893 202.186 82.6801C199.413 79.071 197.197 76.0881 197.226 76.0593C197.255 76.0305 199.562 78.9433 202.335 82.5524C205.108 86.1615 207.34 89.1362 207.295 89.1733Z" fill="#252536"/>
<path d="M277.347 111.883C277.347 111.94 273.705 110.935 269.25 109.641C264.794 108.348 261.198 107.252 261.214 107.194C261.231 107.136 264.856 108.142 269.312 109.435C273.767 110.729 277.367 111.825 277.347 111.883Z" fill="#252536"/>
<path d="M225.263 111.751L227.949 110.21L229.375 107.466L230.925 110.144L233.678 111.57L230.991 113.11L229.561 115.854L228.015 113.176L225.263 111.751Z" fill="white"/>
<path d="M210.738 107.499L211.68 106.959L212.181 105.999L212.722 106.935L213.685 107.433L212.743 107.973L212.243 108.933L211.701 107.998L210.738 107.499Z" fill="white"/>
<path d="M220.013 126.422L221.832 125.38L222.799 123.522L223.845 125.335L225.709 126.299L223.89 127.341L222.923 129.199L221.877 127.386L220.013 126.422Z" fill="white"/>
<path d="M296.281 184.49C296.281 184.548 232.525 184.597 153.896 184.597C75.268 184.597 11.5031 184.548 11.5031 184.49C11.5031 184.432 75.2432 184.382 153.896 184.382C232.55 184.382 296.281 184.428 296.281 184.49Z" fill="#252536"/>
<path d="M120.091 88.991L116.288 82.3083C118.639 78.5041 119.477 73.9611 118.638 69.5722C117.799 65.1833 115.343 61.266 111.754 58.5901C108.164 55.9143 103.701 54.6734 99.2398 55.1115C94.779 55.5496 90.644 57.6348 87.6474 60.9575C84.6508 64.2802 83.0093 68.5999 83.0456 73.0676C83.082 77.5353 84.7935 81.8279 87.8437 85.1017C90.894 88.3755 95.0624 90.3937 99.5297 90.7597C103.997 91.1256 108.44 89.8128 111.986 87.0793L120.091 88.991Z" fill="white"/>
<path d="M120.091 88.9909L111.969 87.1369C111.962 87.136 111.955 87.1336 111.949 87.1299C111.943 87.1261 111.938 87.1212 111.934 87.1153C111.93 87.1095 111.928 87.1029 111.927 87.0959C111.926 87.089 111.926 87.0819 111.928 87.0751C111.928 87.0751 111.928 87.0751 111.928 87.0545L112.002 87.1287C110.865 88.0102 109.628 88.7542 108.315 89.3452C106.758 90.0431 105.108 90.5162 103.417 90.7502C102.478 90.8806 101.529 90.9275 100.582 90.8902C100.09 90.8655 99.5938 90.8532 99.0937 90.812L97.5768 90.5812C93.063 89.6988 89.0561 87.1353 86.3713 83.4124C84.8795 81.3521 83.8465 78.9979 83.3416 76.5073C82.8235 73.8737 82.8955 71.1584 83.5524 68.5557C84.2302 65.8363 85.5479 63.3168 87.3964 61.2056L88.128 60.3816C88.3718 60.1097 88.657 59.8872 88.9174 59.64C89.1778 59.3928 89.4382 59.1415 89.7441 58.9355L90.6038 58.2928C90.8871 58.0757 91.1855 57.8788 91.4966 57.7036L92.406 57.1557L93.3566 56.6942C93.6687 56.5369 93.9903 56.3993 94.3197 56.2822C96.871 55.2739 99.6174 54.8514 102.355 55.0462C104.944 55.2206 107.464 55.9619 109.733 57.2175C113.806 59.4888 116.847 63.2341 118.227 67.6782C118.784 69.5648 119.047 71.5253 119.008 73.4915C118.958 75.1974 118.663 76.8873 118.132 78.5096C117.684 79.8581 117.079 81.1497 116.33 82.3577V82.3042L120.087 89.0115L116.23 82.333C116.227 82.3254 116.224 82.3169 116.224 82.3083C116.224 82.2997 116.227 82.2912 116.23 82.2836C116.966 81.0788 117.558 79.793 117.995 78.452C118.518 76.8396 118.805 75.1606 118.847 73.4668C118.878 71.5154 118.612 69.5705 118.057 67.6988C116.672 63.3093 113.651 59.6159 109.617 57.3782C107.372 56.1407 104.882 55.4106 102.322 55.2399C99.6143 55.0527 96.8991 55.4751 94.3776 56.4759C94.0525 56.5937 93.735 56.7313 93.4269 56.8879L92.4886 57.3411L91.5876 57.8849C91.2812 58.0583 90.987 58.2524 90.7072 58.4658L89.8557 59.1003C89.5664 59.3063 89.3225 59.57 89.0538 59.8007C88.7852 60.0314 88.5124 60.2622 88.2768 60.53L87.5534 61.3251C85.7252 63.411 84.4217 65.9009 83.7508 68.5887C83.1009 71.1601 83.0275 73.8426 83.5358 76.4455C84.0338 78.9083 85.0526 81.2369 86.5242 83.2765C89.1769 86.9644 93.1367 89.5094 97.6016 90.3958L99.102 90.6266C99.598 90.6678 100.09 90.6801 100.573 90.709C101.515 90.7489 102.459 90.7048 103.392 90.5771C105.077 90.3554 106.72 89.8948 108.274 89.2093C109.58 88.6293 110.814 87.8978 111.948 87.0298C111.953 87.0244 111.959 87.0202 111.966 87.0172C111.973 87.0143 111.98 87.0128 111.988 87.0128C111.995 87.0128 112.002 87.0143 112.009 87.0172C112.016 87.0202 112.022 87.0244 112.027 87.0298C112.033 87.0397 112.036 87.0511 112.036 87.0628C112.036 87.0744 112.033 87.0859 112.027 87.0957L111.998 87.0092L120.091 88.9909Z" fill="#252536"/>
<path d="M95.7497 69.5486C95.4692 69.4168 95.1664 69.3385 94.8569 69.3179C94.4034 69.2454 93.9388 69.2907 93.508 69.4495C93.0772 69.6083 92.6947 69.8751 92.3976 70.2243C94.3361 71.3449 96.9774 72.8323 98.8663 73.9076L101.251 72.548C99.5317 71.6045 97.3741 70.4179 95.7497 69.5486Z" fill="#DA0916"/>
<g opacity="0.3">
<path d="M95.7497 69.5486C95.4692 69.4168 95.1664 69.3385 94.8569 69.3179C94.4034 69.2454 93.9388 69.2907 93.508 69.4495C93.0772 69.6083 92.6947 69.8751 92.3976 70.2243C94.3361 71.3449 96.9774 72.8323 98.8663 73.9076L101.251 72.548C99.5317 71.6045 97.3741 70.4179 95.7497 69.5486Z" fill="black"/>
</g>
<path d="M103.053 76.4126L102.967 76.3384C102.371 75.9965 101.727 75.3455 101.14 75.3579C100.912 75.3579 100.664 75.5597 100.073 75.8893C99.0895 76.4455 97.432 77.4137 96.44 77.9493C95.6133 78.4149 94.5635 78.7733 93.6004 78.4602C93.109 78.2803 92.6571 78.0075 92.2695 77.6568L103.049 71.4274C102.995 71.2667 102.938 71.1143 102.884 70.9577C102.667 70.3273 102.661 69.6437 102.867 69.0097C103.073 68.3757 103.48 67.8254 104.027 67.4418C104.574 67.0582 105.231 66.8618 105.899 66.8822C106.567 66.9027 107.211 67.1389 107.733 67.5552C108.255 67.9716 108.628 68.5456 108.794 69.191C108.961 69.8365 108.913 70.5184 108.658 71.1344C108.402 71.7503 107.953 72.2669 107.378 72.6065C106.802 72.9461 106.132 73.0904 105.467 73.0177C105.219 73.0016 104.971 73.0514 104.748 73.1619C104.335 73.3597 103.954 73.611 103.463 73.8911C104.289 74.2619 104.855 74.8552 105.827 74.7646C107.166 74.641 108.352 75.6092 108.761 76.8987C108.954 77.5149 108.947 78.1761 108.741 78.7879C108.534 79.3997 108.139 79.931 107.612 80.306C107.082 80.6855 106.445 80.8877 105.792 80.8835C105.139 80.8793 104.504 80.6689 103.979 80.2825C103.453 79.8962 103.064 79.3537 102.868 78.7331C102.671 78.1126 102.677 77.4458 102.884 76.8287C102.933 76.7092 103.004 76.5691 103.053 76.4126ZM105.806 71.4686C106.004 71.4708 106.2 71.4335 106.383 71.3587C106.566 71.284 106.732 71.1734 106.871 71.0336C107.01 70.8937 107.119 70.7274 107.193 70.5445C107.266 70.3616 107.302 70.1659 107.298 69.9689C107.292 69.5805 107.134 69.2099 106.857 68.936C106.581 68.662 106.208 68.5064 105.819 68.5022C105.419 68.5065 105.038 68.667 104.757 68.9491C104.475 69.2312 104.316 69.6123 104.314 70.0101C104.326 70.3974 104.488 70.7651 104.766 71.0356C105.045 71.3061 105.417 71.4584 105.806 71.4603V71.4686ZM105.806 79.3295C106.196 79.333 106.572 79.1847 106.854 78.9161C107.135 78.6476 107.301 78.28 107.315 77.8916C107.323 77.6946 107.292 77.4979 107.222 77.3133C107.152 77.1287 107.046 76.96 106.909 76.8173C106.773 76.6746 106.609 76.5608 106.427 76.4828C106.245 76.4048 106.049 76.3641 105.852 76.3631C105.462 76.3584 105.085 76.5049 104.801 76.7716C104.517 77.0383 104.349 77.4044 104.331 77.7928C104.327 78.1865 104.477 78.5662 104.75 78.8515C105.022 79.1368 105.395 79.3053 105.79 79.3213L105.806 79.3295Z" fill="#DA0916"/>
<path d="M101.797 73.8582C101.76 73.8582 101.776 73.5821 101.47 73.3638C101.386 73.3057 101.289 73.2689 101.188 73.2567C101.086 73.2445 100.983 73.2572 100.887 73.2937C100.774 73.3389 100.676 73.417 100.607 73.518C100.539 73.619 100.502 73.7382 100.502 73.8602C100.502 73.9823 100.539 74.1015 100.607 74.2025C100.676 74.3035 100.774 74.3816 100.887 74.4267C100.983 74.4632 101.086 74.4759 101.188 74.4637C101.289 74.4515 101.386 74.4148 101.47 74.3567C101.776 74.1383 101.76 73.8499 101.797 73.8582C101.834 73.8664 101.83 73.9241 101.797 74.0395C101.772 74.211 101.684 74.3669 101.549 74.4762C101.447 74.5605 101.325 74.6173 101.195 74.6411C101.064 74.6649 100.93 74.6549 100.805 74.6121C100.648 74.5583 100.511 74.4569 100.415 74.3221C100.318 74.1873 100.267 74.0258 100.267 73.8602C100.267 73.6947 100.318 73.5332 100.415 73.3984C100.511 73.2636 100.648 73.1622 100.805 73.1083C100.93 73.0656 101.064 73.0556 101.195 73.0794C101.325 73.1032 101.447 73.16 101.549 73.2443C101.683 73.352 101.772 73.5066 101.797 73.6769C101.83 73.7923 101.809 73.8582 101.797 73.8582Z" fill="#252536"/>
<path d="M104.434 73.3349C104.364 73.3874 104.291 73.4356 104.215 73.4791L103.599 73.8499L101.561 75.0447L99.4946 76.2148L98.8663 76.5609C98.7914 76.6074 98.7126 76.6474 98.6307 76.6803C98.6999 76.6254 98.7731 76.5759 98.8498 76.532L99.4657 76.1612L101.503 74.9705L103.57 73.8005L104.198 73.4503C104.274 73.4059 104.353 73.3673 104.434 73.3349Z" fill="#252536"/>
<path d="M102.64 71.687C102.609 71.7127 102.576 71.7361 102.541 71.757L102.243 71.9424L101.144 72.6222C100.218 73.1825 98.9325 73.9488 97.49 74.7605L93.8072 76.8452L92.6705 77.4467L92.3646 77.6115L92.2572 77.6651C92.2572 77.6651 92.2902 77.6404 92.3564 77.5992L92.654 77.4179L93.7617 76.771L97.4362 74.6657C98.8746 73.8417 100.164 73.096 101.102 72.5522L102.214 71.9136L102.52 71.7405L102.64 71.687Z" fill="#252536"/>
<path d="M149.759 83.2982L150.544 84.7278L151.979 85.5106L150.544 86.2934L149.759 87.723L148.974 86.2934L147.539 85.5106L148.974 84.7278L149.759 83.2982Z" fill="#DA0916"/>
<path d="M155 63.72L155.814 63.6664L156.471 63.1802L156.525 63.996L157.013 64.6511L156.195 64.7046L155.537 65.1867L155.484 64.375L155 63.72Z" fill="#DA0916"/>
<path d="M287.209 128.734L288.023 128.68L288.68 128.194L288.734 129.01L289.222 129.665L288.403 129.718L287.746 130.2L287.692 129.389L287.209 128.734Z" fill="#DA0916"/>
<path d="M194.081 88.0568L194.895 88.0032L195.556 87.5212L195.61 88.3328L196.094 88.9879L195.279 89.0415L194.618 89.5235L194.568 88.7119L194.081 88.0568Z" fill="#DA0916"/>
<path d="M199.049 53.2428L199.863 53.1892L200.52 52.7072L200.574 53.5188L201.058 54.1739L200.243 54.2274L199.586 54.7136L199.532 53.8978L199.049 53.2428Z" fill="#DA0916"/>
<path d="M174.022 74.8481L175.262 74.1353L175.919 72.8705L176.634 74.1065L177.907 74.7657L176.667 75.4743L176.006 76.7433L175.291 75.5073L174.022 74.8481Z" fill="#DA0916"/>
<path d="M278.202 145.098L279.442 144.385L280.099 143.121L280.814 144.357L282.083 145.012L280.843 145.724L280.186 146.989L279.471 145.753L278.202 145.098Z" fill="#DA0916"/>
<path d="M271.973 122.5L273.213 121.787L273.875 120.522L274.59 121.758L275.859 122.413L274.619 123.126L273.957 124.395L273.246 123.155L271.973 122.5Z" fill="#DA0916"/>
</svg>
