<svg width="310" height="206" viewBox="0 0 310 206" fill="none" xmlns="http://www.w3.org/2000/svg">
<path d="M48.8064 83.5371H47.3928L44.3052 79.2481V76.4342C44.3052 76.4342 42.1186 76.3023 42.379 79.9856C42.6394 83.6689 42.3542 82.7337 42.3542 82.7337C42.3542 82.7337 37.7125 82.7337 37.3281 83.1457C37.047 83.4382 36.9148 88.032 36.8734 90.5246C36.8428 91.1262 37.015 91.7207 37.3625 92.2134C37.7101 92.7062 38.213 93.0689 38.7913 93.2438C38.9547 93.286 39.1227 93.3082 39.2914 93.3097C40.4488 93.3097 46.3636 92.3703 46.3636 92.3703H48.8064V83.5371Z" fill="#EBEBEB"/>
<path d="M52.8571 82.7625L51.985 92.4074H49.5629V82.9603L52.8571 82.7625Z" fill="#EBEBEB"/>
<path d="M274.813 60.4073C274.753 59.6986 274.643 58.995 274.482 58.302C274.272 57.4962 273.943 56.7257 273.507 56.0154C272.477 54.3067 270.882 53.0088 268.996 52.3449C267.11 51.681 265.052 51.6925 263.173 52.3775C262.395 52.6531 261.663 53.0464 261.003 53.5434C260.305 54.0476 259.694 54.6612 259.193 55.3603C258.111 56.8229 257.527 58.5923 257.527 60.4094C257.527 62.2265 258.111 63.9959 259.193 65.4585C260.195 66.8231 261.58 67.8611 263.173 68.4413C265.052 69.1214 267.109 69.1305 268.994 68.467C270.878 67.8035 272.473 66.5086 273.507 64.8034C273.943 64.0931 274.272 63.3227 274.482 62.5168C274.643 61.8224 274.754 61.1175 274.813 60.4073C274.819 60.4552 274.819 60.5037 274.813 60.5515C274.813 60.6628 274.813 60.7987 274.813 60.9635C274.815 61.1899 274.797 61.416 274.759 61.6392C274.73 61.9451 274.676 62.2482 274.598 62.5456C274.406 63.3711 274.086 64.1618 273.651 64.8899C273.084 65.8643 272.33 66.7182 271.432 67.4031C270.341 68.2431 269.066 68.8148 267.712 69.0717C266.157 69.3652 264.551 69.2386 263.062 68.705C262.255 68.4227 261.497 68.0184 260.813 67.5061C260.091 66.9874 259.457 66.3558 258.937 65.6356C257.812 64.1237 257.205 62.2915 257.205 60.4094C257.205 58.5273 257.812 56.6951 258.937 55.1832C259.977 53.772 261.416 52.703 263.07 52.1138C264.56 51.5802 266.165 51.4536 267.72 51.7471C268.95 51.9841 270.114 52.4797 271.136 53.2008C272.158 53.9219 273.014 54.852 273.647 55.9289C274.082 56.657 274.402 57.4478 274.594 58.2732C274.672 58.5706 274.726 58.8737 274.755 59.1796C274.792 59.4015 274.81 59.6262 274.809 59.8511C274.809 60.0201 274.809 60.156 274.809 60.2631C274.817 60.3108 274.818 60.3593 274.813 60.4073Z" fill="#E0E0E0"/>
<path d="M286.527 74.918C286.481 74.9881 283.394 73.0064 279.637 70.4932C275.879 67.98 272.87 65.8829 272.916 65.8128C272.961 65.7428 276.049 67.7245 279.806 70.2418C283.563 72.7592 286.572 74.848 286.527 74.918Z" fill="#E0E0E0"/>
<path d="M95.8397 150.738H60.5658V196.071H95.8397V150.738Z" fill="#EBEBEB"/>
<path d="M84.2332 150.738H48.9593V196.071H84.2332V150.738Z" fill="#F5F5F5"/>
<path fill-rule="evenodd" clip-rule="evenodd" d="M56.1597 155.122V153.157H52.8323V155.122C52.8293 155.526 52.9754 155.918 53.2429 156.221C53.5104 156.525 53.8806 156.721 54.2831 156.77V158.48H53.5433C53.287 158.48 53.0721 158.632 53.0721 158.814H55.9199C55.9199 158.632 55.705 158.48 55.4487 158.48H54.7089V156.77C55.1114 156.721 55.4816 156.525 55.7491 156.221C56.0166 155.918 56.1627 155.526 56.1597 155.122Z" fill="#E0E0E0"/>
<path fill-rule="evenodd" clip-rule="evenodd" d="M62.5373 154.99C62.4066 154.468 62.1047 154.004 61.6794 153.672C61.2541 153.339 60.7298 153.158 60.1896 153.157C59.6493 153.158 59.125 153.339 58.6997 153.672C58.2744 154.004 57.9725 154.468 57.8418 154.99H59.9664V158.076C59.9522 158.19 59.8963 158.296 59.8095 158.372C59.7226 158.448 59.6107 158.489 59.4952 158.488C59.3801 158.489 59.2687 158.447 59.1825 158.371C59.0963 158.295 59.0413 158.19 59.0281 158.076H58.5734C58.5734 158.32 58.6706 158.553 58.8434 158.726C59.0163 158.898 59.2507 158.995 59.4952 158.995C59.7396 158.995 59.9741 158.898 60.1469 158.726C60.3198 158.553 60.4169 158.32 60.4169 158.076V154.99H62.5373Z" fill="#E0E0E0"/>
<path d="M95.9264 172.431C95.9264 172.493 85.3409 172.538 72.2837 172.538C59.2265 172.538 48.6369 172.493 48.6369 172.431C48.6369 172.369 59.2224 172.323 72.2837 172.323C85.3451 172.323 95.9264 172.373 95.9264 172.431Z" fill="#E0E0E0"/>
<path d="M66.5963 196.256C66.5384 196.256 66.4888 186.055 66.4888 173.468C66.4888 160.882 66.5384 150.677 66.5963 150.677C66.6541 150.677 66.7038 160.878 66.7038 173.468C66.7038 186.059 66.6541 196.256 66.5963 196.256Z" fill="#E0E0E0"/>
<path d="M270.874 128.367H235.6V173.699H270.874V128.367Z" fill="#EBEBEB"/>
<path d="M259.272 128.367H223.998V173.699H259.272V128.367Z" fill="#F5F5F5"/>
<path fill-rule="evenodd" clip-rule="evenodd" d="M231.198 132.75V130.781H227.867V132.75C227.864 133.155 228.01 133.547 228.279 133.851C228.547 134.155 228.918 134.35 229.321 134.398V136.112H228.573C228.313 136.112 228.102 136.261 228.102 136.442H230.946C230.946 136.261 230.735 136.112 230.475 136.112H229.735V134.394C230.139 134.348 230.511 134.154 230.781 133.851C231.051 133.548 231.2 133.156 231.198 132.75Z" fill="#E0E0E0"/>
<path fill-rule="evenodd" clip-rule="evenodd" d="M237.572 132.619C237.442 132.096 237.141 131.632 236.716 131.299C236.292 130.966 235.768 130.784 235.228 130.781C234.687 130.783 234.162 130.965 233.737 131.297C233.312 131.63 233.01 132.095 232.88 132.619H235.001V135.705C234.987 135.819 234.932 135.924 234.846 136C234.76 136.076 234.649 136.117 234.534 136.117C234.418 136.117 234.306 136.076 234.219 136C234.132 135.924 234.077 135.819 234.062 135.705H233.612C233.612 135.948 233.709 136.182 233.882 136.354C234.055 136.526 234.289 136.623 234.534 136.623C234.778 136.623 235.013 136.526 235.185 136.354C235.358 136.182 235.455 135.948 235.455 135.705V132.619H237.572Z" fill="#E0E0E0"/>
<path d="M270.965 150.059C270.965 150.117 260.375 150.166 247.322 150.166C234.269 150.166 223.675 150.117 223.675 150.059C223.675 150.001 234.261 149.951 247.322 149.951C260.384 149.951 270.965 150.001 270.965 150.059Z" fill="#E0E0E0"/>
<path d="M241.635 173.885C241.573 173.885 241.527 163.679 241.527 151.097C241.527 138.514 241.573 128.301 241.635 128.301C241.697 128.301 241.742 138.506 241.742 151.097C241.742 163.688 241.693 173.885 241.635 173.885Z" fill="#E0E0E0"/>
<path d="M230.239 144.006H200.607V173.543H230.239V144.006Z" fill="#EBEBEB"/>
<path d="M218.505 144.006H188.873V173.543H218.505V144.006Z" fill="#F5F5F5"/>
<path fill-rule="evenodd" clip-rule="evenodd" d="M196.862 148.992H197.706L196.982 147.665L196.255 146.334L195.527 147.665L194.8 148.992H195.647V152.333H193.568V148.992H194.415L193.688 147.665L192.961 146.334L192.233 147.665L191.51 148.992H192.353V152.333H191.861V152.794H197.354V152.333H196.862V148.992Z" fill="#E0E0E0"/>
<path d="M204.017 173.497C203.955 173.497 203.906 166.946 203.906 158.863C203.906 150.78 203.955 144.229 204.017 144.229C204.079 144.229 204.125 150.78 204.125 158.863C204.125 166.946 204.075 173.497 204.017 173.497Z" fill="#E0E0E0"/>
<path d="M230.52 158.736C230.52 158.794 221.138 158.843 209.56 158.843C197.983 158.843 188.596 158.794 188.596 158.736C188.596 158.678 197.987 158.62 209.56 158.62C221.133 158.62 230.52 158.674 230.52 158.736Z" fill="#E0E0E0"/>
<path fill-rule="evenodd" clip-rule="evenodd" d="M284.787 196.495H109.194C106.132 196.495 103.195 195.283 101.03 193.125C98.8641 190.967 97.647 188.04 97.6459 184.988C97.6426 183.474 97.9389 181.975 98.5178 180.575C99.0967 179.176 99.9469 177.904 101.02 176.832C102.092 175.761 103.366 174.911 104.769 174.331C106.172 173.75 107.676 173.452 109.194 173.452H284.787C286.307 173.449 287.814 173.745 289.219 174.323C290.625 174.902 291.902 175.752 292.978 176.823C294.053 177.895 294.905 179.168 295.486 180.569C296.066 181.971 296.363 183.472 296.36 184.988C296.352 188.042 295.13 190.969 292.96 193.126C290.79 195.284 287.851 196.495 284.787 196.495Z" fill="#E0E0E0"/>
<path fill-rule="evenodd" clip-rule="evenodd" d="M285.861 191.506H109.277C107.542 191.506 105.878 190.819 104.65 189.597C103.423 188.375 102.732 186.717 102.73 184.988C102.73 183.257 103.42 181.597 104.647 180.373C105.875 179.149 107.541 178.462 109.277 178.462H285.861C287.598 178.462 289.263 179.149 290.491 180.373C291.719 181.597 292.409 183.257 292.409 184.988C292.406 186.717 291.716 188.375 290.488 189.597C289.26 190.819 287.596 191.506 285.861 191.506Z" fill="#EBEBEB"/>
<path d="M115.498 184.988C115.455 184.551 115.385 184.118 115.287 183.69C114.977 182.537 114.287 181.522 113.328 180.806C112.672 180.312 111.909 179.978 111.1 179.83C110.171 179.664 109.214 179.745 108.326 180.065C107.846 180.234 107.396 180.477 106.991 180.786C106.563 181.096 106.188 181.473 105.88 181.902C105.214 182.801 104.855 183.889 104.855 185.007C104.855 186.124 105.214 187.212 105.88 188.111C106.189 188.539 106.564 188.916 106.991 189.227C107.396 189.534 107.847 189.776 108.326 189.944C109.213 190.268 110.171 190.349 111.1 190.179C111.91 190.035 112.674 189.7 113.328 189.203C114.287 188.487 114.977 187.472 115.287 186.319C115.385 185.891 115.456 185.458 115.498 185.021C115.508 185.135 115.508 185.249 115.498 185.363C115.499 185.501 115.488 185.639 115.465 185.775C115.446 185.964 115.413 186.151 115.366 186.335C115.083 187.529 114.395 188.588 113.419 189.335C112.748 189.854 111.963 190.208 111.129 190.369C110.161 190.553 109.162 190.475 108.236 190.142C107.738 189.967 107.27 189.719 106.847 189.405C106.401 189.083 106.011 188.692 105.689 188.247C104.994 187.313 104.619 186.18 104.619 185.017C104.619 183.854 104.994 182.721 105.689 181.787C106.011 181.342 106.403 180.952 106.851 180.633C107.272 180.317 107.739 180.067 108.236 179.892C109.156 179.563 110.148 179.486 111.108 179.669C112.128 179.864 113.071 180.348 113.823 181.063C114.575 181.777 115.104 182.692 115.349 183.698C115.396 183.882 115.429 184.07 115.448 184.259C115.471 184.395 115.482 184.533 115.481 184.671C115.495 184.776 115.501 184.882 115.498 184.988Z" fill="#E0E0E0"/>
<path d="M110.12 186.916C111.193 186.916 112.063 186.049 112.063 184.98C112.063 183.91 111.193 183.043 110.12 183.043C109.047 183.043 108.178 183.91 108.178 184.98C108.178 186.049 109.047 186.916 110.12 186.916Z" fill="#E0E0E0"/>
<path d="M290.755 184.988C290.713 184.551 290.642 184.118 290.544 183.69C290.358 182.976 290.024 182.308 289.564 181.729C289.104 181.151 288.527 180.675 287.871 180.331C287.216 179.988 286.495 179.785 285.756 179.736C285.017 179.686 284.276 179.791 283.58 180.044C283.102 180.214 282.653 180.458 282.249 180.765C281.818 181.074 281.441 181.451 281.133 181.881C280.47 182.782 280.112 183.869 280.112 184.986C280.112 186.103 280.47 187.19 281.133 188.09C281.751 188.927 282.602 189.565 283.58 189.924C284.467 190.247 285.424 190.329 286.353 190.159C287.164 190.013 287.929 189.679 288.585 189.182C289.542 188.465 290.232 187.45 290.544 186.298C290.643 185.87 290.713 185.437 290.755 185C290.769 185.253 290.759 185.507 290.726 185.758C290.708 185.947 290.675 186.135 290.627 186.319C290.38 187.323 289.849 188.236 289.098 188.95C288.346 189.663 287.405 190.147 286.386 190.344C285.419 190.529 284.42 190.45 283.493 190.117C282.995 189.943 282.527 189.695 282.104 189.38C281.657 189.059 281.264 188.668 280.943 188.222C280.25 187.287 279.876 186.155 279.876 184.992C279.876 183.829 280.25 182.697 280.943 181.762C281.588 180.895 282.475 180.236 283.493 179.867C284.42 179.535 285.419 179.458 286.386 179.644C287.407 179.84 288.349 180.323 289.101 181.038C289.853 181.752 290.383 182.667 290.627 183.674C290.674 183.858 290.708 184.045 290.726 184.234C290.747 184.37 290.759 184.508 290.759 184.646C290.765 184.76 290.764 184.874 290.755 184.988Z" fill="#E0E0E0"/>
<path d="M285.378 186.916C286.451 186.916 287.32 186.049 287.32 184.98C287.32 183.91 286.451 183.043 285.378 183.043C284.305 183.043 283.435 183.91 283.435 184.98C283.435 186.049 284.305 186.916 285.378 186.916Z" fill="#E0E0E0"/>
<path d="M285.874 179.566C285.874 179.628 246.524 179.678 198.003 179.678C149.482 179.678 110.12 179.628 110.12 179.566C110.12 179.504 149.461 179.459 198.003 179.459C246.545 179.459 285.874 179.509 285.874 179.566Z" fill="#E0E0E0"/>
<path d="M285.874 190.344C285.874 190.402 246.69 190.452 198.367 190.452C150.044 190.452 110.852 190.402 110.852 190.344C110.852 190.286 150.028 190.237 198.367 190.237C246.706 190.237 285.874 190.278 285.874 190.344Z" fill="#E0E0E0"/>
<path d="M294.364 196.71C294.364 196.768 231.95 196.817 155.008 196.817C78.0663 196.817 15.6364 196.768 15.6364 196.71C15.6364 196.652 78.025 196.602 155.008 196.602C231.992 196.602 294.364 196.648 294.364 196.71Z" fill="#252536"/>
<path d="M209.016 30.3904H101.13C99.151 30.3904 97.5468 31.9895 97.5468 33.962V185.606C97.5468 187.579 99.151 189.178 101.13 189.178H209.016C210.995 189.178 212.599 187.579 212.599 185.606V33.962C212.599 31.9895 210.995 30.3904 209.016 30.3904Z" fill="#DA0916"/>
<g opacity="0.3">
<path d="M209.016 30.3904H101.13C99.151 30.3904 97.5468 31.9895 97.5468 33.962V185.606C97.5468 187.579 99.151 189.178 101.13 189.178H209.016C210.995 189.178 212.599 187.579 212.599 185.606V33.962C212.599 31.9895 210.995 30.3904 209.016 30.3904Z" fill="black"/>
</g>
<path d="M204.525 38.8815H105.62V183.618H204.525V38.8815Z" fill="#E0E0E0"/>
<path d="M203.162 37.7246H104.257V179.698H203.162V37.7246Z" fill="#EBEBEB"/>
<path d="M203.167 179.693C203.167 178.508 203.111 121.49 203.032 37.7246L203.167 37.8538H104.274L104.42 37.7078C104.42 91.0189 104.42 140.27 104.392 179.676L104.274 179.558L203.184 179.676L104.274 179.794H104.155V179.676C104.155 140.27 104.155 91.0189 104.127 37.7078V37.5786H104.291H203.184H203.314V37.7134C203.218 121.49 203.167 178.508 203.167 179.693Z" fill="#252536"/>
<path d="M168.079 179.693C168.079 179.693 193.494 170.05 202.931 154.057C200.006 156.089 196.698 157.51 193.208 158.234C189.717 158.958 186.116 158.97 182.62 158.268C182.62 158.268 175.893 176.166 168.079 179.693Z" fill="#E0E0E0"/>
<path d="M168.079 179.693L168.501 179.457C168.923 179.226 169.329 178.969 169.718 178.688C171.149 177.595 172.428 176.319 173.521 174.891C176.395 171.258 179.645 165.462 182.496 158.224L182.541 158.117H182.648C185.68 158.724 188.795 158.787 191.849 158.302C192.654 158.201 193.443 157.988 194.254 157.819C195.066 157.651 195.854 157.381 196.643 157.089C198.258 156.521 199.814 155.801 201.291 154.938C201.855 154.607 202.379 154.27 202.841 153.922L203.449 153.456L203.055 154.107C201.505 156.652 199.673 159.016 197.595 161.155C195.659 163.129 193.588 164.968 191.398 166.659C187.699 169.497 183.78 172.039 179.679 174.262C176.197 176.166 173.285 177.514 171.262 178.396C170.248 178.839 169.448 179.159 168.907 179.367L168.293 179.603C168.222 179.632 168.148 179.655 168.073 179.67C168.073 179.67 168.141 179.631 168.282 179.575L168.89 179.317C169.42 179.086 170.208 178.755 171.217 178.295C173.223 177.379 176.119 176.003 179.583 174.083C183.666 171.85 187.569 169.306 191.257 166.473C193.432 164.787 195.486 162.952 197.404 160.981C199.465 158.856 201.282 156.509 202.824 153.984L203.038 154.169C202.53 154.544 202.004 154.893 201.46 155.213C199.966 156.082 198.393 156.808 196.762 157.381C195.961 157.679 195.145 157.898 194.339 158.122C193.533 158.347 192.722 158.51 191.905 158.605C188.821 159.088 185.674 159.018 182.615 158.398L182.761 158.313C179.882 165.575 176.564 171.365 173.662 174.987C172.55 176.417 171.244 177.685 169.78 178.755C169.248 179.127 168.678 179.441 168.079 179.693Z" fill="#252536"/>
<path d="M125.993 76.4122H117.756C116.692 76.4122 115.829 77.2721 115.829 78.3328V86.5431C115.829 87.6039 116.692 88.4637 117.756 88.4637H125.993C127.057 88.4637 127.92 87.6039 127.92 86.5431V78.3328C127.92 77.2721 127.057 76.4122 125.993 76.4122Z" fill="#DA0916"/>
<path d="M121.114 84.1788C121.075 84.1768 121.037 84.1669 121.002 84.1494C120.967 84.132 120.936 84.1076 120.911 84.0777L119.221 82.1121C119.173 82.0544 119.15 81.9804 119.156 81.9059C119.162 81.8314 119.198 81.7623 119.255 81.7134C119.28 81.6873 119.311 81.6665 119.345 81.6523C119.379 81.6381 119.415 81.6308 119.452 81.6308C119.488 81.6308 119.525 81.6381 119.559 81.6523C119.593 81.6665 119.623 81.6873 119.649 81.7134L121.142 83.4543L125.086 79.4502C125.139 79.3984 125.211 79.3694 125.286 79.3694C125.36 79.3694 125.432 79.3984 125.486 79.4502C125.512 79.4763 125.533 79.5074 125.547 79.5416C125.562 79.5758 125.569 79.6125 125.569 79.6496C125.569 79.6867 125.562 79.7234 125.547 79.7576C125.533 79.7918 125.512 79.8228 125.486 79.8489L121.35 84.0721C121.321 84.1058 121.285 84.1329 121.244 84.1513C121.203 84.1697 121.159 84.1791 121.114 84.1788Z" fill="white"/>
<path d="M191.629 77.8784C191.629 77.9629 178.761 78.0248 162.896 78.0248C147.03 78.0248 134.162 77.9629 134.162 77.8784C134.162 77.7939 147.025 77.7319 162.896 77.7319C178.766 77.7319 191.629 77.7882 191.629 77.8784Z" fill="#252536"/>
<path d="M158.366 86.6952C158.05 86.7375 157.732 86.7564 157.414 86.7515L154.816 86.7966C152.63 86.8248 149.599 86.8417 146.258 86.8417C142.917 86.8417 139.886 86.8417 137.695 86.7966L135.097 86.7515C134.781 86.7562 134.464 86.7374 134.151 86.6952C134.464 86.6494 134.781 86.6305 135.097 86.6388L137.695 86.5881C139.886 86.5881 142.912 86.5487 146.258 86.5487C149.605 86.5487 152.63 86.5487 154.816 86.5881L157.414 86.6388C157.732 86.6304 158.051 86.6492 158.366 86.6952Z" fill="#252536"/>
<path d="M191.629 81.7869C191.629 81.8658 178.761 81.9334 162.896 81.9334C147.03 81.9334 134.162 81.8658 134.162 81.7869C134.162 81.708 147.025 81.6404 162.896 81.6404C178.766 81.6404 191.629 81.7193 191.629 81.7869Z" fill="#252536"/>
<path d="M125.993 97.567H117.756C116.692 97.567 115.829 98.4269 115.829 99.4876V107.698C115.829 108.759 116.692 109.619 117.756 109.619H125.993C127.057 109.619 127.92 108.759 127.92 107.698V99.4876C127.92 98.4269 127.057 97.567 125.993 97.567Z" fill="#DA0916"/>
<path d="M121.114 105.306C121.075 105.306 121.037 105.297 121.001 105.281C120.966 105.264 120.935 105.24 120.911 105.21L119.221 103.239C119.197 103.211 119.178 103.178 119.167 103.143C119.155 103.108 119.151 103.071 119.154 103.035C119.157 102.998 119.167 102.962 119.184 102.929C119.2 102.896 119.224 102.867 119.252 102.843C119.28 102.819 119.312 102.801 119.348 102.789C119.383 102.778 119.42 102.774 119.457 102.777C119.494 102.779 119.53 102.789 119.563 102.806C119.596 102.823 119.625 102.846 119.649 102.874L121.142 104.609L125.086 100.611C125.111 100.581 125.142 100.557 125.177 100.54C125.211 100.523 125.249 100.513 125.288 100.511C125.327 100.51 125.366 100.516 125.402 100.53C125.438 100.544 125.471 100.565 125.499 100.592C125.526 100.619 125.548 100.652 125.562 100.688C125.577 100.724 125.584 100.762 125.582 100.801C125.581 100.839 125.572 100.877 125.555 100.912C125.539 100.947 125.515 100.978 125.486 101.004L121.35 105.221C121.32 105.252 121.283 105.276 121.242 105.291C121.201 105.305 121.157 105.31 121.114 105.306Z" fill="white"/>
<path d="M191.629 99.0331C191.629 99.112 178.761 99.1796 162.896 99.1796C147.03 99.1796 134.162 99.112 134.162 99.0331C134.162 98.9543 147.025 98.8867 162.896 98.8867C178.766 98.8867 191.629 98.9543 191.629 99.0331Z" fill="#252536"/>
<path d="M158.366 107.85C158.05 107.892 157.732 107.911 157.414 107.906L154.816 107.951C152.63 107.951 149.599 107.997 146.258 107.997C142.917 107.997 139.886 107.997 137.695 107.951L135.097 107.906C134.781 107.911 134.464 107.892 134.151 107.85C134.464 107.804 134.781 107.783 135.097 107.788L137.695 107.743C139.886 107.715 142.912 107.704 146.258 107.704C149.605 107.704 152.63 107.704 154.816 107.743L157.414 107.788C157.732 107.783 158.051 107.803 158.366 107.85Z" fill="#252536"/>
<path d="M191.629 102.942C191.629 103.021 178.761 103.088 162.896 103.088C147.03 103.088 134.162 103.021 134.162 102.942C134.162 102.863 147.025 102.795 162.896 102.795C178.766 102.795 191.629 102.857 191.629 102.942Z" fill="#252536"/>
<path d="M125.993 118.722H117.756C116.692 118.722 115.829 119.582 115.829 120.642V128.853C115.829 129.913 116.692 130.773 117.756 130.773H125.993C127.057 130.773 127.92 129.913 127.92 128.853V120.642C127.92 119.582 127.057 118.722 125.993 118.722Z" fill="#DA0916"/>
<path d="M121.114 126.483C121.075 126.482 121.037 126.473 121.002 126.457C120.967 126.44 120.936 126.417 120.911 126.387L119.221 124.416C119.172 124.36 119.148 124.286 119.154 124.212C119.16 124.138 119.195 124.069 119.252 124.02C119.308 123.972 119.382 123.948 119.457 123.954C119.531 123.96 119.6 123.995 119.649 124.051L121.142 125.786L125.086 121.788C125.111 121.758 125.142 121.734 125.177 121.717C125.211 121.7 125.249 121.69 125.288 121.689C125.327 121.687 125.366 121.693 125.402 121.707C125.438 121.721 125.471 121.742 125.499 121.769C125.526 121.796 125.548 121.829 125.562 121.865C125.577 121.901 125.584 121.939 125.582 121.978C125.581 122.017 125.572 122.055 125.555 122.09C125.539 122.125 125.515 122.156 125.486 122.181L121.35 126.399C121.32 126.43 121.283 126.453 121.242 126.468C121.201 126.482 121.157 126.488 121.114 126.483Z" fill="white"/>
<path d="M191.629 120.188C191.629 120.267 178.761 120.335 162.896 120.335C147.03 120.335 134.162 120.267 134.162 120.188C134.162 120.109 147.025 120.042 162.896 120.042C178.766 120.042 191.629 120.104 191.629 120.188Z" fill="#252536"/>
<path d="M158.366 128.999C158.051 129.045 157.732 129.064 157.414 129.056L154.816 129.106C152.63 129.106 149.599 129.146 146.258 129.146C142.917 129.146 139.886 129.146 137.695 129.106L135.097 129.056C134.781 129.064 134.464 129.045 134.151 128.999C134.464 128.957 134.781 128.938 135.097 128.943L137.695 128.898C139.886 128.898 142.912 128.853 146.258 128.853C149.605 128.853 152.63 128.853 154.816 128.898L157.414 128.943C157.732 128.938 158.05 128.957 158.366 128.999Z" fill="#252536"/>
<path d="M191.629 124.091C191.629 124.176 178.761 124.237 162.896 124.237C147.03 124.237 134.162 124.176 134.162 124.091C134.162 124.006 147.025 123.945 162.896 123.945C178.766 123.945 191.629 124.012 191.629 124.091Z" fill="#252536"/>
<path d="M125.993 139.871H117.756C116.692 139.871 115.829 140.731 115.829 141.792V150.002C115.829 151.063 116.692 151.923 117.756 151.923H125.993C127.057 151.923 127.92 151.063 127.92 150.002V141.792C127.92 140.731 127.057 139.871 125.993 139.871Z" fill="#DA0916"/>
<path d="M121.114 147.638C121.075 147.636 121.037 147.626 121.002 147.608C120.967 147.591 120.936 147.567 120.911 147.537L119.221 145.571C119.173 145.513 119.15 145.439 119.156 145.365C119.162 145.29 119.198 145.221 119.255 145.172C119.282 145.148 119.315 145.13 119.35 145.119C119.385 145.107 119.422 145.103 119.459 145.106C119.496 145.109 119.531 145.12 119.564 145.137C119.597 145.154 119.626 145.178 119.649 145.206L121.142 146.941L125.086 142.937C125.112 142.911 125.143 142.89 125.177 142.876C125.212 142.862 125.249 142.854 125.286 142.854C125.323 142.854 125.36 142.862 125.394 142.876C125.428 142.89 125.46 142.911 125.486 142.937C125.512 142.963 125.533 142.993 125.547 143.027C125.561 143.061 125.569 143.097 125.569 143.134C125.569 143.17 125.561 143.207 125.547 143.24C125.533 143.274 125.512 143.305 125.486 143.33L121.35 147.553C121.319 147.583 121.282 147.606 121.241 147.621C121.2 147.635 121.157 147.641 121.114 147.638Z" fill="white"/>
<path d="M191.629 141.343C191.629 141.422 178.761 141.489 162.896 141.489C147.03 141.489 134.162 141.422 134.162 141.343C134.162 141.264 147.025 141.191 162.896 141.191C178.766 141.191 191.629 141.247 191.629 141.343Z" fill="#252536"/>
<path d="M158.366 150.154C158.051 150.2 157.732 150.219 157.414 150.21L154.816 150.255C152.63 150.255 149.599 150.301 146.258 150.301C142.917 150.301 139.886 150.301 137.695 150.255L135.097 150.21C134.781 150.219 134.464 150.2 134.151 150.154C134.464 150.108 134.781 150.089 135.097 150.098L137.695 150.053C139.886 150.024 142.912 150.008 146.258 150.008C149.605 150.008 152.63 150.008 154.816 150.053L157.414 150.098C157.732 150.089 158.051 150.108 158.366 150.154Z" fill="#252536"/>
<path d="M191.629 145.246C191.629 145.325 178.761 145.392 162.896 145.392C147.03 145.392 134.162 145.325 134.162 145.246C134.162 145.167 147.025 145.099 162.896 145.099C178.766 145.099 191.629 145.178 191.629 145.246Z" fill="#252536"/>
<path d="M135.407 65.1243C135.252 65.3064 135.057 65.4514 134.837 65.5486C134.618 65.6458 134.38 65.6927 134.14 65.6859C133.48 65.6859 133.013 65.4332 132.28 64.6863C131.646 64.6558 131.049 64.3811 130.614 63.9202C130.179 63.4593 129.94 62.8481 129.948 62.2153C129.948 61.5257 130.223 60.8644 130.712 60.3767C131.201 59.8891 131.865 59.6152 132.556 59.6152C133.248 59.6152 133.912 59.8891 134.401 60.3767C134.89 60.8644 135.165 61.5257 135.165 62.2153C135.174 62.7574 135 63.2867 134.671 63.7185C134.342 64.1502 133.877 64.4594 133.351 64.5964C133.447 64.7205 133.57 64.8217 133.71 64.8926C133.85 64.9635 134.005 65.0024 134.162 65.0064C134.32 65.0031 134.475 64.9669 134.617 64.9002C134.76 64.8334 134.887 64.7376 134.99 64.6189L135.407 65.1243ZM132.556 63.9281C132.891 63.9281 133.218 63.8293 133.495 63.6442C133.773 63.4591 133.99 63.196 134.118 62.8881C134.246 62.5803 134.279 62.2415 134.214 61.9147C134.149 61.5879 133.988 61.2877 133.752 61.0521C133.515 60.8165 133.214 60.656 132.886 60.591C132.558 60.526 132.218 60.5594 131.91 60.6869C131.601 60.8144 131.337 61.0303 131.151 61.3074C130.965 61.5844 130.866 61.9102 130.866 62.2434C130.861 62.4661 130.901 62.6876 130.984 62.8944C131.067 63.1013 131.191 63.2891 131.349 63.4467C131.507 63.6042 131.696 63.7281 131.903 63.8109C132.111 63.8936 132.333 63.9335 132.556 63.9281Z" fill="#252536"/>
<path d="M139.61 60.9405V64.6245H138.788V64.1584C138.641 64.3274 138.458 64.4615 138.252 64.5509C138.046 64.6403 137.823 64.6827 137.599 64.675C137.381 64.6959 137.161 64.6678 136.955 64.5928C136.75 64.5177 136.563 64.3976 136.41 64.2414C136.257 64.0851 136.142 63.8966 136.071 63.6898C136.001 63.4831 135.978 63.2632 136.004 63.0464V60.9405H136.872V62.9285C136.872 63.5968 137.188 63.9169 137.74 63.9169C137.884 63.9237 138.029 63.8983 138.162 63.8425C138.296 63.7867 138.415 63.7019 138.512 63.5943C138.609 63.4868 138.68 63.3591 138.721 63.2206C138.762 63.0821 138.771 62.9363 138.748 62.7937V60.9405H139.61Z" fill="#252536"/>
<path d="M143.841 62.4848V64.6413H143.024V64.1976C142.887 64.371 142.709 64.5072 142.505 64.5936C142.301 64.6799 142.079 64.7137 141.858 64.6918C141.019 64.6918 140.483 64.2313 140.483 63.5687C140.483 62.906 140.9 62.4736 142.022 62.4736H142.974V62.4174C142.974 61.9176 142.669 61.62 142.055 61.62C141.649 61.6121 141.252 61.7407 140.929 61.985L140.591 61.356C141.048 61.0418 141.596 60.8824 142.151 60.9011C143.222 60.9405 143.841 61.4234 143.841 62.4848ZM142.974 63.49V63.0632H142.084C141.492 63.0632 141.334 63.2823 141.334 63.5518C141.334 63.8214 141.599 64.0629 142.038 64.0629C142.235 64.0769 142.431 64.0293 142.599 63.9265C142.766 63.8237 142.898 63.6711 142.974 63.49Z" fill="#252536"/>
<path d="M144.946 59.5253H145.813V64.6413H144.946V59.5253Z" fill="#252536"/>
<path d="M146.827 59.8173C146.829 59.746 146.845 59.6757 146.874 59.6107C146.903 59.5457 146.946 59.4873 146.998 59.439C147.051 59.3907 147.113 59.3536 147.18 59.3298C147.248 59.306 147.319 59.2961 147.391 59.3007C147.461 59.2945 147.532 59.3028 147.599 59.3249C147.666 59.3471 147.728 59.3826 147.781 59.4294C147.833 59.4762 147.876 59.5333 147.906 59.5971C147.936 59.6609 147.952 59.7301 147.954 59.8005C147.954 59.9494 147.895 60.0923 147.789 60.1976C147.683 60.3029 147.54 60.3621 147.391 60.3621C147.241 60.3621 147.098 60.3029 146.992 60.1976C146.887 60.0923 146.827 59.9494 146.827 59.8005V59.8173ZM146.946 60.9405H147.813V64.6245H146.946V60.9405Z" fill="#252536"/>
<path d="M151.165 64.4448C150.923 64.6138 150.633 64.7004 150.337 64.6919C150.167 64.7153 149.994 64.6995 149.83 64.6459C149.667 64.5922 149.518 64.502 149.396 64.3823C149.273 64.2625 149.179 64.1163 149.121 63.9548C149.064 63.7934 149.044 63.621 149.064 63.4508V61.6762H148.439V60.9854H149.047V60.1431H149.909V60.9854H150.901V61.6762H149.909V63.4283C149.909 63.7877 150.089 63.9899 150.422 63.9899C150.596 63.9967 150.767 63.9431 150.906 63.8383L151.165 64.4448Z" fill="#252536"/>
<path d="M155.273 60.9405L153.543 64.9221C153.465 65.2381 153.281 65.5182 153.022 65.7163C152.763 65.9143 152.444 66.0185 152.118 66.0116C151.758 66.0194 151.406 65.9 151.126 65.6746L151.47 65.04C151.643 65.1997 151.87 65.2897 152.106 65.2928C152.411 65.2928 152.591 65.1524 152.76 64.7873L152.822 64.6413L151.211 60.9405H152.106L153.273 63.6698L154.439 60.9405H155.273Z" fill="#252536"/>
<path d="M157.414 62.2266C157.41 61.8964 157.473 61.5689 157.6 61.2641C157.728 60.9593 157.916 60.6836 158.154 60.4538C158.392 60.2241 158.674 60.0451 158.984 59.928C159.293 59.8108 159.624 59.7579 159.955 59.7724C160.283 59.7605 160.61 59.8167 160.916 59.9376C161.221 60.0584 161.498 60.2412 161.729 60.4744L161.403 60.8001C161.216 60.6136 160.992 60.4675 160.746 60.3709C160.499 60.2742 160.236 60.2292 159.972 60.2386C159.699 60.2241 159.426 60.2653 159.17 60.3594C158.914 60.4535 158.679 60.5986 158.481 60.7859C158.283 60.9733 158.125 61.1988 158.017 61.4489C157.909 61.699 157.854 61.9684 157.854 62.2406C157.854 62.5128 157.909 62.7822 158.017 63.0323C158.125 63.2824 158.283 63.5079 158.481 63.6953C158.679 63.8826 158.914 64.0277 159.17 64.1218C159.426 64.2159 159.699 64.257 159.972 64.2426C160.236 64.253 160.5 64.2084 160.746 64.1118C160.993 64.0151 161.216 63.8684 161.403 63.6811L161.729 64.0012C161.499 64.2374 161.222 64.4229 160.915 64.5457C160.608 64.6685 160.279 64.726 159.949 64.7144C159.616 64.7283 159.283 64.6739 158.972 64.5543C158.66 64.4347 158.377 64.2526 158.139 64.0193C157.902 63.786 157.714 63.5065 157.59 63.1981C157.465 62.8897 157.405 62.559 157.414 62.2266Z" fill="#252536"/>
<path d="M162.191 62.8274C162.192 62.4622 162.302 62.1056 162.506 61.8025C162.711 61.4994 163.001 61.2634 163.339 61.1244C163.678 60.9855 164.051 60.9497 164.41 61.0216C164.769 61.0935 165.099 61.2699 165.358 61.5285C165.616 61.7872 165.792 62.1164 165.863 62.4746C165.934 62.8329 165.897 63.2041 165.757 63.5414C165.616 63.8786 165.379 64.1669 165.074 64.3696C164.769 64.5724 164.411 64.6806 164.045 64.6806C163.799 64.6893 163.553 64.6473 163.324 64.5571C163.095 64.467 162.887 64.3307 162.713 64.1568C162.539 63.9828 162.403 63.775 162.313 63.5463C162.223 63.3176 162.182 63.0728 162.191 62.8274ZM165.391 62.8274C165.378 62.5639 165.288 62.31 165.131 62.0973C164.974 61.8846 164.759 61.7224 164.51 61.6308C164.262 61.5392 163.992 61.5223 163.734 61.5821C163.477 61.6419 163.242 61.7759 163.06 61.9673C162.878 62.1588 162.756 62.3993 162.71 62.6591C162.663 62.9189 162.695 63.1866 162.799 63.4288C162.904 63.6711 163.078 63.8773 163.3 64.022C163.521 64.1667 163.78 64.2434 164.045 64.2426C164.229 64.2462 164.412 64.2115 164.582 64.1407C164.752 64.0698 164.905 63.9645 165.032 63.8313C165.158 63.6981 165.256 63.54 165.318 63.3672C165.38 63.1943 165.405 63.0105 165.391 62.8274Z" fill="#252536"/>
<path d="M170.242 62.541V64.6413H169.752V62.5859C169.775 62.4346 169.763 62.2801 169.717 62.1341C169.671 61.988 169.593 61.8543 169.487 61.7429C169.382 61.6315 169.253 61.5454 169.109 61.491C168.966 61.4367 168.812 61.4155 168.659 61.4291C168.485 61.4167 168.311 61.4424 168.148 61.5043C167.985 61.5663 167.838 61.663 167.717 61.7877C167.595 61.9124 167.503 62.062 167.446 62.2261C167.388 62.3902 167.368 62.5648 167.386 62.7376V64.6413H166.896V61.0135H167.363V61.6818C167.512 61.4536 167.718 61.2689 167.962 61.1466C168.205 61.0242 168.477 60.9686 168.749 60.9854C168.955 60.9688 169.163 60.9982 169.356 61.0715C169.549 61.1448 169.724 61.2601 169.867 61.4091C170.01 61.5581 170.118 61.737 170.183 61.9328C170.248 62.1286 170.268 62.3364 170.242 62.541Z" fill="#252536"/>
<path d="M173.499 64.4223C173.281 64.5976 173.007 64.6893 172.727 64.6807C172.584 64.6966 172.439 64.6803 172.303 64.6329C172.167 64.5856 172.043 64.5084 171.941 64.4071C171.839 64.3058 171.76 64.1829 171.712 64.0475C171.664 63.9122 171.647 63.7677 171.662 63.6249V61.4291H171.014V61.0135H171.662V60.2217H172.152V61.0135H173.279V61.4291H172.152V63.5968C172.135 63.6845 172.139 63.775 172.165 63.8608C172.19 63.9465 172.235 64.0251 172.297 64.0899C172.358 64.1547 172.435 64.2039 172.519 64.2334C172.604 64.2629 172.694 64.2718 172.783 64.2595C172.989 64.271 173.191 64.2025 173.347 64.0685L173.499 64.4223Z" fill="#252536"/>
<path d="M176.22 60.9855V61.4628H176.107C175.934 61.4537 175.76 61.4829 175.599 61.5485C175.438 61.6141 175.294 61.7143 175.177 61.8421C175.059 61.9699 174.972 62.122 174.92 62.2875C174.869 62.453 174.855 62.6278 174.879 62.7994V64.647H174.389V61.0192H174.857V61.7324C174.982 61.4857 175.179 61.2825 175.423 61.1492C175.666 61.016 175.944 60.9589 176.22 60.9855Z" fill="#252536"/>
<path d="M176.705 62.8274C176.706 62.4625 176.815 62.106 177.019 61.803C177.223 61.5001 177.513 61.2641 177.851 61.125C178.19 60.9858 178.562 60.9497 178.921 61.0212C179.28 61.0927 179.61 61.2685 179.869 61.5266C180.128 61.7846 180.304 62.1133 180.376 62.4712C180.447 62.8291 180.411 63.2001 180.272 63.5375C180.132 63.8748 179.895 64.1635 179.591 64.3669C179.287 64.5703 178.93 64.6795 178.564 64.6806C178.317 64.6901 178.071 64.6486 177.841 64.5588C177.611 64.4691 177.403 64.3329 177.228 64.1589C177.053 63.9849 176.917 63.7768 176.827 63.5476C176.737 63.3185 176.695 63.0733 176.705 62.8274ZM179.91 62.8274C179.897 62.5639 179.806 62.31 179.65 62.0973C179.493 61.8846 179.277 61.7224 179.029 61.6308C178.781 61.5392 178.511 61.5223 178.253 61.5821C177.995 61.6419 177.761 61.7759 177.579 61.9673C177.397 62.1588 177.275 62.3993 177.228 62.6591C177.182 62.9189 177.213 63.1865 177.318 63.4288C177.423 63.6711 177.597 63.8773 177.818 64.022C178.04 64.1667 178.299 64.2434 178.564 64.2426C178.748 64.2462 178.931 64.2115 179.101 64.1407C179.27 64.0698 179.424 63.9645 179.55 63.8313C179.677 63.6981 179.775 63.54 179.837 63.3672C179.899 63.1943 179.924 63.0105 179.91 62.8274Z" fill="#252536"/>
<path d="M181.409 59.5253H181.905V64.6413H181.409V59.5253Z" fill="#252536"/>
<path d="M118.578 28.8854V36.3151C118.578 37.3407 118.78 38.3564 119.173 39.3041C119.566 40.2518 120.143 41.113 120.87 41.8384C121.597 42.5639 122.461 43.1394 123.411 43.532C124.362 43.9246 125.381 44.1267 126.41 44.1267H181.116C183.194 44.1267 185.188 43.3037 186.657 41.8388C188.127 40.3738 188.953 38.3869 188.953 36.3151V28.9303L118.578 28.8854Z" fill="#252536"/>
<path d="M153.712 31.0811C152.264 31.0811 150.847 30.653 149.643 29.8508C148.439 29.0486 147.5 27.9084 146.945 26.5744C146.391 25.2404 146.246 23.7725 146.529 22.3563C146.811 20.9401 147.509 19.6393 148.533 18.6183C149.557 17.5973 150.862 16.902 152.283 16.6203C153.704 16.3386 155.177 16.4831 156.515 17.0357C157.853 17.5883 158.997 18.524 159.802 19.7246C160.607 20.9252 161.036 22.3366 161.036 23.7806C161.027 25.7141 160.253 27.5659 158.881 28.9331C157.51 30.3003 155.652 31.0723 153.712 31.0811ZM153.712 19.243C152.821 19.243 151.949 19.5065 151.208 20.0001C150.467 20.4938 149.889 21.1954 149.548 22.0164C149.207 22.8373 149.118 23.7406 149.292 24.6121C149.465 25.4836 149.895 26.2841 150.525 26.9124C151.155 27.5407 151.958 27.9686 152.833 28.142C153.707 28.3153 154.613 28.2264 155.437 27.8863C156.261 27.5463 156.964 26.9704 157.46 26.2316C157.955 25.4928 158.219 24.6242 158.219 23.7356C158.212 22.5464 157.735 21.4079 156.891 20.567C156.047 19.726 154.905 19.2503 153.712 19.243Z" fill="#252536"/>
<path d="M31.9549 149.807C31.5415 149.189 31.029 148.959 30.4297 148.53C29.7931 148.158 29.3075 147.574 29.0574 146.882C28.8755 146.169 29.3219 145.271 30.0577 145.234C30.7934 145.197 31.2687 145.967 31.5911 146.623C32.1533 147.78 32.9758 149.152 33.5421 150.31" fill="#DA0916"/>
<g opacity="0.4">
<path d="M31.9549 149.807C31.5415 149.189 31.029 148.959 30.4297 148.53C29.7931 148.158 29.3075 147.574 29.0574 146.882C28.8755 146.169 29.3219 145.271 30.0577 145.234C30.7934 145.197 31.2687 145.967 31.5911 146.623C32.1533 147.78 32.9758 149.152 33.5421 150.31" fill="black"/>
</g>
<path d="M29.7187 149.272C27.7057 148.786 25.42 148.489 23.3988 148.938C22.4192 149.156 21.3569 149.762 21.2784 150.771C21.2785 151.109 21.3646 151.441 21.5288 151.737C21.6929 152.032 21.9296 152.281 22.2167 152.461C23.5931 153.416 25.4944 153.091 27.0155 152.386C28.5365 151.682 30.2312 150.446 31.5869 149.708" fill="#DA0916"/>
<g opacity="0.4">
<path d="M29.7187 149.272C27.7057 148.786 25.42 148.489 23.3988 148.938C22.4192 149.156 21.3569 149.762 21.2784 150.771C21.2785 151.109 21.3646 151.441 21.5288 151.737C21.6929 152.032 21.9296 152.281 22.2167 152.461C23.5931 153.416 25.4944 153.091 27.0155 152.386C28.5365 151.682 30.2312 150.446 31.5869 149.708" fill="black"/>
</g>
<path d="M37.6877 152.139C35.7181 152.032 33.7475 152.333 31.901 153.025C31.0504 153.282 30.3017 153.798 29.76 154.5C29.0284 155.621 29.388 157.244 30.4006 158.126C30.928 158.542 31.5517 158.819 32.2146 158.933C32.8775 159.047 33.5584 158.993 34.195 158.776C35.467 158.323 36.569 157.492 37.3529 156.395C38.1799 155.411 38.9017 154.344 39.5064 153.21" fill="#DA0916"/>
<g opacity="0.4">
<path d="M37.6877 152.139C35.7181 152.032 33.7475 152.333 31.901 153.025C31.0504 153.282 30.3017 153.798 29.76 154.5C29.0284 155.621 29.388 157.244 30.4006 158.126C30.928 158.542 31.5517 158.819 32.2146 158.933C32.8775 159.047 33.5584 158.993 34.195 158.776C35.467 158.323 36.569 157.492 37.3529 156.395C38.1799 155.411 38.9017 154.344 39.5064 153.21" fill="black"/>
</g>
<path d="M43.0322 155.691C42.2698 154.679 41.7393 153.513 41.478 152.275C41.3841 151.913 41.3658 151.536 41.4243 151.167C41.456 150.982 41.5314 150.808 41.6443 150.658C41.7572 150.508 41.9042 150.388 42.0732 150.306C42.2867 150.234 42.5161 150.223 42.7353 150.275C42.9545 150.327 43.1548 150.439 43.3132 150.598C43.6221 150.917 43.8601 151.298 44.0118 151.715C44.9707 153.944 45.3592 156.453 45.8718 158.826" fill="#DA0916"/>
<g opacity="0.4">
<path d="M43.0322 155.691C42.2698 154.679 41.7393 153.513 41.478 152.275C41.3841 151.913 41.3658 151.536 41.4243 151.167C41.456 150.982 41.5314 150.808 41.6443 150.658C41.7572 150.508 41.9042 150.388 42.0732 150.306C42.2867 150.234 42.5161 150.223 42.7353 150.275C42.9545 150.327 43.1548 150.439 43.3132 150.598C43.6221 150.917 43.8601 151.298 44.0118 151.715C44.9707 153.944 45.3592 156.453 45.8718 158.826" fill="black"/>
</g>
<path d="M44.4334 157.524C43.1422 157.32 41.822 157.399 40.5644 157.755C39.3067 158.11 38.1418 158.735 37.1505 159.584C36.5687 160.045 36.1172 160.648 35.8402 161.335C35.7046 161.678 35.6597 162.051 35.7096 162.417C35.7595 162.782 35.9027 163.129 36.1254 163.424C36.7371 164.141 37.8449 164.223 38.7418 163.931C39.8082 163.585 40.6803 162.818 41.5194 162.077L45.5039 158.529" fill="#DA0916"/>
<g opacity="0.4">
<path d="M44.4334 157.524C43.1422 157.32 41.822 157.399 40.5644 157.755C39.3067 158.11 38.1418 158.735 37.1505 159.584C36.5687 160.045 36.1172 160.648 35.8402 161.335C35.7046 161.678 35.6597 162.051 35.7096 162.417C35.7595 162.782 35.9027 163.129 36.1254 163.424C36.7371 164.141 37.8449 164.223 38.7418 163.931C39.8082 163.585 40.6803 162.818 41.5194 162.077L45.5039 158.529" fill="black"/>
</g>
<path d="M44.5532 147.224C44.7428 145.637 45.2609 144.107 46.0749 142.731C46.8889 141.354 47.9809 140.161 49.2817 139.227C50.0695 138.621 51.0003 138.227 51.9849 138.082C52.4774 138.017 52.9782 138.079 53.4403 138.26C53.9024 138.442 54.3105 138.738 54.6261 139.12C55.3412 140.096 55.1717 141.485 54.6261 142.573C53.7664 144.344 52.1007 145.634 50.2779 146.384C48.4226 147.072 46.4693 147.461 44.4912 147.537" fill="#DA0916"/>
<path d="M42.6478 140.212C42.9784 138.201 44.0407 136.376 45.2766 134.757C45.6508 134.225 46.107 133.755 46.6281 133.364C46.8916 133.173 47.1904 133.035 47.5075 132.958C47.8245 132.882 48.1536 132.869 48.4758 132.919C48.9156 133.035 49.3096 133.281 49.6051 133.626C49.9006 133.97 50.0834 134.397 50.1291 134.848C50.1616 135.296 50.1029 135.745 49.9566 136.17C49.8103 136.595 49.5793 136.986 49.2776 137.32C48.6713 137.988 47.938 138.53 47.12 138.914C45.7469 139.62 44.2757 140.117 42.7552 140.389" fill="#DA0916"/>
<path d="M41.6805 133.995C41.7053 131.395 42.7634 128.445 44.7433 126.756C45.0946 126.459 45.57 126.175 45.9833 126.402C46.1865 126.55 46.3323 126.764 46.3966 127.007C46.6823 127.781 46.7797 128.61 46.6809 129.429C46.5821 130.247 46.2899 131.03 45.8283 131.714C45.3667 132.398 44.7489 132.962 44.0257 133.362C43.3024 133.761 42.4944 133.984 41.6681 134.011" fill="#DA0916"/>
<path d="M41.5235 131.449C41.4491 129.199 40.2835 127.296 38.8823 125.532C38.5599 125.12 38.13 124.708 37.6133 124.737C36.8983 124.77 36.5056 125.594 36.4312 126.303C36.3685 126.973 36.4463 127.648 36.6598 128.287C36.8733 128.925 37.2177 129.512 37.6712 130.011C38.5888 130.999 40.1512 131.469 41.5193 131.444" fill="#DA0916"/>
<path d="M42.0319 125.322C40.8663 123.464 40.6803 120.378 41.7839 118.475C42.1281 117.843 42.6345 117.314 43.2512 116.942C43.56 116.76 43.905 116.647 44.2621 116.613C44.6191 116.578 44.9795 116.621 45.3179 116.74C46.4545 117.189 46.9505 118.619 46.6819 119.81C46.4132 121 45.5617 121.968 44.6565 122.788C43.7513 123.608 42.7552 124.346 42.0277 125.322" fill="#DA0916"/>
<path d="M42.2303 138.111C41.5641 137.094 40.7833 136.157 39.9033 135.317C39.0142 134.477 37.8978 133.914 36.6917 133.698C36.0895 133.598 35.4721 133.638 34.8882 133.816C34.3044 133.994 33.77 134.305 33.3271 134.724C32.8949 135.154 32.6102 135.709 32.5137 136.31C32.4172 136.911 32.5138 137.527 32.7898 138.069C33.2569 138.893 34.1497 139.367 35.0425 139.684C37.4137 140.523 40.0069 140.494 42.3585 139.602" fill="#DA0916"/>
<path d="M44.2267 146.136C43.3378 144.89 42.102 143.93 40.6721 143.376C39.9571 143.108 39.1959 142.984 38.4326 143.011C37.6693 143.038 36.9189 143.215 36.2246 143.533C35.5591 143.858 34.9143 144.439 34.9185 145.181C34.9226 145.922 35.6087 146.515 36.2783 146.886C37.5045 147.552 38.8667 147.932 40.2618 147.995C41.6568 148.059 43.048 147.805 44.3301 147.253" fill="#DA0916"/>
<path d="M47.7441 157.565C47.3422 155.723 47.6647 153.797 48.6452 152.185C49.6662 150.521 51.2311 149.26 53.0761 148.612C53.7695 148.336 54.5204 148.234 55.2627 148.316C55.632 148.361 55.9855 148.492 56.2943 148.699C56.6032 148.906 56.8586 149.183 57.04 149.507C57.598 150.64 56.8457 152.04 55.8 152.732C54.7383 153.456 53.5882 154.042 52.3776 154.475C50.5176 155.089 48.8271 157.211 48.0996 158.711" fill="#DA0916"/>
<path d="M49.8646 166.036C49.7945 163.65 50.4564 161.3 51.7618 159.3C52.3887 158.166 53.3456 157.248 54.5063 156.667C55.6843 156.156 57.2054 156.255 58.094 157.199C59.2307 158.393 58.9207 160.437 57.8543 161.702C56.7879 162.967 55.2296 163.659 53.721 164.347C52.2123 165.035 51.0467 165.826 50.1415 167.202" fill="#DA0916"/>
<path d="M51.1624 172.991C51.7452 170.902 52.4024 168.784 53.6961 167.049C54.9899 165.315 57.0855 164.021 59.2472 164.227C60.2723 164.326 61.3139 164.837 61.7272 165.776C62.2356 166.946 61.5784 168.298 60.7352 169.254C59.5472 170.6 57.9964 171.578 56.2671 172.072C55.304 172.344 54.2955 172.484 53.3737 172.813C52.452 173.143 51.5385 173.81 51.2203 174.758" fill="#DA0916"/>
<path d="M51.3402 175.879C50.6664 173.674 48.6535 172.171 46.6282 171.054C45.1112 170.23 43.4166 169.526 41.7012 169.74C39.9859 169.954 38.3202 171.388 38.4318 173.11C38.5434 174.832 40.3579 176.06 42.098 176.307C43.8382 176.554 45.6114 176.159 47.368 176.196C49.1247 176.233 50.7946 176.731 51.5262 178.326" fill="#DA0916"/>
<path d="M50.2531 168.314C49.8726 167.206 49.2192 166.21 48.3527 165.418C47.4861 164.626 46.4342 164.064 45.2931 163.782C44.6373 163.576 43.9276 163.623 43.305 163.914C42.9055 164.186 42.6124 164.587 42.4753 165.05C42.3383 165.512 42.3656 166.007 42.5527 166.452C42.7574 166.888 43.052 167.277 43.4173 167.592C43.7827 167.907 44.2106 168.142 44.6731 168.281C45.6003 168.555 46.5623 168.694 47.5292 168.693C48.4945 168.688 49.4559 168.816 50.3854 169.077" fill="#DA0916"/>
<path d="M35.4888 150.961C34.9773 150.482 34.6047 149.874 34.41 149.202C34.335 148.989 34.3439 148.757 34.4348 148.551C34.5219 148.432 34.6454 148.346 34.7865 148.304C34.9275 148.263 35.0784 148.268 35.216 148.32C35.4854 148.436 35.7234 148.614 35.9104 148.839C36.8016 149.899 37.5852 151.045 38.2499 152.259" fill="#DA0916"/>
<path d="M44.4333 118.195C44.4166 118.247 44.3958 118.298 44.3713 118.347C44.3217 118.454 44.2515 118.598 44.1688 118.78L43.834 119.48C43.7183 119.764 43.5819 120.09 43.4207 120.456C43.0703 121.358 42.7695 122.278 42.5196 123.213C42.1978 124.451 41.9603 125.709 41.8087 126.978C41.4378 130.293 41.5199 133.643 42.0525 136.936C42.7575 140.959 43.7563 144.925 45.0409 148.802C46.3471 152.947 47.7152 156.865 48.6907 160.515C49.5668 163.742 50.2568 167.016 50.7573 170.321C51.1707 173.143 51.3773 175.446 51.4848 177.036C51.5344 177.832 51.5675 178.45 51.5799 178.87C51.5799 179.072 51.5799 179.228 51.5799 179.348C51.5843 179.403 51.5843 179.458 51.5799 179.512C51.5756 179.458 51.5756 179.403 51.5799 179.348L51.5427 178.874C51.5096 178.441 51.4683 177.827 51.4104 177.045C51.2781 175.454 51.0591 173.159 50.6168 170.345C50.1001 167.049 49.4019 163.784 48.5253 160.565C47.5416 156.931 46.1652 153.017 44.8591 148.864C43.5722 144.977 42.5774 141 41.8831 136.965C41.356 133.656 41.2878 130.29 41.6805 126.962C41.8438 125.686 42.0924 124.423 42.4245 123.18C42.6874 122.246 43.002 121.327 43.3669 120.428C43.524 120.061 43.6645 119.735 43.7803 119.455C43.896 119.175 44.0365 118.953 44.1316 118.759C44.2267 118.565 44.3011 118.442 44.3548 118.347C44.3751 118.293 44.4014 118.242 44.4333 118.195Z" fill="#252536"/>
<path d="M27.3627 148.917C27.4629 148.906 27.5642 148.906 27.6644 148.917C27.8628 148.938 28.1522 148.954 28.5242 149.012C29.5767 149.153 30.6191 149.36 31.6448 149.634C35.0466 150.527 38.2474 152.055 41.0771 154.137C42.6347 155.279 44.0623 156.588 45.3344 158.039C46.3674 159.229 47.281 160.516 48.0624 161.883C48.5905 162.802 49.0599 163.752 49.4678 164.73C49.6207 165.072 49.7158 165.348 49.786 165.533C49.8283 165.624 49.8601 165.72 49.8811 165.818C49.8291 165.733 49.7848 165.643 49.7488 165.55C49.662 165.373 49.5546 165.101 49.3934 164.763C48.9551 163.804 48.4667 162.869 47.9302 161.961C47.1371 160.615 46.2181 159.345 45.1856 158.171C43.9156 156.737 42.4953 155.443 40.949 154.311C38.1388 152.244 34.9728 150.708 31.6076 149.778C30.5911 149.501 29.5604 149.279 28.52 149.111C28.1522 149.041 27.8628 149.008 27.6686 148.975C27.5656 148.962 27.4635 148.942 27.3627 148.917Z" fill="#252536"/>
<path d="M51.0096 141.567C50.6643 141.836 50.3041 142.085 49.9308 142.313C49.0554 142.908 48.2263 143.567 47.4508 144.286C46.6859 145.008 45.9758 145.784 45.3262 146.61C45.0706 146.969 44.7946 147.313 44.4996 147.64C44.5372 147.528 44.5916 147.423 44.6608 147.327C44.7765 147.129 44.9542 146.853 45.1898 146.503C46.435 144.774 48.0043 143.303 49.8109 142.169C50.1581 141.955 50.4474 141.794 50.6376 141.691C50.7542 141.63 50.8798 141.589 51.0096 141.567Z" fill="#252536"/>
<path d="M53.7333 150.681C53.7333 150.718 53.1919 150.903 52.39 151.377C51.3441 151.994 50.4398 152.823 49.7356 153.81C49.0314 154.797 48.5431 155.921 48.3021 157.108C48.112 158.018 48.1161 158.603 48.0789 158.603C48.0494 158.468 48.0397 158.329 48.05 158.191C48.0545 157.819 48.0877 157.447 48.1492 157.079C48.3551 155.856 48.8371 154.695 49.5589 153.684C50.2806 152.674 51.2232 151.84 52.3156 151.245C52.6387 151.07 52.9744 150.918 53.32 150.792C53.4513 150.734 53.5907 150.697 53.7333 150.681Z" fill="#252536"/>
<path d="M54.7997 159.254C54.7997 159.287 54.3864 159.559 53.7251 160.107C52.045 161.545 50.8644 163.476 50.3523 165.624C50.1621 166.448 50.1249 166.967 50.0836 166.963C50.0657 166.84 50.0657 166.715 50.0836 166.592C50.0988 166.256 50.1402 165.921 50.2076 165.591C50.4281 164.493 50.8394 163.442 51.4228 162.485C52.0062 161.53 52.7549 160.686 53.6341 159.992C53.8957 159.782 54.1719 159.59 54.4608 159.419C54.5647 159.347 54.679 159.292 54.7997 159.254Z" fill="#252536"/>
<path d="M57.5236 167.531C57.5236 167.569 57.0483 167.77 56.3167 168.195C54.4006 169.306 52.8278 170.921 51.77 172.863C51.3567 173.608 51.179 174.099 51.1418 174.099C51.1569 173.975 51.1904 173.854 51.241 173.74C51.3593 173.42 51.4973 173.108 51.6543 172.805C52.6546 170.785 54.2668 169.128 56.263 168.071C56.5616 167.913 56.871 167.775 57.1888 167.659C57.2936 167.601 57.4064 167.558 57.5236 167.531Z" fill="#252536"/>
<path d="M44.578 165.426C44.9208 165.361 45.2728 165.361 45.6155 165.426C46.452 165.541 47.2571 165.821 47.9838 166.25C48.7105 166.679 49.3443 167.247 49.848 167.923C50.0699 168.192 50.2433 168.497 50.3606 168.825C50.3275 168.825 50.1332 168.5 49.7323 168.001C48.6781 166.737 47.2178 165.875 45.599 165.562C44.9748 165.467 44.578 165.463 44.578 165.426Z" fill="#252536"/>
<path d="M43.586 173.04C43.586 173.04 43.6728 172.929 43.896 172.826C44.2166 172.69 44.5674 172.642 44.9128 172.686C45.4171 172.759 45.9051 172.918 46.3554 173.155C46.8638 173.398 47.4218 173.67 47.988 173.979C48.9773 174.503 49.8828 175.171 50.6747 175.961C50.9107 176.206 51.1263 176.469 51.3195 176.748C51.3959 176.845 51.4572 176.954 51.5014 177.069C51.4683 177.094 51.179 176.657 50.5672 176.068C49.7577 175.323 48.8563 174.683 47.8847 174.165C47.3226 173.852 46.7687 173.576 46.2686 173.341C45.8389 173.104 45.3744 172.935 44.8922 172.842C44.4467 172.773 43.9908 172.842 43.586 173.04Z" fill="#252536"/>
<path d="M44.9334 158.208C43.7735 158.429 42.6459 158.795 41.5772 159.296C40.5436 159.86 39.5854 160.552 38.7252 161.356C38.9082 161.056 39.1385 160.787 39.4072 160.56C40.6487 159.386 42.2049 158.595 43.8877 158.282C44.2303 158.203 44.5831 158.178 44.9334 158.208Z" fill="#252536"/>
<path d="M44.8633 158.002C44.6775 157.789 44.5243 157.551 44.4086 157.293C44.0923 156.697 43.8255 156.075 43.6109 155.435C43.3943 154.796 43.2311 154.14 43.1232 153.474C43.0599 153.204 43.039 152.926 43.0612 152.65C43.1273 152.65 43.3133 153.886 43.8134 155.382C44.3136 156.877 44.9212 157.969 44.8633 158.002Z" fill="#252536"/>
<path d="M44.2266 146.882C43.2789 146.44 42.301 146.066 41.3002 145.761C40.2798 145.53 39.2437 145.373 38.2002 145.292C38.5034 145.221 38.8162 145.2 39.1261 145.23C39.8789 145.252 40.6266 145.361 41.354 145.555C42.0803 145.75 42.782 146.026 43.4454 146.379C43.7288 146.508 43.992 146.678 44.2266 146.882Z" fill="#252536"/>
<path d="M48.3601 134.938C48.0767 135.192 47.7741 135.423 47.4549 135.63C46.8927 136.042 46.1281 136.644 45.3345 137.361C44.5409 138.078 43.8754 138.778 43.4042 139.297C43.1666 139.592 42.9053 139.868 42.623 140.121C42.8082 139.788 43.0315 139.477 43.2885 139.194C44.4546 137.762 45.8298 136.512 47.3681 135.486C47.6777 135.268 48.0103 135.084 48.3601 134.938Z" fill="#252536"/>
<path d="M42.5734 139.392C42.2327 139.228 41.9015 139.045 41.5814 138.844C40.0204 137.981 38.3282 137.378 36.5718 137.06C36.2034 137.017 35.8386 136.947 35.4806 136.85C35.8537 136.821 36.229 136.842 36.5966 136.912C38.3912 137.151 40.115 137.764 41.6558 138.712C41.9915 138.896 42.3003 139.124 42.5734 139.392Z" fill="#252536"/>
<path d="M45.0244 129.121C45.074 129.166 44.1606 130.089 43.2182 131.366C42.2758 132.643 41.6558 133.785 41.5979 133.752C41.6755 133.477 41.7925 133.215 41.9451 132.973C42.2693 132.37 42.6382 131.791 43.0487 131.243C43.4554 130.689 43.9016 130.166 44.3838 129.677C44.5689 129.461 44.7848 129.274 45.0244 129.121Z" fill="#252536"/>
<path d="M41.4491 131.21C41.267 130.973 41.1 130.725 40.949 130.468C40.5328 129.884 40.0608 129.342 39.5395 128.849C38.9278 128.268 38.3285 127.786 37.8862 127.432C37.6394 127.257 37.4133 127.056 37.2125 126.83C37.492 126.956 37.7545 127.117 37.9937 127.308C38.5891 127.729 39.1553 128.191 39.6883 128.688C40.225 129.188 40.692 129.758 41.0771 130.382C41.2513 130.632 41.3775 130.913 41.4491 131.21Z" fill="#252536"/>
<path d="M38.7005 152.658C37.7602 152.935 36.8438 153.286 35.9601 153.709C35.1117 154.196 34.3019 154.747 33.5379 155.357C33.6995 155.113 33.899 154.896 34.129 154.714C35.1888 153.77 36.467 153.104 37.849 152.774C38.1248 152.69 38.4123 152.651 38.7005 152.658Z" fill="#252536"/>
<path d="M29.8138 149.453C29.8138 149.519 28.5076 149.597 26.9576 150.013C25.4076 150.429 24.2338 151.006 24.2048 150.949C24.4293 150.767 24.6802 150.621 24.9488 150.516C25.5786 150.223 26.2327 149.986 26.9039 149.807C27.5805 149.626 28.2723 149.506 28.9706 149.449C29.2505 149.411 29.5343 149.412 29.8138 149.453Z" fill="#252536"/>
<path d="M32.4798 150.055C32.111 149.616 31.8012 149.131 31.558 148.613C31.2535 148.134 31.0079 147.621 30.8264 147.084C31.1924 147.525 31.502 148.009 31.7482 148.526C32.0519 149.005 32.2975 149.518 32.4798 150.055Z" fill="#252536"/>
<g opacity="0.4">
<path d="M35.4888 150.961C34.9773 150.482 34.6047 149.874 34.41 149.202C34.335 148.989 34.3439 148.757 34.4348 148.551C34.5219 148.432 34.6454 148.346 34.7865 148.304C34.9275 148.263 35.0784 148.268 35.216 148.32C35.4854 148.436 35.7234 148.614 35.9104 148.839C36.8016 149.899 37.5852 151.045 38.2499 152.259" fill="black"/>
</g>
<path d="M42.3585 179.512H60.8014V187.415C60.8014 189.852 59.8299 192.19 58.1005 193.914C56.3711 195.638 54.0256 196.606 51.5799 196.606C49.1343 196.606 46.7887 195.638 45.0594 193.914C43.33 192.19 42.3585 189.852 42.3585 187.415V179.512Z" fill="#455A64"/>
<path d="M60.7807 185.066C60.5375 185.012 60.2985 184.94 60.0656 184.852C59.6068 184.708 58.9496 184.481 58.1188 184.279C57.1539 184.019 56.1527 183.919 55.1552 183.983C54.5696 184.032 53.9937 184.163 53.444 184.37C52.8695 184.58 52.2908 184.852 51.6791 185.099C51.0838 185.359 50.455 185.536 49.8108 185.622C49.2062 185.677 48.5966 185.637 48.0045 185.503C46.8803 185.252 45.9379 184.852 45.1112 184.601C44.4709 184.387 43.8079 184.249 43.1355 184.189C42.8999 184.189 42.7221 184.189 42.5857 184.189C42.5214 184.199 42.4558 184.199 42.3915 184.189C42.4545 184.17 42.5199 184.16 42.5857 184.16C42.7692 184.134 42.9546 184.126 43.1396 184.135C43.8251 184.17 44.5031 184.293 45.1567 184.502C45.9833 184.737 46.9423 185.12 48.05 185.355C48.6223 185.481 49.211 185.515 49.7943 185.458C50.4173 185.372 51.0253 185.2 51.6005 184.947C52.2081 184.704 52.7909 184.432 53.3779 184.218C53.9459 184.009 54.5396 183.879 55.1428 183.83C56.161 183.773 57.1815 183.89 58.1601 184.176C58.9868 184.403 59.6481 184.65 60.0987 184.819L60.6112 185.025C60.6688 185.034 60.7255 185.048 60.7807 185.066Z" fill="#252536"/>
<path d="M60.7807 183.962C60.5375 183.908 60.2985 183.836 60.0656 183.748C59.6068 183.599 58.9496 183.377 58.1188 183.171C57.1535 182.913 56.1527 182.813 55.1552 182.874C54.5697 182.927 53.9941 183.059 53.444 183.266C52.8695 183.476 52.2908 183.748 51.6791 183.995C51.0831 184.253 50.4546 184.429 49.8108 184.518C49.2059 184.572 48.5964 184.53 48.0045 184.395C46.8803 184.143 45.9379 183.748 45.1112 183.492C44.4705 183.281 43.8076 183.142 43.1355 183.08C42.9525 183.067 42.7687 183.067 42.5857 183.08H42.3915C42.4538 183.058 42.5196 183.047 42.5857 183.047C42.7693 183.024 42.9547 183.017 43.1396 183.027C43.8252 183.058 44.5035 183.179 45.1567 183.389C45.9833 183.628 46.9423 184.012 48.05 184.242C48.6221 184.37 49.2108 184.406 49.7943 184.349C50.4165 184.26 51.0239 184.088 51.6005 183.838C52.2081 183.591 52.7909 183.319 53.3779 183.109C53.9451 182.898 54.5391 182.766 55.1428 182.718C56.1609 182.665 57.1807 182.782 58.1601 183.064C58.8174 183.245 59.4645 183.461 60.0987 183.711L60.6112 183.917C60.7228 183.925 60.7848 183.954 60.7807 183.962Z" fill="#252536"/>
</svg>
