<svg width="310" height="206" viewBox="0 0 310 206" fill="none" xmlns="http://www.w3.org/2000/svg">
<path d="M291.647 177.239H18.3528V177.376H291.647V177.239Z" fill="#EBEBEB"/>
<path d="M147.873 153H42.1217C41.2933 152.999 40.4993 152.687 39.914 152.135C39.3287 151.582 39 150.833 39 150.052V9.92207C39.0072 9.14561 39.3391 8.4032 39.9236 7.85608C40.5081 7.30896 41.298 7.00133 42.1217 7H147.873C148.702 7 149.498 7.31058 150.084 7.86341C150.67 8.41625 151 9.16605 151 9.94788V150.052C151 150.834 150.67 151.584 150.084 152.137C149.498 152.689 148.702 153 147.873 153ZM42.1217 7.10325C41.3296 7.10462 40.5704 7.4022 40.0108 7.93069C39.4512 8.45917 39.1369 9.17536 39.1369 9.92207V150.052C39.1369 150.799 39.4512 151.515 40.0108 152.044C40.5704 152.572 41.3296 152.87 42.1217 152.871H147.873C148.665 152.87 149.425 152.572 149.986 152.044C150.546 151.515 150.862 150.799 150.863 150.052V9.92207C150.862 9.17489 150.546 8.45871 149.986 7.93037C149.425 7.40204 148.665 7.10462 147.873 7.10325H42.1217Z" fill="#EBEBEB"/>
<path d="M265.884 153H160.127C159.298 152.999 158.504 152.688 157.918 152.135C157.331 151.583 157.001 150.834 157 150.052V9.92207C157.009 9.14514 157.342 8.40273 157.927 7.85576C158.513 7.30878 159.303 7.00132 160.127 7H265.884C266.706 7.00269 267.495 7.31092 268.078 7.85789C268.662 8.40487 268.993 9.14651 269 9.92207V150.052C269 150.832 268.672 151.58 268.088 152.133C267.504 152.685 266.711 152.997 265.884 153ZM160.127 7.10325C159.335 7.10462 158.575 7.40204 158.014 7.93037C157.454 8.45871 157.138 9.17489 157.137 9.92207V150.052C157.138 150.799 157.454 151.515 158.014 152.044C158.575 152.572 159.335 152.87 160.127 152.871H265.884C266.676 152.87 267.436 152.572 267.997 152.044C268.557 151.515 268.873 150.799 268.874 150.052V9.92207C268.873 9.17489 268.557 8.45871 267.997 7.93037C267.436 7.40204 266.676 7.10462 265.884 7.10325H160.127Z" fill="#EBEBEB"/>
<path d="M127.911 182.443H113.7V182.579H127.911V182.443Z" fill="#EBEBEB"/>
<path d="M76.5972 180.961H47.0268V181.098H76.5972V180.961Z" fill="#EBEBEB"/>
<path d="M113.153 187.52H98.7669V187.657H113.153V187.52Z" fill="#EBEBEB"/>
<path d="M180.722 186.602H159.498V186.739H180.722V186.602Z" fill="#EBEBEB"/>
<path d="M191.43 186.602H185.587V186.739H191.43V186.602Z" fill="#EBEBEB"/>
<path d="M264.269 184.295H234.447V184.432H264.269V184.295Z" fill="#EBEBEB"/>
<path d="M81.5603 54.9506H122.008C122.83 54.9506 123.618 55.2771 124.199 55.8583C124.781 56.4395 125.107 57.2278 125.107 58.0497V177.239H78.4775V58.0443C78.479 57.2261 78.8039 56.4417 79.3814 55.8621C79.9589 55.2826 80.7421 54.9549 81.5603 54.9506Z" fill="#F5F5F5"/>
<path d="M88.349 62.1765H82.3365V75.5625H88.349V62.1765Z" fill="#EBEBEB"/>
<path d="M121.232 62.1765H115.219V75.5625H121.232V62.1765Z" fill="#EBEBEB"/>
<path d="M99.3081 62.1765H93.2956V75.5625H99.3081V62.1765Z" fill="#EBEBEB"/>
<path d="M110.273 62.1765H104.26V75.5625H110.273V62.1765Z" fill="#EBEBEB"/>
<path d="M88.349 83.3077H82.3365V96.6936H88.349V83.3077Z" fill="#EBEBEB"/>
<path d="M121.232 83.3077H115.219V96.6936H121.232V83.3077Z" fill="#EBEBEB"/>
<path d="M99.3081 83.3077H93.2956V96.6936H99.3081V83.3077Z" fill="#EBEBEB"/>
<path d="M110.273 83.3077H104.26V96.6936H110.273V83.3077Z" fill="#EBEBEB"/>
<path d="M88.349 104.439H82.3365V117.825H88.349V104.439Z" fill="#EBEBEB"/>
<path d="M121.232 104.439H115.219V117.825H121.232V104.439Z" fill="#EBEBEB"/>
<path d="M99.3081 104.439H93.2956V117.825H99.3081V104.439Z" fill="#EBEBEB"/>
<path d="M110.273 104.439H104.26V117.825H110.273V104.439Z" fill="#EBEBEB"/>
<path d="M88.349 125.57H82.3365V138.956H88.349V125.57Z" fill="#EBEBEB"/>
<path d="M121.232 125.57H115.219V138.956H121.232V125.57Z" fill="#EBEBEB"/>
<path d="M99.3081 125.57H93.2956V138.956H99.3081V125.57Z" fill="#EBEBEB"/>
<path d="M110.273 125.57H104.26V138.956H110.273V125.57Z" fill="#EBEBEB"/>
<path d="M88.349 146.701H82.3365V160.087H88.349V146.701Z" fill="#EBEBEB"/>
<path d="M121.232 146.701H115.219V160.087H121.232V146.701Z" fill="#EBEBEB"/>
<path d="M99.3081 146.701H93.2956V160.087H99.3081V146.701Z" fill="#EBEBEB"/>
<path d="M110.273 146.701H104.26V160.087H110.273V146.701Z" fill="#EBEBEB"/>
<path d="M224.963 66.0627H253.933C254.264 66.0627 254.591 66.1279 254.897 66.2546C255.203 66.3812 255.48 66.5668 255.714 66.8008C255.948 67.0348 256.134 67.3125 256.261 67.6182C256.387 67.924 256.452 68.2516 256.452 68.5825V177.239H222.471V68.588C222.469 67.9235 222.731 67.2853 223.197 66.8123C223.664 66.3394 224.299 66.0699 224.963 66.0627Z" fill="#F5F5F5"/>
<path d="M232.244 72.6328H226.778V84.7999H232.244V72.6328Z" fill="#EBEBEB"/>
<path d="M242.208 72.6328H236.743V84.7999H242.208V72.6328Z" fill="#EBEBEB"/>
<path d="M252.173 72.6328H246.707V84.7999H252.173V72.6328Z" fill="#EBEBEB"/>
<path d="M232.244 91.8453H226.778V104.012H232.244V91.8453Z" fill="#EBEBEB"/>
<path d="M242.208 91.8453H236.743V104.012H242.208V91.8453Z" fill="#EBEBEB"/>
<path d="M252.173 91.8453H246.707V104.012H252.173V91.8453Z" fill="#EBEBEB"/>
<path d="M232.244 111.058H226.778V123.225H232.244V111.058Z" fill="#EBEBEB"/>
<path d="M242.208 111.058H236.743V123.225H242.208V111.058Z" fill="#EBEBEB"/>
<path d="M252.173 111.058H246.707V123.225H252.173V111.058Z" fill="#EBEBEB"/>
<path d="M232.244 130.265H226.778V142.432H232.244V130.265Z" fill="#EBEBEB"/>
<path d="M242.208 130.265H236.743V142.432H242.208V130.265Z" fill="#EBEBEB"/>
<path d="M252.173 130.265H246.707V142.432H252.173V130.265Z" fill="#EBEBEB"/>
<path d="M232.244 149.478H226.778V161.645H232.244V149.478Z" fill="#EBEBEB"/>
<path d="M242.208 149.478H236.743V161.645H242.208V149.478Z" fill="#EBEBEB"/>
<path d="M252.173 149.478H246.707V161.645H252.173V149.478Z" fill="#EBEBEB"/>
<path d="M158.602 34.9673H205.658C206.613 34.9673 207.529 35.3468 208.205 36.0223C208.88 36.6978 209.26 37.614 209.26 38.5693V177.239H155V38.5693C155 37.614 155.38 36.6978 156.055 36.0223C156.731 35.3468 157.647 34.9673 158.602 34.9673Z" fill="#F5F5F5"/>
<path d="M166.5 43.3738H159.504V58.9461H166.5V43.3738Z" fill="#EBEBEB"/>
<path d="M204.756 43.3738H197.76V58.9461H204.756V43.3738Z" fill="#EBEBEB"/>
<path d="M179.252 43.3738H172.256V58.9461H179.252V43.3738Z" fill="#EBEBEB"/>
<path d="M192.004 43.3738H185.008V58.9461H192.004V43.3738Z" fill="#EBEBEB"/>
<path d="M166.5 67.9594H159.504V83.5317H166.5V67.9594Z" fill="#EBEBEB"/>
<path d="M204.756 67.9594H197.76V83.5317H204.756V67.9594Z" fill="#EBEBEB"/>
<path d="M179.252 67.9594H172.256V83.5317H179.252V67.9594Z" fill="#EBEBEB"/>
<path d="M192.004 67.9594H185.008V83.5317H192.004V67.9594Z" fill="#EBEBEB"/>
<path d="M166.5 92.545H159.504V108.117H166.5V92.545Z" fill="#EBEBEB"/>
<path d="M204.756 92.545H197.76V108.117H204.756V92.545Z" fill="#EBEBEB"/>
<path d="M179.252 92.545H172.256V108.117H179.252V92.545Z" fill="#EBEBEB"/>
<path d="M192.004 92.545H185.008V108.117H192.004V92.545Z" fill="#EBEBEB"/>
<path d="M166.5 117.131H159.504V132.703H166.5V117.131Z" fill="#EBEBEB"/>
<path d="M204.756 117.131H197.76V132.703H204.756V117.131Z" fill="#EBEBEB"/>
<path d="M179.252 117.131H172.256V132.703H179.252V117.131Z" fill="#EBEBEB"/>
<path d="M192.004 117.131H185.008V132.703H192.004V117.131Z" fill="#EBEBEB"/>
<path d="M166.5 141.711H159.504V157.283H166.5V141.711Z" fill="#EBEBEB"/>
<path d="M204.756 141.711H197.76V157.283H204.756V141.711Z" fill="#EBEBEB"/>
<path d="M179.252 141.711H172.256V157.283H179.252V141.711Z" fill="#EBEBEB"/>
<path d="M192.004 141.711H185.008V157.283H192.004V141.711Z" fill="#EBEBEB"/>
<path d="M155 85.9203H125.107V177.239H155V85.9203Z" fill="#E6E6E6"/>
<path d="M222.471 95.6988H209.265V177.239H222.471V95.6988Z" fill="#E6E6E6"/>
<path d="M78.4611 177.239H52.3014V139.114L78.4611 130.265V177.239Z" fill="#E6E6E6"/>
<path d="M248.467 19.8104C252.747 16.2411 261.454 9.2776 253.965 8.28281C246.772 7.32628 236.174 11.535 232.791 15.23C232.791 11.6935 231.124 8.32654 224.772 5.60452C214.999 1.40672 213.485 16.662 213.999 19.4606C210.069 17.5748 197.661 17.9246 206.215 23.243H249.636C249.636 23.243 258.601 17.6404 248.467 19.8104Z" fill="#F5F5F5"/>
<path d="M52.5692 38.1867C52.5364 36.1533 52.3178 32.1742 55.9143 31.6276C59.3688 31.081 61.7136 33.4805 61.3201 35.5849C63.0473 33.568 65.3758 31.6549 69.344 30.119C75.4604 27.7249 68.6553 36.4157 67.0702 38.0118C69.6228 36.9186 74.6077 37.1317 68.4586 40.1598H50.4211C50.4211 40.1598 49.4318 36.9459 52.5692 38.1867Z" fill="#FAFAFA"/>
<path d="M155 201.923C213.53 201.923 260.978 199.153 260.978 195.736C260.978 192.318 213.53 189.548 155 189.548C96.4699 189.548 49.0219 192.318 49.0219 195.736C49.0219 199.153 96.4699 201.923 155 201.923Z" fill="#F5F5F5"/>
<path d="M125.677 158.653C122.513 158.721 119.501 160.026 117.287 162.289C115.073 164.551 113.833 167.591 113.833 170.756C113.833 173.921 115.073 176.961 117.287 179.223C119.501 181.485 122.513 182.791 125.677 182.859H128.1V158.653H125.677Z" fill="#252536"/>
<path d="M213.86 158.653C212.248 158.618 210.646 158.905 209.147 159.498C207.648 160.09 206.283 160.976 205.131 162.104C203.979 163.231 203.064 164.577 202.439 166.063C201.814 167.548 201.492 169.144 201.492 170.756C201.492 172.368 201.814 173.963 202.439 175.449C203.064 176.935 203.979 178.281 205.131 179.408C206.283 180.535 207.648 181.421 209.147 182.014C210.646 182.607 212.248 182.894 213.86 182.859H216.277V158.653H213.86Z" fill="#252536"/>
<path d="M173.903 182.853C180.586 182.853 186.003 177.436 186.003 170.753C186.003 164.07 180.586 158.653 173.903 158.653C167.22 158.653 161.803 164.07 161.803 170.753C161.803 177.436 167.22 182.853 173.903 182.853Z" fill="#252536"/>
<path d="M85.715 182.853C92.3978 182.853 97.8153 177.436 97.8153 170.753C97.8153 164.07 92.3978 158.653 85.715 158.653C79.0322 158.653 73.6147 164.07 73.6147 170.753C73.6147 177.436 79.0322 182.853 85.715 182.853Z" fill="#252536"/>
<path d="M187.045 106.601H141.128V164.941H187.045V106.601Z" fill="#DA0916"/>
<path opacity="0.2" d="M187.045 106.601H141.128V164.941H187.045V106.601Z" fill="black"/>
<path d="M233.393 121.109L232.962 121.476L234.79 123.621L235.221 123.254L233.393 121.109Z" fill="#DA0916"/>
<path d="M225.945 112.354L225.514 112.721L231.208 119.402L231.638 119.035L225.945 112.354Z" fill="#DA0916"/>
<path d="M187.045 164.935H244.071V139.62C244.072 137.74 243.402 135.921 242.181 134.492L224.438 113.642C222.557 111.434 220.219 109.661 217.585 108.445C214.952 107.23 212.086 106.6 209.185 106.601H187.045V164.935Z" fill="#DA0916"/>
<path d="M196.389 137.214V115.764C196.389 115.302 196.48 114.845 196.657 114.418C196.834 113.991 197.093 113.603 197.42 113.277C197.747 112.951 198.135 112.692 198.562 112.515C198.989 112.339 199.447 112.249 199.909 112.25H205.371C208.229 112.25 211.053 112.87 213.649 114.068C216.244 115.266 218.548 117.013 220.402 119.188L233.821 134.933C234.36 135.565 234.657 136.367 234.659 137.197C234.659 138.13 234.289 139.024 233.63 139.684C232.971 140.344 232.077 140.716 231.144 140.717H199.909C198.978 140.717 198.085 140.349 197.426 139.692C196.766 139.036 196.393 138.145 196.389 137.214Z" fill="white"/>
<path d="M244.071 158.042H237.03C236.65 158.041 236.276 157.942 235.945 157.753C235.615 157.563 235.34 157.291 235.147 156.963C234.955 156.635 234.851 156.262 234.847 155.881C234.842 155.501 234.938 155.125 235.123 154.793L236.312 152.665C236.5 152.323 236.776 152.038 237.111 151.839C237.446 151.64 237.829 151.534 238.219 151.533H244.071V158.042Z" fill="white"/>
<path d="M176.908 96.7989H65.929V164.935H176.908V96.7989Z" fill="#DA0916"/>
<path opacity="0.6" d="M176.908 96.7989H65.929V164.935H176.908V96.7989Z" fill="white"/>
<path opacity="0.5" d="M114.868 154.55H95.9816V158.653H114.868V154.55Z" fill="#DA0916"/>
<path opacity="0.5" d="M71.1133 154.55H65.929V158.653H71.1133V154.55Z" fill="#DA0916"/>
<path opacity="0.4" d="M104.267 96.7989H65.929V164.935H104.267V96.7989Z" fill="#DA0916"/>
<path opacity="0.4" d="M83.1568 96.7989H82.5399V164.935H83.1568V96.7989Z" fill="#DA0916"/>
<path d="M244.626 164.935H65.3744C64.8618 164.935 64.4462 165.35 64.4462 165.863V168.733C64.4462 169.245 64.8618 169.661 65.3744 169.661H244.626C245.138 169.661 245.554 169.245 245.554 168.733V165.863C245.554 165.35 245.138 164.935 244.626 164.935Z" fill="#252536"/>
<path d="M216.288 182.853C222.971 182.853 228.388 177.436 228.388 170.753C228.388 164.07 222.971 158.653 216.288 158.653C209.605 158.653 204.188 164.07 204.188 170.753C204.188 177.436 209.605 182.853 216.288 182.853Z" fill="#252536"/>
<path d="M216.288 178.541C220.589 178.541 224.076 175.054 224.076 170.753C224.076 166.452 220.589 162.965 216.288 162.965C211.987 162.965 208.5 166.452 208.5 170.753C208.5 175.054 211.987 178.541 216.288 178.541Z" fill="white"/>
<path d="M128.1 182.853C134.783 182.853 140.2 177.436 140.2 170.753C140.2 164.07 134.783 158.653 128.1 158.653C121.417 158.653 116 164.07 116 170.753C116 177.436 121.417 182.853 128.1 182.853Z" fill="#252536"/>
<path d="M128.1 178.541C132.401 178.541 135.887 175.054 135.887 170.753C135.887 166.452 132.401 162.965 128.1 162.965C123.799 162.965 120.312 166.452 120.312 170.753C120.312 175.054 123.799 178.541 128.1 178.541Z" fill="white"/>
<path d="M143.873 197.082L139.063 197.008L137.755 185.853L142.56 185.932L143.873 197.082Z" fill="#DA0916"/>
<path d="M138.938 196.453L144.179 196.533C144.271 196.532 144.361 196.566 144.43 196.628C144.499 196.689 144.543 196.774 144.552 196.867L145.011 201.157C145.02 201.265 145.005 201.374 144.969 201.477C144.933 201.58 144.876 201.674 144.801 201.754C144.727 201.833 144.636 201.896 144.536 201.938C144.436 201.981 144.327 202.002 144.218 202C142.334 201.938 139.612 201.785 137.235 201.751C134.456 201.705 134.727 201.819 131.467 201.751C129.498 201.722 129.204 199.713 130.03 199.549C133.878 198.785 134.263 198.745 137.738 196.793C138.101 196.576 138.515 196.459 138.938 196.453Z" fill="#252536"/>
<path d="M134.241 53.316C132.667 56.6778 130.981 59.8528 129.107 63.0222C128.168 64.5956 127.2 66.1633 126.153 67.7027C125.644 68.4724 125.095 69.2365 124.551 70.0005C124.008 70.7646 123.419 71.5173 122.791 72.2644L122.327 72.8303C122.092 73.1214 121.839 73.3973 121.569 73.6566C121.391 73.8311 121.202 73.9937 121.003 74.1434C120.785 74.3105 120.554 74.46 120.312 74.5905C119.783 74.8841 119.21 75.0887 118.614 75.196C117.532 75.3748 116.421 75.2413 115.411 74.8112C114.717 74.5098 114.067 74.1136 113.481 73.634C112.598 72.9045 111.81 72.0658 111.138 71.1381C110.544 70.3339 109.992 69.4989 109.486 68.6366C108.543 67.0016 107.701 65.3099 106.967 63.5712C106.24 61.8647 105.603 60.121 105.06 58.3474C104.926 57.8905 104.962 57.4009 105.16 56.968C105.357 56.5352 105.705 56.1881 106.137 55.9902C106.57 55.7923 107.06 55.7569 107.517 55.8905C107.974 56.024 108.367 56.3175 108.625 56.7174L108.659 56.7683C110.438 59.702 112.377 62.536 114.466 65.2578C114.955 65.8774 115.476 66.4706 116.028 67.0349C116.47 67.5 116.962 67.9157 117.494 68.2743C117.698 68.3932 117.862 68.4498 117.873 68.4272C117.884 68.4045 117.669 68.297 117.307 68.3366C117.066 68.3777 116.835 68.4662 116.628 68.5969C116.6 68.5969 116.571 68.6365 116.735 68.4102L117.086 67.9065C118.975 65.0805 120.719 62.1601 122.31 59.1567C123.963 56.1231 125.587 52.9764 127.132 49.9259V49.8693C127.592 48.9244 128.409 48.2009 129.402 47.8581C130.396 47.5153 131.485 47.5812 132.43 48.0412C133.374 48.5013 134.098 49.3179 134.441 50.3113C134.784 51.3048 134.718 52.3937 134.258 53.3386L134.241 53.316Z" fill="#DA0916"/>
<path d="M108.812 58.121L107.522 52.767L102.49 54.9347C102.49 54.9347 102.937 59.185 106.452 59.7114L108.812 58.121Z" fill="#252536"/>
<path d="M108.546 56.8024C108.546 56.8024 110.182 58.9077 110.583 59.485C110.017 60.051 106.31 61.9243 106.016 61.7489C105.546 60.4075 104.884 58.6361 104.884 58.6361L108.546 56.8024Z" fill="#252536"/>
<path d="M103.758 49.36L101.907 51.1371C101.761 51.2817 101.657 51.4635 101.606 51.6629C101.555 51.8624 101.559 52.0719 101.619 52.269L102.49 54.912L107.522 52.7444L105.456 49.5467C105.364 49.4137 105.244 49.302 105.105 49.2192C104.966 49.1363 104.81 49.0843 104.649 49.0666C104.489 49.0489 104.326 49.0659 104.172 49.1165C104.018 49.1671 103.877 49.2502 103.758 49.36Z" fill="#252536"/>
<path d="M106.61 55.6138C106.435 54.5272 107.521 51.1201 108.433 50.6334C109.344 50.1467 108.823 52.4954 108.942 53.2877C109.27 55.461 109.384 57.5325 108.269 57.4193C107.154 57.3061 106.893 57.5042 106.61 55.6138Z" fill="#252536"/>
<path opacity="0.2" d="M137.755 185.859L138.429 191.609L143.239 191.682L142.566 185.932L137.755 185.859Z" fill="black"/>
<path d="M130.352 46.8924C139.498 45.7605 148.35 46.983 153.172 47.9168C153.658 48.0119 154.12 48.2027 154.531 48.4781C154.942 48.7535 155.295 49.1081 155.568 49.5211C155.841 49.9341 156.028 50.3972 156.12 50.8836C156.213 51.37 156.207 51.8698 156.104 52.3539C152.516 69.5026 153.076 86.7531 152.776 90.4205L127.059 90.0073C125.298 68.9819 126.408 55.5912 127.087 50.1297C127.193 49.3036 127.572 48.5365 128.164 47.9501C128.755 47.3637 129.525 46.9915 130.352 46.8924Z" fill="#DA0916"/>
<path d="M146.596 34.7694C145.781 38.2274 144.852 44.6002 147.229 47.1244C145.249 48.8788 142.668 50.8823 138.485 50.7182C134.303 50.5541 135.14 47.7469 136.301 46.315C140.262 45.6698 140.262 42.7608 139.696 39.9876L146.596 34.7694Z" fill="#FFB573"/>
<path opacity="0.2" d="M143.777 36.8976L139.68 40.0104C139.825 40.6541 139.914 41.3094 139.946 41.9686C141.451 41.8667 143.568 40.3782 143.788 38.8275C143.903 38.1889 143.899 37.5348 143.777 36.8976Z" fill="black"/>
<path d="M147.762 29.5231C147.156 34.2489 147.048 37.0504 144.485 39.3085C140.636 42.7043 134.914 40.0952 134.088 35.2732C133.346 30.9267 134.456 23.954 139.232 22.3806C140.29 22.0392 141.417 21.9716 142.508 22.1842C143.599 22.3967 144.618 22.8825 145.47 23.596C146.322 24.3095 146.979 25.2275 147.38 26.2641C147.781 27.3007 147.912 28.422 147.762 29.5231Z" fill="#FFB573"/>
<path d="M148.039 33.6263C146.171 34.7582 144.037 34.1923 143.862 33.0037C143.686 31.8152 145.073 29.7608 145.594 28.759C145.447 27.0611 144.247 26.5631 144.462 25.3633C143.064 25.4934 135.44 25.8387 135.622 24.1181C135.803 22.3976 138.825 20.6262 142.413 21.0733C146.001 21.5204 148.35 23.0824 148.01 25.267C150.014 24.9444 150.936 28.3346 148.039 33.6263Z" fill="#252536"/>
<path d="M149.708 34.3507C149.392 34.8533 148.979 35.2882 148.493 35.6301C148.007 35.9721 147.458 36.2143 146.879 36.3429C145.328 36.6768 144.615 35.2675 145.13 33.8526C145.577 32.5736 146.924 30.8644 148.452 31.1643C148.784 31.2336 149.095 31.3845 149.354 31.6034C149.614 31.8224 149.815 32.1024 149.94 32.4185C150.065 32.7345 150.109 33.0765 150.068 33.4138C150.028 33.7511 149.904 34.0731 149.708 34.3507Z" fill="#FFB573"/>
<path d="M141.983 137.729C141.791 113.551 147.139 90.3299 147.139 90.3299L127.093 90.0073C127.093 90.0073 129.396 124.927 130.2 139.557C131.032 154.765 136.527 190.494 136.527 190.494L144.666 190.613C144.666 190.613 143.115 156.813 141.983 137.729Z" fill="#DA0916"/>
<path opacity="0.4" d="M141.983 137.729C141.791 113.551 147.139 90.3299 147.139 90.3299L127.093 90.0073C127.093 90.0073 129.396 124.927 130.2 139.557C131.032 154.765 136.527 190.494 136.527 190.494L144.666 190.613C144.666 190.613 143.115 156.813 141.983 137.729Z" fill="black"/>
<path opacity="0.2" d="M142.764 103.636C137.048 111.457 139.617 126.172 141.96 136.575C142.054 125.105 143.028 113.66 144.875 102.34L142.764 103.636Z" fill="black"/>
<path d="M135.44 187.324L135.967 190.641L144.966 190.794L145.475 187.658L135.44 187.324Z" fill="#252536"/>
<path d="M141.417 30.3154C141.417 30.7003 141.168 31.0002 140.913 30.9776C140.659 30.955 140.478 30.6324 140.506 30.2475C140.534 29.8626 140.755 29.5627 141.01 29.5797C141.264 29.5966 141.462 29.9249 141.417 30.3154Z" fill="#252536"/>
<path d="M136.431 29.755C136.431 30.1455 136.182 30.4398 135.927 30.4228C135.673 30.4058 135.491 30.0719 135.52 29.6871C135.548 29.3022 135.769 29.0023 136.023 29.0192C136.278 29.0362 136.459 29.3701 136.431 29.755Z" fill="#252536"/>
<path d="M137.455 30.0663C136.918 31.2139 136.223 32.2807 135.39 33.2357C135.641 33.4438 135.935 33.5951 136.25 33.6791C136.566 33.7631 136.896 33.7779 137.218 33.7224L137.455 30.0663Z" fill="#ED893E"/>
<path d="M138.791 35.0921C139.226 35.0708 139.652 34.9591 140.042 34.7642C140.432 34.5694 140.777 34.2955 141.055 33.9602C141.073 33.9361 141.081 33.906 141.076 33.8762C141.072 33.8465 141.056 33.8197 141.032 33.8017C141.008 33.7837 140.978 33.7759 140.948 33.7802C140.919 33.7844 140.892 33.8003 140.874 33.8243C140.555 34.1847 140.156 34.464 139.708 34.6392C139.26 34.8143 138.777 34.8804 138.299 34.8317C138.281 34.8279 138.263 34.828 138.246 34.832C138.229 34.836 138.212 34.8439 138.198 34.8551C138.185 34.8662 138.173 34.8803 138.166 34.8963C138.158 34.9124 138.154 34.93 138.154 34.9478C138.154 34.9656 138.158 34.9831 138.166 34.9992C138.173 35.0152 138.185 35.0293 138.198 35.0405C138.212 35.0516 138.229 35.0595 138.246 35.0635C138.263 35.0676 138.281 35.0676 138.299 35.0638C138.462 35.0841 138.626 35.0935 138.791 35.0921Z" fill="#252536"/>
<path d="M142.232 29.0194C142.27 29.0187 142.308 29.0069 142.339 28.9854C142.365 28.9689 142.386 28.9475 142.403 28.9225C142.42 28.8976 142.431 28.8695 142.437 28.84C142.443 28.8105 142.443 28.7801 142.437 28.7507C142.431 28.7212 142.419 28.6933 142.402 28.6685C142.212 28.3589 141.95 28.0996 141.639 27.9124C141.328 27.7253 140.976 27.6158 140.613 27.5931C140.553 27.5931 140.496 27.617 140.453 27.6594C140.411 27.7019 140.387 27.7595 140.387 27.8195C140.387 27.8811 140.411 27.9401 140.455 27.9836C140.498 28.0271 140.557 28.0516 140.619 28.0516C140.905 28.0754 141.18 28.1662 141.424 28.3167C141.668 28.4671 141.873 28.673 142.023 28.9175C142.045 28.9518 142.076 28.9795 142.113 28.9974C142.15 29.0154 142.191 29.0229 142.232 29.0194Z" fill="#252536"/>
<path d="M134.286 27.961C134.322 27.9663 134.36 27.9623 134.394 27.9495C134.429 27.9366 134.46 27.9153 134.484 27.8875C134.664 27.6657 134.895 27.4904 135.157 27.3762C135.419 27.2619 135.704 27.2121 135.989 27.2309C136.049 27.2374 136.109 27.2204 136.157 27.1834C136.204 27.1464 136.236 27.0925 136.244 27.0328C136.248 27.0031 136.246 26.9728 136.238 26.9438C136.23 26.9149 136.217 26.8877 136.198 26.864C136.18 26.8403 136.157 26.8205 136.131 26.8058C136.105 26.791 136.076 26.7817 136.046 26.7782C135.687 26.7515 135.326 26.8111 134.994 26.9518C134.663 27.0926 134.369 27.3105 134.139 27.5875C134.101 27.6334 134.083 27.6924 134.088 27.7518C134.093 27.8111 134.122 27.8659 134.167 27.9044C134.199 27.9363 134.241 27.9563 134.286 27.961Z" fill="#252536"/>
<path d="M169.353 197.082L164.537 197.008L162.556 185.853L167.372 185.932L169.353 197.082Z" fill="#DA0916"/>
<path d="M164.276 196.453L169.517 196.533C169.61 196.533 169.701 196.567 169.771 196.628C169.842 196.689 169.888 196.774 169.902 196.867L170.507 201.157C170.521 201.263 170.512 201.372 170.48 201.475C170.448 201.578 170.394 201.672 170.322 201.752C170.25 201.833 170.161 201.896 170.063 201.939C169.964 201.982 169.857 202.002 169.749 202C167.859 201.938 167.264 201.785 164.887 201.751C162.103 201.705 163.393 201.819 160.128 201.751C158.158 201.722 157.773 199.725 158.611 199.549C161.26 198.983 161.922 197.925 163.088 196.793C163.424 196.529 163.851 196.407 164.276 196.453Z" fill="#252536"/>
<path d="M165.278 196.957C164.446 196.985 163.999 196.957 163.784 196.578C163.569 196.199 162.816 195.095 162.873 194.682C162.929 194.269 166.308 193.929 166.642 194.597C166.976 195.265 166.976 196.912 165.278 196.957Z" fill="#252536"/>
<path d="M138.757 196.957C138.236 196.985 137.959 196.957 137.834 196.578C137.576 195.972 137.397 195.334 137.302 194.682C137.342 194.263 139.464 193.929 139.662 194.597C139.861 195.265 139.815 196.912 138.757 196.957Z" fill="#252536"/>
<path opacity="0.2" d="M162.556 185.859L163.58 191.609L168.396 191.682L167.372 185.932L162.556 185.859Z" fill="black"/>
<path d="M161.118 134.871C158.854 113.093 156.194 95.2538 152.787 90.4205L135.757 90.1488C135.757 90.1488 145.69 124.31 149.516 138.708C153.478 153.678 161.294 189.045 161.294 189.045L169.047 189.152C169.047 189.152 165.838 151.884 161.118 134.871Z" fill="#DA0916"/>
<path opacity="0.4" d="M161.118 134.871C158.854 113.093 156.194 95.2538 152.787 90.4205L135.757 90.1488C135.757 90.1488 145.69 124.31 149.516 138.708C153.478 153.678 161.294 189.045 161.294 189.045L169.047 189.152C169.047 189.152 165.838 151.884 161.118 134.871Z" fill="black"/>
<path d="M160.32 187.324L160.948 190.641L169.653 190.794L170.038 187.658L160.32 187.324Z" fill="#252536"/>
<path d="M141.513 54.2159C141.462 53.0047 140.07 51.3861 139.164 50.7239C145.871 48.8732 147.128 46.4396 147.128 46.4396C147.61 46.5649 148.072 46.7553 148.503 47.0055C148.899 50.7635 144.247 53.35 141.513 54.2159Z" fill="white"/>
<path d="M137.557 50.6278C136.053 51.3277 134.819 52.5004 134.043 53.9669C131.252 48.9865 135.175 46.1114 135.175 46.1114C135.609 45.9888 136.064 45.958 136.51 46.0208C135.757 47.6848 136.623 49.875 137.557 50.6278Z" fill="white"/>
<path d="M177.372 56.3844L134.769 62.972L139.543 93.8462L182.146 87.2585L177.372 56.3844Z" fill="#DA0916"/>
<path opacity="0.9" d="M177.372 56.3844L134.769 62.972L139.543 93.8462L182.146 87.2585L177.372 56.3844Z" fill="white"/>
<path opacity="0.2" d="M177.375 56.3814L155.165 59.8157L159.939 90.6899L182.149 87.2555L177.375 56.3814Z" fill="#DA0916"/>
<path opacity="0.3" d="M146.322 84.0998L140.975 84.9266L141.781 90.1394L147.128 89.3126L146.322 84.0998Z" fill="#DA0916"/>
<path opacity="0.3" d="M145.323 77.6327L139.976 78.4595L140.782 83.6723L146.129 82.8455L145.323 77.6327Z" fill="#DA0916"/>
<path opacity="0.5" d="M148.501 60.8506L140.962 62.0164L141.364 64.6172L148.903 63.4514L148.501 60.8506Z" fill="#DA0916"/>
<path opacity="0.5" d="M172.084 57.1981L166.787 58.0171L167.189 60.6179L172.486 59.7989L172.084 57.1981Z" fill="#DA0916"/>
<path d="M154.564 48.4997C157.83 50.0598 160.979 51.8529 163.988 53.8651C165.567 54.8999 167.079 56.0341 168.515 57.2608C169.302 57.9414 170.043 58.6731 170.734 59.4511C171.129 59.9096 171.494 60.3936 171.826 60.9C172.254 61.5428 172.591 62.2417 172.828 62.977C172.99 63.4754 173.085 63.9931 173.111 64.5165C173.119 64.6068 173.119 64.6977 173.111 64.7881V64.9805V65.371L173.083 66.1521L173.015 66.8822C172.969 67.3689 172.918 67.8556 172.839 68.314C172.76 68.7725 172.709 69.2479 172.618 69.695C172.319 71.5231 171.877 73.2606 171.436 74.9924C170.515 78.4236 169.381 81.7939 168.04 85.0835C167.86 85.5276 167.526 85.8913 167.098 86.1069C166.67 86.3226 166.179 86.3754 165.715 86.2557C165.251 86.1359 164.847 85.8517 164.577 85.4559C164.307 85.0602 164.19 84.5799 164.248 84.1044V84.0591C164.65 80.6633 165.142 77.2336 165.499 73.8718C165.697 72.1739 165.85 70.5156 165.951 68.8913C165.985 68.4838 165.985 68.0933 166.008 67.6915C166.031 67.2897 166.008 66.9048 166.008 66.5256V65.9597V65.439V65.1786V65.0485C166.008 65.0485 166.008 64.9183 166.008 64.9919C166.003 65.0824 166.003 65.173 166.008 65.2635C166.008 65.3258 165.946 65.2013 165.81 65.0485C165.635 64.847 165.445 64.6579 165.244 64.4825C164.747 63.9972 164.219 63.5435 163.665 63.1242C162.465 62.213 161.118 61.3188 159.732 60.4642C156.953 58.7663 153.964 57.1363 151.05 55.5912H151.01C150.105 55.1003 149.427 54.2764 149.119 53.2939C148.811 52.3115 148.897 51.2477 149.36 50.328C149.823 49.4083 150.626 48.7049 151.598 48.3668C152.571 48.0287 153.636 48.0825 154.57 48.5167L154.564 48.4997Z" fill="#DA0916"/>
<path d="M164.661 83.1987L161.775 87.1152L167.253 89.1187C167.253 89.1187 169.438 85.2532 167.57 83.7647L164.661 83.1987Z" fill="#252536"/>
<path d="M162.499 92.1183L164.537 92.4975C164.929 92.5671 165.334 92.4964 165.679 92.2977C166.025 92.0991 166.289 91.7851 166.427 91.4109L167.253 89.147L161.792 87.1152L161.169 90.1205C161.081 90.5618 161.171 91.0201 161.421 91.3947C161.67 91.7693 162.058 92.0296 162.499 92.1183Z" fill="#252536"/>
<path d="M164.186 84.2856C164.186 84.2856 164.287 81.6199 164.355 80.9238C165.153 80.8728 169.194 81.8067 169.296 82.1349C168.798 83.4706 168.164 85.2477 168.164 85.2477L164.186 84.2856Z" fill="#252536"/>
<path d="M150.365 28.6911C147.631 28.3855 136.403 25.6519 135.361 24.5709C135.288 22.4825 136.493 20.3715 137.235 19.8961C139.3 18.5378 143.845 18.4868 145.288 18.8943C146.731 19.3018 150.682 21.311 151.338 23.2466C151.848 24.7803 150.365 28.6911 150.365 28.6911Z" fill="#DA0916"/>
<path d="M139.029 23.92C135.582 23.3824 132.305 23.6201 131.145 25.3632C129.849 27.3101 134.116 24.4181 136.663 25.6632C140.925 27.7572 139.912 28.0855 146.369 27.927C143.047 26.2405 143.024 24.5426 139.029 23.92Z" fill="#DA0916"/>
<path opacity="0.6" d="M139.029 23.92C135.582 23.3824 132.305 23.6201 131.145 25.3632C129.849 27.3101 134.116 24.4181 136.663 25.6632C140.925 27.7572 139.912 28.0855 146.369 27.927C143.047 26.2405 143.024 24.5426 139.029 23.92Z" fill="white"/>
</svg>
