<svg width="310" height="206" viewBox="0 0 310 206" fill="none" xmlns="http://www.w3.org/2000/svg">
<path d="M169.479 38.8309H133.287V178.495H169.479V38.8309Z" fill="#F5F5F5"/>
<path d="M178.196 38.8309H169.479V178.495H178.196V38.8309Z" fill="#E0E0E0"/>
<path d="M156.108 43.4042H138.157V72.4213H156.108V43.4042Z" fill="#EBEBEB"/>
<path d="M163.87 43.4042H145.919V72.4213H163.87V43.4042Z" fill="#E0E0E0"/>
<path d="M156.108 77.0358H138.157V106.053H156.108V77.0358Z" fill="#EBEBEB"/>
<path d="M163.87 77.0358H145.919V106.053H163.87V77.0358Z" fill="#E0E0E0"/>
<path d="M156.108 112.53H138.157V141.547H156.108V112.53Z" fill="#EBEBEB"/>
<path d="M163.87 112.53H145.919V141.547H163.87V112.53Z" fill="#E0E0E0"/>
<path d="M156.476 146.351H138.524V175.368H156.476V146.351Z" fill="#EBEBEB"/>
<path d="M164.238 146.351H146.287V175.368H164.238V146.351Z" fill="#E0E0E0"/>
<path d="M168.413 45.3159H160.758V64.8365H168.413V45.3159Z" fill="white"/>
<path d="M168.413 57.2268H160.758V64.8364H168.413V57.2268Z" fill="#EBEBEB"/>
<path d="M168.413 64.8364C168.409 64.8035 168.409 64.7704 168.413 64.7375C168.413 64.6592 168.413 64.5686 168.413 64.4491C168.413 64.1854 168.413 63.8229 168.413 63.3532C168.413 62.3891 168.413 61.0089 168.388 59.2826C168.388 55.8095 168.359 50.9479 168.338 45.3158L168.442 45.4188H160.762C160.973 45.2046 160.82 45.3653 160.865 45.3199V50.9067C160.865 52.7153 160.865 54.454 160.865 56.1102C160.865 59.4062 160.865 62.3726 160.84 64.8282L160.766 64.754L166.354 64.7952H167.879H168.293H168.433H168.305H167.921H166.412L160.778 64.8364H160.704V64.7622C160.704 62.2902 160.704 59.3485 160.679 56.0443C160.679 54.3963 160.679 52.6494 160.679 50.8407C160.679 49.9398 160.679 49.0211 160.679 48.0845V45.3199C160.729 45.2705 160.572 45.4188 160.791 45.2046H168.516V45.3199C168.495 50.9808 168.479 55.8672 168.466 59.3568C168.466 61.0748 168.446 62.4468 168.437 63.4026C168.437 63.8641 168.437 64.2225 168.437 64.4779C168.437 64.5892 168.437 64.6798 168.437 64.754C168.431 64.782 168.423 64.8095 168.413 64.8364Z" fill="#E0E0E0"/>
<path d="M167.168 51.249C165.424 51.3923 163.672 51.3923 161.927 51.249C163.672 51.1057 165.424 51.1057 167.168 51.249Z" fill="#E0E0E0"/>
<path d="M167.168 52.6086C165.424 52.7519 163.672 52.7519 161.927 52.6086C163.671 52.4598 165.425 52.4598 167.168 52.6086Z" fill="#E0E0E0"/>
<path d="M167.168 53.9723C165.424 54.1156 163.672 54.1156 161.927 53.9723C163.672 53.829 165.424 53.829 167.168 53.9723Z" fill="#E0E0E0"/>
<path d="M164.862 55.3237C163.889 55.467 162.9 55.467 161.927 55.3237C162.9 55.1804 163.889 55.1804 164.862 55.3237Z" fill="#E0E0E0"/>
<path d="M165.052 62.4263V62.8918H164.548V62.4427C164.173 62.4286 163.807 62.3195 163.486 62.1255L163.758 61.5157C164.048 61.6983 164.383 61.7981 164.726 61.8041C165.073 61.8041 165.205 61.7052 165.205 61.5652C165.205 61.0996 163.552 61.4374 163.552 60.3292C163.552 59.8677 163.882 59.4805 164.564 59.3939V58.9572H165.069V59.4063C165.367 59.4263 165.658 59.5106 165.92 59.6535L165.664 60.2715C165.412 60.1274 165.128 60.0495 164.837 60.0449C164.486 60.0449 164.362 60.1603 164.362 60.3086C164.362 60.7577 166.015 60.4198 166.015 61.5034C166.024 61.9442 165.705 62.3315 165.052 62.4263Z" fill="white"/>
<path d="M164.548 38.8309C164.654 39.9083 164.69 40.9914 164.655 42.0734C164.69 43.1554 164.654 44.2385 164.548 45.3158C164.442 44.2385 164.406 43.1554 164.44 42.0734C164.406 40.9914 164.442 39.9083 164.548 38.8309Z" fill="#E0E0E0"/>
<path d="M165.242 48.2369H162.109V49.3123H165.242V48.2369Z" fill="#E0E0E0"/>
<path d="M239.32 139.058C238.777 139.18 238.295 139.489 237.957 139.929C237.62 140.37 237.448 140.915 237.472 141.468C237.572 143.994 237.886 148.415 238.894 151.006C240.362 154.784 240.729 156.251 243.54 156.127C246.351 156.004 285.981 156.127 285.981 156.127C285.981 156.127 289.528 156.251 290.995 151.13C292.462 146.009 295.765 126.138 293.93 122.603C292.094 119.068 284.27 117.968 280.843 118.211C277.417 118.454 271.068 117.469 262.748 127.835L254.547 137.159C249.421 137.284 244.319 137.92 239.32 139.058Z" fill="#F5F5F5"/>
<path d="M266.765 123.534L258.846 145.642H244.168C244.168 145.642 243.011 138.226 240.862 138.745C240.862 138.745 251.608 136.961 254.551 137.159L266.765 123.534Z" fill="#E0E0E0"/>
<path d="M271.688 156.296C271.688 156.296 273.279 154.216 274.011 150.438C274.743 146.66 276.582 138.609 272.85 138.733C272.85 138.733 283.675 139.075 285.874 137.32C288.073 135.564 294.252 123.695 294.252 123.695C294.252 123.695 294.843 128.161 293.925 134.749C293.008 141.337 291.991 148.975 291.011 151.291C290.032 153.606 289.3 156.296 285.998 156.288C282.695 156.28 271.688 156.296 271.688 156.296Z" fill="#EBEBEB"/>
<path d="M244.04 156.148C244.04 156.148 244.768 158.323 249.385 158.323H280.881C280.881 158.323 284.877 158.237 285.998 156.14L244.04 156.148Z" fill="#E0E0E0"/>
<path d="M249.951 157.582L238.291 178.326H239.179L252.46 157.582H249.951Z" fill="#E0E0E0"/>
<path d="M258.937 157.219C258.937 157.503 256.023 178.326 256.023 178.326H256.849L262.111 157.582L258.937 157.219Z" fill="#E0E0E0"/>
<path d="M267.427 157.582C267.348 158.311 270.911 178.326 270.911 178.326H272.043L270.584 157.582H267.427Z" fill="#E0E0E0"/>
<path d="M276.834 157.582L289.949 178.326H291.086L279.992 157.582H276.834Z" fill="#E0E0E0"/>
<path d="M274.011 150.438C274.013 150.398 274.02 150.36 274.032 150.322C274.032 150.236 274.077 150.125 274.11 149.989C274.18 149.684 274.276 149.255 274.4 148.711C274.748 147.144 274.983 145.554 275.102 143.953C275.2 142.849 275.123 141.737 274.875 140.657C274.751 140.065 274.425 139.533 273.953 139.153C273.461 138.774 272.771 138.786 272.126 138.889C271.457 139.016 270.833 139.314 270.316 139.754C269.775 140.222 269.321 140.779 268.972 141.402C268.244 142.724 267.761 144.166 267.546 145.658V145.753H267.133L250.893 145.72L245.975 145.683L244.64 145.663L245.975 145.642L250.893 145.609L267.125 145.576H267.427L267.319 145.671C267.54 144.142 268.039 142.666 268.791 141.316C269.152 140.675 269.625 140.102 270.188 139.627C270.733 139.165 271.39 138.854 272.093 138.724C272.262 138.693 272.434 138.674 272.606 138.667H272.858L273.118 138.687C273.288 138.704 273.456 138.74 273.618 138.795C273.697 138.823 273.771 138.869 273.85 138.906C273.927 138.94 273.999 138.984 274.065 139.038C274.567 139.445 274.914 140.012 275.048 140.644C275.291 141.742 275.361 142.871 275.255 143.99C275.121 145.588 274.862 147.174 274.482 148.732C274.35 149.284 274.234 149.713 274.152 150.001L274.052 150.326C274.043 150.365 274.029 150.402 274.011 150.438Z" fill="#E0E0E0"/>
<path d="M284.754 144.69H277.367V163.531H284.754V144.69Z" fill="white"/>
<path d="M284.754 156.185H277.367V163.531H284.754V156.185Z" fill="#EBEBEB"/>
<path d="M284.754 163.531C284.751 163.498 284.751 163.465 284.754 163.432V163.152C284.754 162.897 284.754 162.542 284.754 162.093C284.754 161.162 284.754 159.831 284.725 158.163C284.725 154.813 284.696 150.116 284.675 144.686L284.778 144.789H277.367C277.582 144.575 277.425 144.731 277.475 144.686V147.418C277.475 148.32 277.475 149.21 277.475 150.083C277.475 151.826 277.475 153.503 277.475 155.101C277.475 158.29 277.475 161.146 277.45 163.519L277.376 163.444L282.749 163.486H284.22H284.609H284.745H284.621H284.249H282.794L277.359 163.527H277.285V163.453C277.285 161.08 277.285 158.224 277.26 155.036C277.26 153.437 277.26 151.76 277.26 150.017V144.62C277.305 144.571 277.148 144.723 277.367 144.509H284.857V144.612C284.857 150.071 284.82 154.788 284.807 158.159C284.807 159.807 284.807 161.141 284.778 162.064C284.778 162.509 284.778 162.855 284.778 163.103C284.778 163.21 284.778 163.296 284.778 163.366C284.778 163.436 284.754 163.531 284.754 163.531Z" fill="#E0E0E0"/>
<path d="M283.547 150.413C281.863 150.557 280.171 150.557 278.487 150.413C280.171 150.27 281.863 150.27 283.547 150.413Z" fill="#E0E0E0"/>
<path d="M283.547 151.723C281.863 151.867 280.171 151.867 278.487 151.723C280.171 151.58 281.863 151.58 283.547 151.723Z" fill="#E0E0E0"/>
<path d="M283.547 153.038C281.863 153.181 280.171 153.181 278.487 153.038C280.171 152.889 281.863 152.889 283.547 153.038Z" fill="#E0E0E0"/>
<path d="M281.327 154.348C280.389 154.491 279.434 154.491 278.496 154.348C279.434 154.205 280.389 154.205 281.327 154.348Z" fill="#E0E0E0"/>
<path d="M281.509 161.203V161.652H281.021V161.22C280.659 161.205 280.306 161.098 279.996 160.911L280.261 160.322C280.541 160.5 280.866 160.596 281.199 160.602C281.53 160.602 281.658 160.507 281.658 160.371C281.658 159.922 280.046 160.247 280.046 159.197C280.046 158.752 280.364 158.373 281.021 158.299V157.854H281.509V158.29C281.798 158.308 282.08 158.388 282.336 158.525L282.087 159.123C281.849 158.985 281.578 158.91 281.302 158.904C280.967 158.904 280.843 159.016 280.843 159.16C280.843 159.592 282.455 159.267 282.455 160.309C282.451 160.738 282.141 161.092 281.509 161.203Z" fill="white"/>
<path d="M281.025 138.432C281.132 139.472 281.168 140.518 281.133 141.563C281.168 142.608 281.132 143.654 281.025 144.694C280.916 143.654 280.881 142.608 280.918 141.563C280.881 140.518 280.916 139.472 281.025 138.432Z" fill="#EBEBEB"/>
<path d="M281.695 147.504H278.669V148.542H281.695V147.504Z" fill="#E0E0E0"/>
<path d="M290.291 27.0647L287.749 27.0612L287.689 70.42L290.231 70.4235L290.291 27.0647Z" fill="#E0E0E0"/>
<path d="M287.744 28.0291L236.412 27.9576L236.354 69.5037L287.686 69.5751L287.744 28.0291Z" fill="white"/>
<path d="M288.66 70.555L235.377 70.4808L235.439 26.9901L288.722 27.0684L288.66 70.555ZM237.328 68.5444L286.713 68.6104L286.771 29.0048L237.386 28.9389L237.328 68.5444Z" fill="#EBEBEB"/>
<path d="M270.482 43.1708L256.094 43.1508L256.079 54.3159L270.467 54.336L270.482 43.1708Z" fill="#E0E0E0"/>
<path d="M283.447 33.2937H276.446V51.1498H283.447V33.2937Z" fill="white"/>
<path d="M283.447 44.187H276.446V51.1457H283.447V44.187Z" fill="#E0E0E0"/>
<path d="M283.443 51.1456C283.441 51.1141 283.441 51.0824 283.443 51.0509V50.7913C283.443 50.5482 283.443 50.2145 283.443 49.786C283.443 48.9044 283.443 47.6395 283.414 46.078C283.414 42.9015 283.385 38.456 283.365 33.306L283.468 33.409H276.445C276.66 33.1907 276.503 33.3514 276.553 33.306V35.8934C276.553 36.7504 276.553 37.5908 276.553 38.419C276.553 40.067 276.553 41.6614 276.553 43.1734C276.553 46.1975 276.553 48.9002 276.528 51.1498L276.454 51.0756L281.558 51.1168H282.955H283.323C283.366 51.1134 283.409 51.1134 283.451 51.1168C283.413 51.1213 283.374 51.1213 283.336 51.1168H282.984H281.604L276.454 51.158H276.379V51.0838C276.379 48.8343 276.379 46.1398 276.355 43.1075C276.355 41.5955 276.355 40.0052 276.355 38.353V33.3019C276.4 33.2525 276.243 33.4008 276.462 33.1907H283.547V33.2937C283.547 38.4684 283.509 42.9386 283.501 46.1316C283.501 47.7013 283.476 48.9538 283.472 49.8396C283.472 50.2516 283.472 50.5812 283.472 50.8202C283.472 50.919 283.472 51.0014 283.472 51.0715C283.472 51.1415 283.447 51.1498 283.443 51.1456Z" fill="#E0E0E0"/>
<path d="M282.307 38.7283C280.712 38.8716 279.107 38.8716 277.512 38.7283C279.107 38.585 280.712 38.585 282.307 38.7283Z" fill="#E0E0E0"/>
<path d="M282.307 39.9643C280.712 40.1076 279.107 40.1076 277.512 39.9643C279.107 39.821 280.712 39.821 282.307 39.9643Z" fill="#E0E0E0"/>
<path d="M282.307 41.2004C280.712 41.3437 279.107 41.3437 277.512 41.2004C279.107 41.0571 280.712 41.0571 282.307 41.2004Z" fill="#E0E0E0"/>
<path d="M280.199 42.4363C279.309 42.5796 278.402 42.5796 277.512 42.4363C278.402 42.293 279.309 42.293 280.199 42.4363Z" fill="#E0E0E0"/>
<path d="M280.368 48.9415V49.3535H279.909V48.9415C279.566 48.925 279.233 48.8245 278.938 48.649L279.186 48.0887C279.452 48.257 279.76 48.3483 280.075 48.3523C280.389 48.3523 280.513 48.2658 280.513 48.134C280.513 47.722 278.983 48.0227 278.983 47.0257C278.983 46.6137 279.285 46.247 279.909 46.1729V45.7609H280.368V46.1729C280.642 46.1886 280.909 46.2661 281.149 46.3995L280.914 46.9598C280.686 46.8316 280.431 46.7609 280.17 46.7538C279.851 46.7538 279.736 46.8609 279.736 46.9969C279.736 47.4089 281.261 47.0999 281.261 48.0845C281.261 48.5007 280.967 48.855 280.368 48.9415Z" fill="white"/>
<path d="M279.909 27.3568C280.018 28.3416 280.054 29.3331 280.017 30.3232C280.054 31.3147 280.018 32.3075 279.909 33.2937C279.803 32.3073 279.767 31.3147 279.802 30.3232C279.767 29.3331 279.803 28.3418 279.909 27.3568Z" fill="#E0E0E0"/>
<path d="M280.546 35.9594H277.681V36.944H280.546V35.9594Z" fill="#E0E0E0"/>
<path d="M196.197 59.81C196.197 59.81 189.931 84.7937 189.646 106.366C189.36 127.938 189.646 166.551 189.646 166.551H214.313V105.447C214.313 86.8125 210.126 70.7074 207.311 59.81H196.197Z" fill="#E0E0E0"/>
<path d="M201.917 166.114H200.83V178.272H201.917V166.114Z" fill="#E0E0E0"/>
<path d="M186.827 178.697H216.843C216.843 178.697 213.371 176.369 201.368 176.369C189.364 176.369 186.827 178.697 186.827 178.697Z" fill="#E0E0E0"/>
<path d="M207.059 66.0353H200.057V83.8914H207.059V66.0353Z" fill="white"/>
<path d="M207.059 76.9286H200.057V83.8873H207.059V76.9286Z" fill="#EBEBEB"/>
<path d="M207.055 83.8873C207.053 83.8571 207.053 83.8269 207.055 83.7967C207.055 83.7267 207.055 83.6401 207.055 83.533C207.055 83.2899 207.055 82.9562 207.055 82.5277C207.055 81.6461 207.055 80.3812 207.026 78.8197C207.026 75.6432 206.997 71.1977 206.981 66.0477L207.08 66.1507H200.053C200.268 65.9365 200.111 66.0931 200.161 66.0477V68.6392C200.161 69.4907 200.161 70.3312 200.161 71.1607C200.161 72.8087 200.161 74.4031 200.161 75.9151C200.161 78.9392 200.161 81.6461 200.136 83.8915L200.062 83.8173L205.17 83.8585H206.563H206.931H207.059C207.059 83.8585 207.026 83.8585 206.948 83.8585H206.592H205.212L200.062 83.8956H199.987V83.8214C199.987 81.576 199.987 78.8774 199.962 75.8451C199.962 74.3331 199.962 72.7427 199.962 71.0906V66.0436C200.012 65.9942 199.855 66.1466 200.07 65.9324H207.163V66.0354C207.163 71.2101 207.13 75.6803 207.117 78.8733C207.117 80.443 207.092 81.6996 207.088 82.5813C207.088 82.9933 207.088 83.3229 207.088 83.5619V83.8132C207.08 83.8626 207.08 83.8915 207.055 83.8873Z" fill="#E0E0E0"/>
<path d="M205.918 71.4576C204.325 71.6009 202.722 71.6009 201.128 71.4576C202.722 71.3143 204.325 71.3143 205.918 71.4576Z" fill="#E0E0E0"/>
<path d="M205.918 72.7019C204.325 72.8452 202.722 72.8452 201.128 72.7019C202.722 72.5586 204.325 72.5586 205.918 72.7019Z" fill="#E0E0E0"/>
<path d="M205.918 73.942C204.325 74.0853 202.722 74.0853 201.128 73.942C202.722 73.7987 204.325 73.7987 205.918 73.942Z" fill="#E0E0E0"/>
<path d="M203.81 75.1862C202.922 75.3295 202.016 75.3295 201.128 75.1862C202.016 75.0429 202.922 75.0429 203.81 75.1862Z" fill="#E0E0E0"/>
<path d="M203.98 81.6831V82.0951H203.521V81.6831C203.178 81.6665 202.845 81.5661 202.55 81.3906L202.798 80.8344C203.064 81.0021 203.372 81.0933 203.686 81.098C204.001 81.098 204.125 81.0074 204.125 80.8797C204.125 80.4677 202.595 80.7643 202.595 79.7673C202.595 79.3553 202.897 78.9927 203.521 78.9144V78.5024H203.98V78.9144C204.254 78.9321 204.52 79.0095 204.761 79.141L204.526 79.7055C204.295 79.5801 204.036 79.5149 203.773 79.516C203.455 79.516 203.36 79.6231 203.36 79.759C203.36 80.171 204.885 79.862 204.885 80.8508C204.873 81.2422 204.6 81.5966 203.98 81.6831Z" fill="white"/>
<path d="M203.525 60.1025C203.632 61.0875 203.668 62.0788 203.633 63.0689C203.667 64.059 203.631 65.0503 203.525 66.0353C203.414 65.0507 203.377 64.0591 203.414 63.0689C203.376 62.0787 203.414 61.0872 203.525 60.1025Z" fill="#EBEBEB"/>
<path d="M204.158 68.7051H201.293V69.6898H204.158V68.7051Z" fill="#E0E0E0"/>
<path d="M294.293 178.664C294.293 178.722 231.549 178.772 154.173 178.772C76.7973 178.772 14.0533 178.722 14.0533 178.664C14.0533 178.606 76.7849 178.557 154.198 178.557C231.611 178.557 294.293 178.602 294.293 178.664Z" fill="#252536"/>
<path d="M187.401 125.38C187.401 125.38 186.273 111.162 175.481 98.0971C164.689 85.0326 154.74 85.5765 154.74 85.5765C154.74 85.5765 165.937 81.3782 177.647 95.3656C189.356 109.353 187.401 125.38 187.401 125.38Z" fill="#455A64"/>
<path d="M184.843 74.4772C184.607 74.0652 185.541 106.115 185.541 106.115L188.021 129.088C188.021 129.088 189.952 112.105 189.551 103.391C189.15 94.6776 186.963 78.008 184.843 74.4772Z" fill="#455A64"/>
<path d="M196.801 74.572C196.801 74.572 191.931 77.5878 190.328 101.039C189.088 119.01 188.286 125.891 188.025 128.136C187.975 128.455 187.975 128.781 188.025 129.1C188.025 129.1 193.936 112.451 195.685 103.445C197.433 94.4386 195.065 81.4194 196.801 74.572Z" fill="#455A64"/>
<path d="M189.092 133.925C189.067 134.51 191.055 126.233 201.397 116.114C211.019 106.696 215.322 106.354 215.322 106.354C215.322 106.354 205.381 107.664 198.71 114.734C192.82 120.976 189.381 127.971 189.092 133.925Z" fill="#455A64"/>
<path d="M187.922 143.215C186.823 139.132 185.599 135.008 183.26 131.482C180.92 127.955 177.291 125.058 173.079 124.576C179.841 129.578 184.764 135.325 187.922 143.215Z" fill="#455A64"/>
<path d="M188.034 127.102C188.034 127.102 186.236 111.215 174.84 106.193C168.487 103.391 159.009 105.085 159.009 105.085C159.009 105.085 170.905 106.654 175.311 109.46C179.717 112.266 188.034 127.102 188.034 127.102Z" fill="#455A64"/>
<path d="M187.653 173.452C187.635 173.386 187.628 173.318 187.633 173.25C187.633 173.094 187.633 172.9 187.633 172.665C187.633 172.117 187.633 171.367 187.608 170.42C187.608 168.426 187.608 165.612 187.608 162.151C187.641 155.147 187.686 145.51 187.736 134.876C187.736 133.544 187.746 132.23 187.765 130.934C187.765 130.283 187.765 129.64 187.765 129.001C187.765 128.668 187.765 128.375 187.798 128.017C187.831 127.658 187.951 127.399 188.005 127.085C188.257 125.849 188.418 124.642 188.662 123.448C188.906 122.253 189.154 121.107 189.394 119.978C189.852 117.717 190.357 115.582 190.716 113.564L191.737 107.944C192.088 106.234 192.266 104.648 192.477 103.297C192.688 101.945 192.849 100.759 192.99 99.7781C193.13 98.7976 193.246 98.1013 193.328 97.5575C193.362 97.3226 193.386 97.1455 193.411 96.9765C193.416 96.9104 193.429 96.8452 193.452 96.7829C193.463 96.8498 193.463 96.9179 193.452 96.9848C193.452 97.1413 193.452 97.3309 193.415 97.5657C193.374 98.0807 193.275 98.8305 193.159 99.7987C193.043 100.767 192.89 101.966 192.717 103.33C192.543 104.693 192.374 106.279 192.043 107.993C191.712 109.707 191.411 111.603 191.055 113.621C190.7 115.64 190.228 117.787 189.77 120.053C189.538 121.182 189.3 122.338 189.055 123.522C188.815 124.696 188.662 125.92 188.41 127.164C188.356 127.469 188.257 127.802 188.207 128.078C188.182 128.385 188.174 128.693 188.182 129.001V130.929C188.182 132.229 188.173 133.543 188.154 134.872C188.054 145.506 187.968 155.13 187.901 162.147C187.848 165.607 187.806 168.421 187.773 170.411C187.753 171.359 187.732 172.109 187.72 172.657C187.72 172.896 187.699 173.069 187.691 173.242C187.685 173.313 187.672 173.383 187.653 173.452Z" fill="#252536"/>
<path d="M190.414 129.104C190.476 129.125 190.27 129.904 189.96 131.164C189.65 132.425 189.257 134.168 188.926 136.108C188.596 138.049 188.373 139.837 188.224 141.126C188.075 142.416 187.984 143.211 187.922 143.211C187.86 143.211 187.848 142.387 187.922 141.098C188.013 139.403 188.2 137.716 188.48 136.042C188.765 134.371 189.156 132.72 189.65 131.098C190.051 129.834 190.361 129.088 190.414 129.104Z" fill="#252536"/>
<path d="M194.506 178.664C196.953 176.48 197.358 172.714 196.503 169.554C195.647 166.394 193.775 163.622 192.212 160.742L183.301 160.68C181.701 163.539 179.784 166.283 178.887 169.431C177.99 172.578 178.341 176.352 180.759 178.569L194.506 178.664Z" fill="#DA0916"/>
<path d="M186.777 87.6365C186.825 87.7688 186.85 87.908 186.852 88.0485C186.885 88.3616 186.926 88.7406 186.976 89.198C187.075 90.195 187.19 91.6411 187.314 93.4292C187.562 97.0054 187.806 101.953 187.976 107.437C188.145 112.921 188.178 117.861 188.108 121.445C188.079 123.242 188.021 124.692 187.963 125.693C187.93 126.15 187.906 126.517 187.881 126.842C187.879 126.982 187.86 127.12 187.823 127.254C187.792 127.119 187.782 126.98 187.794 126.842V125.66C187.794 124.593 187.794 123.159 187.794 121.42C187.794 117.84 187.695 112.892 187.534 107.412C187.372 101.933 187.17 97.0054 187 93.4045C186.922 91.67 186.852 90.2362 186.802 89.1691C186.802 88.7077 186.769 88.3451 186.761 88.0155C186.747 87.8891 186.753 87.7613 186.777 87.6365Z" fill="#252536"/>
<path d="M179.606 101.076C179.813 101.3 179.994 101.547 180.143 101.813C180.47 102.3 180.908 103.025 181.424 103.935C184.103 108.701 186.091 113.821 187.331 119.142C187.567 120.16 187.744 120.992 187.819 121.569C187.894 121.865 187.927 122.17 187.918 122.475C187.852 122.475 187.575 121.239 187.033 119.216C185.639 113.971 183.666 108.896 181.152 104.084C180.213 102.234 179.548 101.113 179.606 101.076Z" fill="#252536"/>
<path d="M174.708 107.334C175.016 107.419 175.305 107.558 175.563 107.746C176.304 108.175 177.011 108.659 177.68 109.192C178.673 109.977 179.613 110.826 180.494 111.734C181.568 112.864 182.501 114.118 183.272 115.471C184.685 117.896 185.937 120.411 187.021 122.998C187.434 123.987 187.757 124.799 187.963 125.363C188.093 125.649 188.186 125.949 188.24 126.257C188.064 126.001 187.918 125.724 187.806 125.433C187.517 124.803 187.157 124.033 186.74 123.126C185.822 121.19 184.566 118.503 182.9 115.71C182.144 114.385 181.24 113.149 180.205 112.027C179.347 111.116 178.438 110.255 177.481 109.448C176.839 108.899 176.169 108.385 175.472 107.907C175.206 107.732 174.95 107.541 174.708 107.334Z" fill="#252536"/>
<path d="M76.8645 93.5938L75.9139 93.5925L75.8912 109.784L76.8419 109.785L76.8645 93.5938Z" fill="#252536"/>
<path d="M75.9135 93.9592L56.7431 93.9325L56.7214 109.448L75.8918 109.475L75.9135 93.9592Z" fill="white"/>
<path d="M76.2517 109.839L56.3539 109.81L56.3787 93.5693L76.2765 93.5982L76.2517 109.839ZM57.0814 109.085L75.5243 109.114L75.545 94.3233L57.102 94.2986L57.0814 109.085Z" fill="#455A64"/>
<path d="M69.6482 99.1911L62.9894 99.1818L62.9822 104.352L69.641 104.362L69.6482 99.1911Z" fill="#E0E0E0"/>
<path d="M119.39 30.5717L116.385 30.5675L116.313 81.7997L119.318 81.8038L119.39 30.5717Z" fill="#252536"/>
<path d="M116.379 31.717L55.7225 31.6326L55.6538 80.7264L116.31 80.8109L116.379 31.717Z" fill="white"/>
<path d="M117.461 81.9592L54.5021 81.8727L54.56 30.488L117.519 30.5787L117.461 81.9592ZM56.8085 79.582L115.163 79.6602L115.229 32.8612L56.8747 32.7788L56.8085 79.582Z" fill="#455A64"/>
<path d="M108.112 38.2933L63.3187 38.231L63.27 72.9914L108.063 73.0537L108.112 38.2933Z" fill="#E0E0E0"/>
<path d="M111.298 37.9246H103.028V59.0231H111.298V37.9246Z" fill="white"/>
<path d="M111.298 50.7996H103.028V59.0231H111.298V50.7996Z" fill="#DA0916"/>
<path d="M111.302 59.0231C111.299 58.9875 111.299 58.9516 111.302 58.916C111.302 58.8336 111.302 58.7347 111.302 58.607C111.302 58.3227 111.302 57.9272 111.302 57.4205C111.302 56.3822 111.302 54.8908 111.274 53.0203C111.274 49.2711 111.245 44.014 111.228 37.9246L111.331 38.0276H103.065C103.276 37.8134 103.123 37.9741 103.172 37.9246V43.9728C103.172 45.9257 103.172 47.8085 103.172 49.5966C103.172 53.1645 103.172 56.3657 103.152 59.019L103.077 58.9449L109.116 58.9861H110.769H111.203H111.356C111.309 58.9898 111.262 58.9898 111.216 58.9861H110.802H109.17L103.09 59.0273H103.011V58.9531C103.011 56.2998 103.011 53.0986 102.99 49.5307C102.99 47.7426 102.99 45.8597 102.99 43.9069V37.9287C103.04 37.8834 102.883 38.0317 103.102 37.8175H111.476V37.9205C111.476 44.0387 111.439 49.3205 111.426 53.0862C111.426 54.9485 111.406 56.4317 111.398 57.4658C111.398 57.9602 111.398 58.3516 111.398 58.6276V58.9243C111.369 58.9603 111.337 58.9934 111.302 59.0231Z" fill="#252536"/>
<path d="M109.947 44.3357C109.006 44.4421 108.058 44.478 107.111 44.4431C106.166 44.4778 105.22 44.4419 104.28 44.3357C105.22 44.2295 106.166 44.1936 107.111 44.2282C108.058 44.1934 109.006 44.2293 109.947 44.3357Z" fill="#252536"/>
<path d="M109.947 45.8025C109.006 45.9113 108.058 45.9472 107.111 45.9099C106.166 45.9471 105.22 45.9112 104.28 45.8025C105.22 45.6963 106.166 45.6604 107.111 45.695C108.058 45.6602 109.006 45.6961 109.947 45.8025Z" fill="#252536"/>
<path d="M109.947 47.2733C109.006 47.3797 108.058 47.4156 107.111 47.3808C106.166 47.4154 105.22 47.3795 104.28 47.2733C105.22 47.1646 106.166 47.1286 107.111 47.1659C108.058 47.1286 109.006 47.1645 109.947 47.2733Z" fill="#252536"/>
<path d="M107.467 48.74C106.413 48.8833 105.346 48.8833 104.292 48.74C105.346 48.5968 106.413 48.5968 107.467 48.74Z" fill="#252536"/>
<path d="M107.669 56.4193V56.9219H107.124V56.444C106.718 56.4271 106.323 56.3096 105.975 56.102L106.268 55.4387C106.582 55.6381 106.946 55.7465 107.318 55.7518C107.69 55.7518 107.835 55.6488 107.835 55.4923C107.835 54.9896 106.028 55.3563 106.028 54.1821C106.028 53.6836 106.388 53.2634 107.124 53.1727V52.6742H107.669V53.148C107.992 53.1672 108.307 53.2573 108.591 53.4117L108.314 54.0791C108.044 53.9262 107.74 53.8427 107.43 53.836C107.053 53.836 106.917 53.9596 106.917 54.1203C106.917 54.6024 108.719 54.2398 108.719 55.4099C108.707 55.896 108.376 56.3122 107.669 56.4193Z" fill="white"/>
<path d="M107.124 30.9C107.186 30.9 107.231 32.9312 107.231 35.432C107.231 37.9329 107.186 39.964 107.124 39.964C107.062 39.964 107.016 37.9329 107.016 35.432C107.016 32.9312 107.053 30.9 107.124 30.9Z" fill="#252536"/>
<path d="M107.876 41.0806H104.491V42.2424H107.876V41.0806Z" fill="#252536"/>
<path d="M297.555 158.113H246.359V162.654H297.555V158.113Z" fill="#455A64"/>
<path d="M254.671 161.133L243.507 179.01H246.347L264.413 161.133H254.671Z" fill="#455A64"/>
<path d="M288.168 161.133L299.332 179.01H296.492L278.425 161.133H288.168Z" fill="#455A64"/>
<path d="M275.524 121.145H274.003V157.363H275.524V121.145Z" fill="#252536"/>
<path d="M265.988 158.076L274.003 156.259H275.524L284.411 158.076H265.988Z" fill="#252536"/>
<path d="M266.187 108.599L256.953 124.886H292.781L283.646 108.599H266.187Z" fill="#E0E0E0"/>
<path d="M266.187 108.599H266.493H267.406L270.899 108.574L283.646 108.533H283.695L283.72 108.578L292.871 124.836L292.958 124.993H283.571L256.953 124.972H256.804L256.874 124.844L263.645 112.991L265.521 109.728L266.013 108.879L266.187 108.599C266.187 108.599 266.137 108.706 266.03 108.904C265.922 109.102 265.757 109.398 265.55 109.773L263.707 113.069L257.027 124.931L256.953 124.799L283.571 124.778H292.781L292.69 124.935L283.571 108.636L283.646 108.677L270.936 108.64L267.427 108.616H266.509L266.187 108.599Z" fill="#252536"/>
<path d="M285.708 128.503H279.942V143.215H285.708V128.503Z" fill="white"/>
<path d="M285.708 137.476H279.942V143.211H285.708V137.476Z" fill="#DA0916"/>
<path d="M285.713 143.211C285.708 143.114 285.708 143.016 285.713 142.919C285.713 142.713 285.713 142.438 285.713 142.095C285.713 141.357 285.713 140.319 285.684 139.021C285.684 136.401 285.655 132.742 285.634 128.507L285.737 128.61H279.951C280.162 128.396 280.009 128.552 280.054 128.507V132.718C280.054 134.077 280.054 135.391 280.054 136.636C280.054 139.108 280.054 141.353 280.029 143.228L279.955 143.154L284.163 143.195L285.312 143.215H285.618H285.725C285.725 143.215 285.696 143.215 285.63 143.215H285.341L284.208 143.236L279.955 143.277H279.88V143.199C279.88 141.345 279.88 139.116 279.86 136.607C279.86 135.371 279.86 134.048 279.86 132.689V130.629C279.86 130.274 279.86 129.92 279.86 129.562V128.495C279.909 128.445 279.752 128.598 279.971 128.383H285.841V128.486C285.841 132.751 285.804 136.434 285.791 139.071C285.791 140.36 285.791 141.39 285.762 142.119C285.762 142.457 285.762 142.725 285.762 142.943C285.752 143.034 285.735 143.123 285.713 143.211Z" fill="#252536"/>
<path d="M284.787 132.973C283.475 133.117 282.151 133.117 280.839 132.973C282.151 132.83 283.475 132.83 284.787 132.973Z" fill="#252536"/>
<path d="M284.787 133.995C283.475 134.138 282.151 134.138 280.839 133.995C282.151 133.852 283.475 133.852 284.787 133.995Z" fill="#252536"/>
<path d="M284.787 135.021C283.475 135.164 282.151 135.164 280.839 135.021C282.151 134.872 283.475 134.872 284.787 135.021Z" fill="#252536"/>
<path d="M283.038 136.043C282.679 136.148 282.303 136.184 281.931 136.15C281.559 136.185 281.185 136.148 280.827 136.043C281.185 135.938 281.559 135.901 281.931 135.935C282.303 135.901 282.679 135.938 283.038 136.043Z" fill="#252536"/>
<path d="M283.179 141.398V141.749H282.799V141.411C282.515 141.397 282.24 141.313 281.997 141.168L282.203 140.71C282.423 140.847 282.676 140.921 282.935 140.925C283.195 140.925 283.295 140.855 283.295 140.747C283.295 140.397 282.055 140.653 282.055 139.833C282.055 139.483 282.307 139.19 282.819 139.128V138.782H283.199V139.12C283.424 139.135 283.642 139.199 283.84 139.305L283.65 139.771C283.462 139.664 283.25 139.606 283.034 139.602C282.774 139.602 282.679 139.689 282.679 139.8C282.679 140.138 283.919 139.886 283.919 140.698C283.915 141.032 283.671 141.316 283.179 141.398Z" fill="white"/>
<path d="M282.798 123.6C282.942 125.227 282.942 126.863 282.798 128.49C282.655 126.863 282.655 125.227 282.798 123.6Z" fill="#252536"/>
<path d="M283.323 130.703H280.963V131.515H283.323V130.703Z" fill="#252536"/>
<path d="M297.53 162.691C297.53 162.749 286.08 162.798 271.957 162.798C257.833 162.798 246.38 162.749 246.38 162.691C246.38 162.633 257.829 162.583 271.957 162.583C286.085 162.583 297.53 162.633 297.53 162.691Z" fill="#252536"/>
<path d="M296.844 162.04H291.776V174.968H296.844V162.04Z" fill="white"/>
<path d="M296.844 169.925H291.776V174.964H296.844V169.925Z" fill="#DA0916"/>
<path d="M296.844 174.964C296.839 174.878 296.839 174.791 296.844 174.704C296.844 174.519 296.844 174.292 296.844 173.975C296.844 173.324 296.844 172.41 296.815 171.273C296.815 168.969 296.786 165.756 296.765 162.04L296.868 162.143H291.776C291.991 161.924 291.838 162.085 291.884 162.035V165.743C291.884 166.938 291.884 168.092 291.884 169.188C291.884 171.371 291.884 173.308 291.859 174.956L291.784 174.882L295.475 174.923H296.488H296.757H296.852C296.74 174.931 296.629 174.931 296.517 174.923H295.521L291.801 174.964H291.727V174.89C291.727 173.242 291.727 171.301 291.702 169.122C291.702 168.026 291.702 166.872 291.702 165.678C291.702 165.076 291.702 164.466 291.702 163.848V161.974L291.809 161.867H296.984V161.97C296.984 165.715 296.951 168.949 296.939 171.273C296.939 172.401 296.914 173.308 296.91 173.951C296.91 174.247 296.91 174.482 296.91 174.659C296.906 174.764 296.884 174.867 296.844 174.964Z" fill="#252536"/>
<path d="M296.021 165.966C294.87 166.109 293.705 166.109 292.553 165.966C293.705 165.823 294.87 165.823 296.021 165.966Z" fill="#252536"/>
<path d="M296.021 166.86C294.87 167.004 293.705 167.004 292.553 166.86C293.705 166.717 294.87 166.717 296.021 166.86Z" fill="#252536"/>
<path d="M296.021 167.763C294.87 167.911 293.704 167.911 292.553 167.763C293.705 167.619 294.87 167.619 296.021 167.763Z" fill="#252536"/>
<path d="M294.496 168.665C293.856 168.808 293.193 168.808 292.553 168.665C293.193 168.522 293.856 168.522 294.496 168.665Z" fill="#252536"/>
<path d="M294.62 173.37V173.675H294.293V173.378C294.045 173.369 293.803 173.297 293.591 173.168L293.773 172.756C293.964 172.879 294.186 172.944 294.413 172.945C294.641 172.945 294.732 172.884 294.732 172.789C294.732 172.48 293.624 172.706 293.624 171.965C293.624 171.66 293.843 171.4 294.293 171.347V171.042H294.628V171.392C294.825 171.404 295.017 171.458 295.19 171.553L295.021 171.965C294.857 171.872 294.672 171.821 294.484 171.816C294.252 171.816 294.169 171.895 294.169 171.989C294.169 172.286 295.273 172.064 295.273 172.781C295.265 173.04 295.054 173.304 294.62 173.37Z" fill="white"/>
<path d="M294.293 158.113C294.437 159.418 294.437 160.735 294.293 162.04C294.15 160.735 294.15 159.418 294.293 158.113Z" fill="#252536"/>
<path d="M294.748 163.972H292.673V164.685H294.748V163.972Z" fill="#252536"/>
<path d="M149.391 157.742L138.446 178.532H140.141L153.81 159.543L149.391 157.742Z" fill="#252536"/>
<path d="M166.474 159.234L162.8 178.45H164.494L171.343 159.234H166.474Z" fill="#252536"/>
<path d="M163.816 146.61L202.744 139.907C203.503 139.773 204.286 139.928 204.936 140.341C205.586 140.755 206.056 141.397 206.253 142.14L164.527 149.342L163.816 146.61Z" fill="#252536"/>
<path d="M193.982 144.27L207.258 178.68H209.692L198.908 143.421L193.982 144.27Z" fill="#252536"/>
<path d="M130.679 111.009C129.994 111.376 129.466 111.978 129.193 112.704C128.92 113.431 128.921 114.231 129.196 114.956C132.151 122.727 141.137 146.198 144.708 155.526C145.146 156.67 145.92 157.656 146.929 158.355C147.937 159.054 149.134 159.433 150.362 159.444C157.683 159.518 172.757 159.642 180.052 159.489C181.181 159.467 182.257 159.003 183.047 158.199C183.838 157.395 184.281 156.314 184.281 155.188C184.28 154.595 184.157 154.009 183.918 153.466C183.68 152.923 183.331 152.434 182.895 152.032C182.458 151.629 181.943 151.321 181.381 151.126C180.82 150.931 180.224 150.854 179.631 150.899L155.686 152.852C154.502 152.948 153.318 152.664 152.307 152.043C151.296 151.421 150.51 150.493 150.065 149.395L135.16 112.558C134.984 112.152 134.725 111.787 134.4 111.486C134.075 111.184 133.69 110.953 133.271 110.808C132.852 110.662 132.407 110.605 131.965 110.64C131.522 110.674 131.091 110.8 130.7 111.009H130.679Z" fill="#DA0916"/>
<path d="M180.213 150.903H205.795C206.738 150.903 207.644 151.277 208.311 151.942C208.978 152.607 209.353 153.51 209.353 154.451V156.016C209.353 156.957 208.978 157.859 208.311 158.524C207.644 159.19 206.738 159.563 205.795 159.563H180.213V150.911V150.903Z" fill="#DA0916"/>
<path d="M131.762 110.63H156.699C157.296 110.631 157.881 110.803 158.383 111.126C158.885 111.449 159.283 111.909 159.53 112.451L177.072 151.113L156.653 155.612L148.573 152.881L131.762 110.63Z" fill="#DA0916"/>
<g opacity="0.3">
<path d="M130.679 111.009C129.994 111.376 129.466 111.978 129.193 112.704C128.92 113.431 128.921 114.231 129.196 114.956C132.151 122.727 141.137 146.198 144.708 155.526C145.146 156.67 145.92 157.656 146.929 158.355C147.937 159.054 149.134 159.433 150.362 159.444C157.683 159.518 172.757 159.642 180.052 159.489C181.181 159.467 182.257 159.003 183.047 158.199C183.838 157.395 184.281 156.314 184.281 155.188C184.28 154.595 184.157 154.009 183.918 153.466C183.68 152.923 183.331 152.434 182.895 152.032C182.458 151.629 181.943 151.321 181.381 151.126C180.82 150.931 180.224 150.854 179.631 150.899L155.686 152.852C154.502 152.948 153.318 152.664 152.307 152.043C151.296 151.421 150.51 150.493 150.065 149.395L135.16 112.558C134.984 112.152 134.725 111.787 134.4 111.486C134.075 111.184 133.69 110.953 133.271 110.808C132.852 110.662 132.407 110.605 131.965 110.64C131.522 110.674 131.091 110.8 130.7 111.009H130.679Z" fill="black"/>
</g>
<path d="M139.215 146.61L178.147 139.907C178.907 139.777 179.688 139.936 180.337 140.352C180.985 140.769 181.453 141.413 181.648 142.156L139.926 149.342L139.215 146.61Z" fill="#252536"/>
<path d="M169.38 144.27L182.656 178.68H185.091L174.307 143.421L169.38 144.27Z" fill="#252536"/>
<path d="M160.489 149.783H154.723V164.495H160.489V149.783Z" fill="white"/>
<path d="M160.489 158.756H154.723V164.491H160.489V158.756Z" fill="#DA0916"/>
<path d="M160.489 164.495C160.489 164.495 160.489 164.388 160.489 164.198C160.489 164.009 160.489 163.716 160.489 163.374C160.489 162.641 160.489 161.599 160.46 160.301C160.46 157.681 160.431 154.022 160.411 149.787L160.514 149.89H154.723C154.938 149.675 154.785 149.832 154.831 149.787V153.997C154.831 155.357 154.831 156.671 154.831 157.915C154.831 160.387 154.831 162.633 154.806 164.507L154.731 164.429L158.935 164.47L160.088 164.491H160.39C160.425 164.485 160.462 164.485 160.497 164.491H160.406H160.117H158.98L154.731 164.532H154.657V164.458C154.657 162.6 154.657 160.371 154.632 157.866C154.632 156.63 154.632 155.307 154.632 153.948C154.632 153.268 154.632 152.572 154.632 151.888V149.754C154.682 149.704 154.525 149.857 154.74 149.642H160.613V149.745C160.613 154.01 160.58 157.693 160.568 160.33C160.568 161.619 160.543 162.649 160.539 163.379C160.539 163.716 160.539 163.988 160.539 164.203C160.534 164.302 160.518 164.4 160.489 164.495Z" fill="#252536"/>
<path d="M159.547 154.253C158.233 154.396 156.908 154.396 155.595 154.253C156.908 154.11 158.233 154.11 159.547 154.253Z" fill="#252536"/>
<path d="M159.547 155.275C158.233 155.418 156.908 155.418 155.595 155.275C156.908 155.132 158.233 155.132 159.547 155.275Z" fill="#252536"/>
<path d="M159.547 156.301C158.233 156.444 156.908 156.444 155.595 156.301C156.908 156.152 158.234 156.152 159.547 156.301Z" fill="#252536"/>
<path d="M157.815 157.323C157.457 157.428 157.083 157.464 156.711 157.43C156.339 157.464 155.963 157.428 155.604 157.323C155.963 157.218 156.339 157.181 156.711 157.215C157.083 157.181 157.457 157.217 157.815 157.323Z" fill="#252536"/>
<path d="M157.96 162.678V163.028H157.579V162.691C157.296 162.677 157.02 162.594 156.777 162.447L156.984 161.99C157.203 162.128 157.457 162.202 157.716 162.204C157.972 162.204 158.075 162.134 158.075 162.027C158.075 161.677 156.815 161.932 156.815 161.113C156.815 160.762 157.067 160.47 157.579 160.408V160.062H157.96V160.4C158.184 160.416 158.402 160.479 158.6 160.585L158.406 161.051C158.219 160.946 158.009 160.888 157.794 160.882C157.53 160.882 157.435 160.968 157.435 161.08C157.435 161.417 158.675 161.166 158.675 161.978C158.691 162.328 158.451 162.604 157.96 162.678Z" fill="white"/>
<path d="M157.579 144.892C157.722 146.519 157.722 148.156 157.579 149.783C157.436 148.156 157.436 146.519 157.579 144.892Z" fill="#252536"/>
<path d="M158.1 151.983H155.74V152.794H158.1V151.983Z" fill="#252536"/>
<path d="M51.7162 178.627L58.5114 163.498H62.6985L52.9025 178.627H51.7162Z" fill="#252536"/>
<path d="M119.453 130.377C118.498 125.569 115.87 124.259 112.286 122.591C108.702 120.922 110.257 117.115 110.257 117.115H108.165C108.165 117.115 109.719 120.926 106.136 122.591C102.552 124.255 99.9357 125.569 98.9685 130.377C98.0013 135.185 100.523 141.629 100.523 141.629L109.203 141.522L117.883 141.629C117.883 141.629 120.416 135.185 119.453 130.377Z" fill="#DA0916"/>
<path d="M93.1694 118.178H125.889L117.622 99.226H100.312L93.1694 118.178Z" fill="#E0E0E0"/>
<path d="M138.334 163.753H53.9235H45.6403V141.629H138.334V163.753Z" fill="#455A64"/>
<path d="M137.012 162.159C137.012 162.159 137.012 162.04 137.012 161.817C137.012 161.595 137.012 161.257 137.012 160.828C137.012 159.955 137.012 158.682 136.991 157.046C136.991 153.75 136.966 149.033 136.95 143.182L137.028 143.261L92.4668 143.29L92.5743 143.182C92.5743 149.84 92.5743 156.255 92.5743 162.159L92.471 162.056L124.426 162.106L133.689 162.134H136.169H136.813H136.181H133.722L124.484 162.163L92.4586 162.213H92.3552V162.11C92.3552 156.206 92.3552 149.791 92.3552 143.133V143.026H92.4668L137.028 143.059H137.103V143.133C137.103 149 137.074 153.75 137.061 157.042C137.061 158.69 137.061 159.926 137.061 160.808C137.061 161.22 137.061 161.558 137.061 161.784C137.061 162.011 137.012 162.159 137.012 162.159Z" fill="#252536"/>
<path d="M116.341 152.613C116.34 152.889 116.257 153.159 116.103 153.388C115.948 153.617 115.729 153.795 115.473 153.9C115.217 154.006 114.935 154.033 114.664 153.978C114.392 153.924 114.143 153.791 113.947 153.595C113.752 153.4 113.619 153.151 113.565 152.88C113.511 152.609 113.539 152.328 113.646 152.073C113.752 151.819 113.931 151.601 114.162 151.447C114.392 151.294 114.663 151.212 114.94 151.212C115.124 151.212 115.307 151.248 115.477 151.319C115.647 151.389 115.802 151.493 115.932 151.623C116.062 151.753 116.165 151.907 116.235 152.077C116.306 152.247 116.341 152.429 116.341 152.613Z" fill="#E0E0E0"/>
<path d="M91.7062 162.159C91.7062 162.159 91.7062 162.04 91.7062 161.817C91.7062 161.595 91.7062 161.257 91.7062 160.828C91.7062 159.955 91.7062 158.682 91.7062 157.046C91.7062 153.75 91.6814 149.033 91.6649 143.182L91.7393 143.261L47.1778 143.29L47.2853 143.182C47.2853 149.84 47.2853 156.255 47.2853 162.159L47.1861 162.056L79.1409 162.106L88.4037 162.134H90.8837H91.5285H91.7475H91.5409H90.9085H88.4285L79.1905 162.163L47.1654 162.213H47.0621V162.11C47.0621 156.206 47.0621 149.791 47.0621 143.133V143.026H47.1695L91.731 143.059H91.8095V143.133C91.8095 149 91.7765 153.75 91.7682 157.042C91.7682 158.69 91.7682 159.926 91.7475 160.808C91.7475 161.22 91.7475 161.558 91.7475 161.784C91.7475 162.011 91.7062 162.159 91.7062 162.159Z" fill="#252536"/>
<path d="M71.0395 152.613C71.0395 152.89 70.957 153.161 70.8024 153.392C70.6478 153.622 70.4281 153.802 70.1711 153.908C69.914 154.013 69.6312 154.041 69.3585 153.987C69.0858 153.932 68.8354 153.798 68.639 153.602C68.4427 153.406 68.3091 153.156 68.2554 152.884C68.2016 152.612 68.2301 152.33 68.3371 152.074C68.4441 151.818 68.6248 151.6 68.8565 151.446C69.0881 151.293 69.3602 151.211 69.6383 151.212C69.8227 151.212 70.0053 151.248 70.1755 151.319C70.3458 151.389 70.5004 151.493 70.6306 151.623C70.7608 151.753 70.8639 151.907 70.9341 152.077C71.0043 152.247 71.0401 152.429 71.0395 152.613Z" fill="#E0E0E0"/>
<path d="M60.1193 140.393V137.633H64.0749V140.628L60.1193 140.393Z" fill="#E0E0E0"/>
<path d="M66.6086 127.378V140.945H73.8089V127.378H66.6086Z" fill="#E0E0E0"/>
<path d="M81.0092 131.795H76.1029V140.315H81.0092V131.795Z" fill="#E0E0E0"/>
<path d="M55.1303 139.998L56.4778 141.889H85.8368L86.9446 139.998H55.1303Z" fill="#252536"/>
<path d="M116.746 103H111.306V116.872H116.746V103Z" fill="white"/>
<path d="M116.746 111.462H111.306V116.872H116.746V111.462Z" fill="#DA0916"/>
<path d="M116.746 116.872C116.741 116.779 116.741 116.685 116.746 116.592C116.746 116.398 116.746 116.139 116.746 115.809C116.746 115.117 116.746 114.136 116.717 112.925C116.717 110.453 116.688 107.005 116.667 103.012L116.771 103.115H111.306C111.521 102.901 111.368 103.058 111.414 103.012V106.98C111.414 108.261 111.414 109.497 111.414 110.688C111.414 113.032 111.414 115.133 111.389 116.868L111.315 116.794L115.279 116.835H116.366H116.651H116.754C116.754 116.835 116.634 116.835 116.395 116.835H115.324L111.315 116.876H111.24V116.802C111.24 115.051 111.24 112.95 111.216 110.622C111.216 109.444 111.216 108.208 111.216 106.914C111.216 106.271 111.216 105.616 111.216 104.953V103C111.265 102.951 111.108 103.103 111.323 102.889H116.849V103C116.829 107.017 116.812 110.494 116.8 112.983C116.8 114.194 116.779 115.166 116.771 115.867C116.771 116.184 116.771 116.435 116.771 116.625C116.768 116.708 116.76 116.79 116.746 116.872Z" fill="#252536"/>
<path d="M115.861 107.215C114.626 107.358 113.377 107.358 112.141 107.215C113.377 107.072 114.626 107.072 115.861 107.215Z" fill="#252536"/>
<path d="M115.861 108.179C114.626 108.322 113.377 108.322 112.141 108.179C113.377 108.036 114.626 108.036 115.861 108.179Z" fill="#252536"/>
<path d="M115.861 109.143C114.626 109.286 113.377 109.286 112.141 109.143C113.377 109 114.626 109 115.861 109.143Z" fill="#252536"/>
<path d="M114.225 110.111C113.536 110.255 112.826 110.255 112.137 110.111C112.826 109.968 113.536 109.968 114.225 110.111Z" fill="#252536"/>
<path d="M114.357 115.158V115.488H113.997V115.17C113.735 115.158 113.479 115.082 113.253 114.948L113.448 114.511C113.654 114.643 113.893 114.714 114.138 114.717C114.382 114.717 114.477 114.651 114.477 114.548C114.477 114.219 113.29 114.462 113.29 113.687C113.29 113.362 113.526 113.082 114.01 113.024V112.698H114.369V113.02C114.581 113.032 114.787 113.091 114.973 113.193L114.791 113.63C114.614 113.53 114.415 113.474 114.212 113.469C113.964 113.469 113.877 113.551 113.877 113.658C113.877 113.976 115.06 113.737 115.06 114.503C115.047 114.816 114.82 115.088 114.357 115.158Z" fill="white"/>
<path d="M114.001 98.3897C114.108 99.1525 114.144 99.9234 114.109 100.693C114.143 101.464 114.108 102.236 114.001 103C113.893 102.236 113.857 101.464 113.894 100.693C113.857 99.9234 113.893 99.1523 114.001 98.3897Z" fill="#252536"/>
<path d="M114.493 105.072H112.265V105.839H114.493V105.072Z" fill="#252536"/>
<path d="M125.252 163.753L134.18 178.726H135.205L128.493 163.753H125.252Z" fill="#252536"/>
<path d="M132.949 146.112H127.509V159.984H132.949V146.112Z" fill="white"/>
<path d="M132.949 154.574H127.509V159.984H132.949V154.574Z" fill="#DA0916"/>
<path d="M132.949 159.984C132.944 159.89 132.944 159.797 132.949 159.704C132.949 159.51 132.949 159.25 132.949 158.921C132.949 158.224 132.949 157.248 132.92 156.037C132.92 153.565 132.891 150.112 132.87 146.124L132.973 146.227H127.509L127.617 146.12V150.092C127.617 151.377 127.617 152.613 127.617 153.8C127.617 156.148 127.617 158.249 127.592 160L127.517 159.926L131.481 159.963H132.568H132.854C132.888 159.957 132.923 159.957 132.957 159.963C132.957 159.963 132.837 159.963 132.597 159.963L131.527 159.984L127.517 160.025H127.443V159.951C127.443 158.2 127.443 156.099 127.418 153.75C127.418 152.576 127.418 151.34 127.418 150.042C127.418 149.404 127.418 148.748 127.418 148.085V146.07L127.526 145.963H133.052V146.066C133.052 150.083 133.015 153.556 133.002 156.049C133.002 157.26 133.002 158.233 132.973 158.933C132.973 159.254 132.973 159.506 132.973 159.695C132.973 159.792 132.964 159.888 132.949 159.984Z" fill="#252536"/>
<path d="M132.064 150.327C130.828 150.47 129.58 150.47 128.344 150.327C129.58 150.178 130.829 150.178 132.064 150.327Z" fill="#252536"/>
<path d="M132.064 151.291C130.828 151.434 129.58 151.434 128.344 151.291C129.58 151.148 130.828 151.148 132.064 151.291Z" fill="#252536"/>
<path d="M132.064 152.255C130.828 152.398 129.58 152.398 128.344 152.255C129.58 152.112 130.828 152.112 132.064 152.255Z" fill="#252536"/>
<path d="M130.427 153.219C129.739 153.362 129.028 153.362 128.34 153.219C129.028 153.076 129.739 153.076 130.427 153.219Z" fill="#252536"/>
<path d="M130.56 158.27V158.599H130.2V158.282C129.933 158.271 129.673 158.193 129.444 158.056L129.638 157.619C129.844 157.75 130.083 157.822 130.328 157.825C130.572 157.825 130.667 157.759 130.667 157.656C130.667 157.326 129.481 157.565 129.481 156.795C129.481 156.465 129.716 156.189 130.2 156.131V155.802H130.56V156.123C130.771 156.138 130.977 156.199 131.163 156.3L130.981 156.737C130.804 156.637 130.606 156.582 130.402 156.576C130.154 156.576 130.068 156.659 130.068 156.766C130.068 157.083 131.25 156.844 131.25 157.611C131.25 157.928 131.027 158.208 130.56 158.27Z" fill="white"/>
<path d="M130.2 141.501C130.343 143.035 130.343 144.578 130.2 146.112C130.057 144.578 130.057 143.035 130.2 141.501Z" fill="#252536"/>
<path d="M130.696 148.184H128.468V148.95H130.696V148.184Z" fill="#252536"/>
<path d="M41.8459 134.695H28.859H17.1368V57.7995H41.8459V134.695Z" fill="#EBEBEB"/>
<path d="M41.8459 134.695C41.8459 134.695 41.8459 134.563 41.8459 134.312C41.8459 134.061 41.8459 133.682 41.8459 133.191C41.8459 132.207 41.8459 130.756 41.8459 128.878C41.8459 125.116 41.8459 119.649 41.817 112.81C41.817 99.1231 41.788 79.9115 41.7674 57.8118L41.8707 57.9148H17.1368L17.2443 57.8077C17.2443 88.7324 17.2154 116.419 17.2071 134.703L17.1368 134.633L35.3028 134.666L40.1595 134.687H35.307L17.1203 134.724H17.05V134.654C17.05 116.369 17.0252 88.683 17.0128 57.7583V57.68H41.9327V57.783C41.9327 79.9115 41.8996 99.1478 41.8872 112.855C41.8872 119.694 41.8624 125.153 41.8583 128.923C41.8583 130.794 41.8583 132.219 41.8583 133.216C41.8583 133.702 41.8583 134.073 41.8583 134.324C41.8583 134.576 41.8459 134.695 41.8459 134.695Z" fill="#252536"/>
<path d="M30.4173 134.695H28.859V142.082H30.4173V134.695Z" fill="#455A64"/>
<path d="M11.6436 178.627L28.1108 140.888H29.4913L12.3504 178.627H11.6436Z" fill="#455A64"/>
<path d="M47.4879 178.627L31.0207 140.888H29.6401L46.7811 178.627H47.4879Z" fill="#455A64"/>
<path d="M28.859 139.746V178.627H29.6402L30.4173 139.305L28.859 139.746Z" fill="#455A64"/>
<path d="M41.9947 133.303L29.4914 94.6323L17.2856 134.918" fill="#E0E0E0"/>
<path d="M17.2856 134.918C17.2856 134.918 17.2856 134.848 17.3352 134.712L17.5088 134.106L18.1867 131.795C18.7902 129.78 19.654 126.88 20.7246 123.299C22.8904 116.126 25.8788 106.23 29.1772 95.2832C29.2475 95.0443 29.3219 94.8053 29.388 94.5828L29.4872 94.2532L29.5947 94.5828C33.046 105.295 36.1584 114.964 38.4152 121.964C39.5271 125.458 40.4282 128.28 41.0564 130.246C41.3582 131.214 41.5979 131.972 41.7632 132.495C41.8376 132.746 41.8996 132.944 41.941 133.084C41.9823 133.224 41.9947 133.286 41.9947 133.286C41.9947 133.286 41.9658 133.22 41.9203 133.088L41.7219 132.507C41.5483 131.988 41.3086 131.234 40.9779 130.27C40.3331 128.313 39.4114 125.495 38.2706 122.01L29.388 94.6652H29.5947L29.3839 95.3656L20.8692 123.349C19.7739 126.921 18.8852 129.813 18.2652 131.824C17.9594 132.816 17.7155 133.587 17.5502 134.122C17.4675 134.378 17.4014 134.576 17.3559 134.72C17.3104 134.864 17.2856 134.918 17.2856 134.918Z" fill="#252536"/>
<path d="M41.8459 57.7995C41.8317 57.865 41.8137 57.9297 41.7922 57.9931C41.7508 58.1291 41.693 58.3145 41.6144 58.5535C41.4532 59.0561 41.2011 59.7895 40.9159 60.7082C40.2959 62.5828 39.4031 65.2814 38.2995 68.6104L29.5947 94.6653C29.1814 94.6653 29.479 94.6653 29.3839 94.6653V94.6364V94.5787L29.3426 94.4593L29.264 94.2203L29.1028 93.7465C28.9995 93.4293 28.892 93.1161 28.7887 92.7989L28.1604 90.9284C27.7471 89.6924 27.3338 88.4564 26.9204 87.2699L24.5892 80.34C23.1178 75.9316 21.7951 71.9599 20.6832 68.6227C19.5714 65.2855 18.6868 62.5952 18.0668 60.7206C17.7651 59.7936 17.5295 59.0726 17.3683 58.5658C17.2898 58.3269 17.2319 58.1538 17.1906 58.0055C17.169 57.942 17.1511 57.8774 17.1368 57.8119C17.1368 57.8119 17.1658 57.8737 17.2112 57.9973C17.2567 58.1209 17.3228 58.3145 17.4096 58.5535C17.5791 59.052 17.823 59.7689 18.1454 60.6917C18.7819 62.5622 19.6954 65.2526 20.8279 68.5733L24.7752 80.2741C25.5151 82.4783 26.2963 84.8061 27.1023 87.1875L28.3423 90.846L28.9582 92.7C29.0615 93.0131 29.169 93.3263 29.2764 93.6435L29.4335 94.1173L29.512 94.3563L29.5534 94.4757V94.5334V94.5664C29.4624 94.5664 29.76 94.5664 29.3508 94.5664C32.7732 84.4065 35.8732 75.2024 38.1176 68.5362C39.246 65.2114 40.1843 62.521 40.8002 60.6505C41.1184 59.7318 41.3664 59.0025 41.5359 58.5123C41.6227 58.2733 41.6888 58.1003 41.7343 57.9561C41.7798 57.8119 41.8459 57.7995 41.8459 57.7995Z" fill="#252536"/>
<path d="M38.564 62.3438H33.1245V76.2159H38.564V62.3438Z" fill="white"/>
<path d="M38.564 70.8063H33.1245V76.2158H38.564V70.8063Z" fill="#DA0916"/>
<path d="M38.5641 76.22C38.5591 76.1267 38.5591 76.0332 38.5641 75.9398C38.5641 75.7462 38.5641 75.4866 38.5641 75.157C38.5641 74.4649 38.5641 73.4843 38.5352 72.273C38.5352 69.801 38.5062 66.3526 38.4897 62.3603L38.593 62.4633H33.1246C33.3396 62.2491 33.1825 62.4056 33.2321 62.3603V66.332C33.2321 67.6133 33.2321 68.8493 33.2321 70.04C33.2321 72.3843 33.2321 74.4855 33.2073 76.22L33.1329 76.1458L37.0968 76.187H38.1838H38.469H38.5724C38.5724 76.187 38.4525 76.187 38.2086 76.187H37.1422L33.1329 76.2282H33.0668V76.22C33.0668 74.469 33.0668 72.3678 33.042 70.04C33.042 68.8617 33.042 67.6257 33.042 66.332V62.3603C33.0916 62.3109 32.9345 62.4633 33.1494 62.2491H38.6674V62.3521C38.6674 66.3691 38.6302 69.8464 38.6178 72.3348C38.6178 73.5461 38.5972 74.5184 38.5889 75.2188C38.5889 75.5361 38.5889 75.7874 38.5889 75.9769C38.586 76.0584 38.5777 76.1396 38.5641 76.22Z" fill="#252536"/>
<path d="M37.6795 66.559C37.0642 66.6651 36.4388 66.7012 35.8154 66.6665C35.1933 66.7008 34.5694 66.6648 33.9554 66.559C34.5691 66.4507 35.1933 66.4146 35.8154 66.4515C36.4388 66.4145 37.0645 66.4506 37.6795 66.559Z" fill="#252536"/>
<path d="M37.6795 67.5231C37.0642 67.6292 36.4388 67.6652 35.8154 67.6305C35.1933 67.6649 34.5694 67.6289 33.9554 67.5231C34.5694 67.4173 35.1933 67.3812 35.8154 67.4156C36.4388 67.3809 37.0642 67.417 37.6795 67.5231Z" fill="#252536"/>
<path d="M37.6795 68.4872C37.0645 68.5956 36.4388 68.6317 35.8154 68.5946C35.1933 68.6316 34.5691 68.5955 33.9554 68.4872C34.5694 68.3814 35.1933 68.3453 35.8154 68.3797C36.4388 68.345 37.0642 68.3811 37.6795 68.4872Z" fill="#252536"/>
<path d="M36.0427 69.4554C35.7047 69.5602 35.3492 69.5968 34.997 69.5628C34.6461 69.5966 34.292 69.56 33.9554 69.4554C34.2915 69.3482 34.6461 69.3117 34.997 69.3479C35.3492 69.3116 35.7052 69.3481 36.0427 69.4554Z" fill="#252536"/>
<path d="M36.175 74.502V74.8316H35.8154V74.5143C35.5483 74.5028 35.2883 74.4249 35.059 74.2877L35.2533 73.8551C35.4602 73.9854 35.6989 74.0566 35.9436 74.0611C36.1874 74.0611 36.2825 73.9911 36.2825 73.8881C36.2825 73.5585 35.0962 73.8016 35.0962 73.027C35.0962 72.7015 35.3318 72.4255 35.8154 72.3637V72.0382H36.175V72.3596C36.3867 72.3713 36.5929 72.4304 36.7785 72.5326L36.5966 72.9693C36.4199 72.8693 36.2211 72.8141 36.018 72.8086C35.77 72.8086 35.679 72.8952 35.679 72.9982C35.679 73.3154 36.8653 73.0764 36.8653 73.8469C36.8653 74.16 36.638 74.4319 36.175 74.502Z" fill="white"/>
<path d="M35.8154 57.7338C35.9241 58.4964 35.9601 59.2675 35.9228 60.0368C35.9599 60.8076 35.924 61.5801 35.8154 62.344C35.7092 61.5798 35.6732 60.8076 35.7079 60.0368C35.6731 59.2675 35.7091 58.4966 35.8154 57.7338Z" fill="#252536"/>
<path d="M36.3114 64.4162H34.0835V65.1825H36.3114V64.4162Z" fill="#252536"/>
<path d="M232.231 41.2412C230.645 41.2146 229.086 41.6576 227.752 42.5141C226.418 43.3705 225.369 44.6021 224.737 46.053C224.105 47.5039 223.919 49.109 224.202 50.6652C224.486 52.2215 225.226 53.659 226.329 54.796L225.99 57.0414L228.367 56.3204C229.439 56.8852 230.626 57.2003 231.838 57.2419C233.051 57.2835 234.256 57.0505 235.365 56.5606C236.474 56.0707 237.457 55.3365 238.24 54.4133C239.024 53.4901 239.587 52.4019 239.887 51.2306C240.188 50.0592 240.218 48.8352 239.975 47.6506C239.733 46.466 239.224 45.3516 238.487 44.3913C237.75 43.4309 236.804 42.6497 235.721 42.1062C234.637 41.5627 233.444 41.2712 232.231 41.2536V41.2412Z" fill="white"/>
<path d="M232.231 41.2412H232.368H232.781H233.075L233.426 41.2948L233.839 41.3566L234.298 41.4719C234.657 41.5674 235.009 41.6872 235.352 41.8304C235.757 42.0081 236.148 42.2161 236.522 42.4525C237.433 43.037 238.218 43.796 238.832 44.6855C239.575 45.7696 240.039 47.0188 240.184 48.3235C240.223 48.6806 240.241 49.0396 240.238 49.3988C240.227 49.7687 240.193 50.1376 240.134 50.503C239.939 51.7069 239.472 52.8512 238.77 53.85C238.068 54.8489 237.148 55.6765 236.079 56.271C235.305 56.6973 234.468 57.0003 233.599 57.1691L232.93 57.2598C232.707 57.2886 232.479 57.2598 232.252 57.2927C231.796 57.3112 231.338 57.2822 230.888 57.2062C229.993 57.0694 229.128 56.7824 228.329 56.3575H228.408L226.035 57.0785L225.874 57.1279L225.899 56.9631C226.015 56.1968 226.129 55.4497 226.242 54.7219L226.267 54.8084C224.894 53.3861 224.092 51.5111 224.014 49.5389C224.014 49.3865 224.014 49.234 224.014 49.0857C224.014 48.9374 224.035 48.7891 224.043 48.6407C224.051 48.4924 224.043 48.3482 224.076 48.1999L224.151 47.7879C224.343 46.7233 224.749 45.7086 225.345 44.805C225.857 44.0313 226.497 43.3501 227.238 42.7903C228.293 41.9929 229.533 41.4742 230.843 41.2824L231.446 41.2083H231.892L231.45 41.233L230.855 41.3195C229.567 41.5399 228.353 42.0702 227.317 42.8645C226.596 43.422 225.974 44.096 225.477 44.8586C224.899 45.7489 224.506 46.7467 224.324 47.792C224.324 47.9321 224.279 48.0722 224.254 48.204C224.229 48.3359 224.254 48.4883 224.225 48.616L224.2 49.0527C224.2 49.1969 224.2 49.3453 224.2 49.4936C224.226 50.1015 224.323 50.7044 224.49 51.2899C224.849 52.5421 225.511 53.6877 226.416 54.6271L226.453 54.6642V54.7136C226.34 55.4442 226.227 56.1927 226.114 56.959L225.982 56.8437L228.354 56.1185H228.396L228.437 56.1391C229.213 56.5473 230.051 56.8257 230.917 56.9631C231.355 57.0336 231.8 57.0612 232.244 57.0455C232.467 57.0455 232.686 57.0455 232.905 57.0126L233.558 56.9261C234.402 56.7621 235.215 56.4689 235.968 56.0567C236.696 55.6576 237.353 55.1427 237.915 54.5323C238.464 53.9557 238.918 53.295 239.258 52.5753C239.591 51.8964 239.819 51.1714 239.936 50.4247C239.997 50.0692 240.035 49.7099 240.047 49.3494C240.05 48.9985 240.033 48.6478 239.998 48.2988C239.865 47.0196 239.418 45.7927 238.696 44.7267C238.101 43.8471 237.336 43.0938 236.447 42.5102C236.083 42.2721 235.701 42.06 235.307 41.8757C234.968 41.7327 234.622 41.6102 234.269 41.509C233.599 41.3588 232.917 41.2691 232.231 41.2412Z" fill="#252536"/>
<path d="M228.772 48.822C228.803 48.3992 228.965 47.9963 229.235 47.6684C229.484 47.3376 229.831 47.0928 230.227 46.968C230.566 46.8726 230.928 46.8907 231.256 47.0194C231.585 47.1481 231.862 47.3804 232.045 47.6808C232.15 47.4686 232.301 47.2827 232.488 47.1369C232.662 47.0031 232.862 46.9054 233.075 46.8495C233.288 46.7936 233.51 46.7807 233.728 46.8115C234.138 46.8855 234.516 47.0857 234.806 47.3841C235.114 47.6767 235.323 48.0565 235.406 48.4718C235.506 49.0031 235.43 49.5524 235.191 50.0374C234.912 50.5361 234.516 50.9602 234.038 51.2734C233.265 51.809 232.244 52.4765 232.244 52.4765C232.244 52.4765 231.31 51.8667 230.479 51.4341C229.965 51.1872 229.519 50.8213 229.177 50.367C228.878 49.909 228.736 49.3671 228.772 48.822Z" fill="#DA0916"/>
</svg>
